G75*
G70*
%OFA0B0*%
%FSLAX24Y24*%
%IPPOS*%
%LPD*%
%AMOC8*
5,1,8,0,0,1.08239X$1,22.5*
%
%ADD10R,0.0472X0.0315*%
%ADD11R,0.0315X0.0472*%
%ADD12R,0.0276X0.0354*%
%ADD13R,0.0079X0.0591*%
D10*
X016091Y008736D03*
X016091Y009444D03*
X020165Y009461D03*
X021070Y009457D03*
X021936Y009453D03*
X021936Y008744D03*
X021070Y008748D03*
X020165Y008752D03*
X041609Y020139D03*
X042417Y020142D03*
X042417Y020851D03*
X041609Y020848D03*
D11*
X014336Y008240D03*
X015045Y008240D03*
X024291Y014411D03*
X025000Y014411D03*
G36*
X028978Y017308D02*
X029200Y017530D01*
X029532Y017198D01*
X029310Y016976D01*
X028978Y017308D01*
G37*
G36*
X029479Y017809D02*
X029701Y018031D01*
X030033Y017699D01*
X029811Y017477D01*
X029479Y017809D01*
G37*
G36*
X031620Y017758D02*
X031398Y017980D01*
X031730Y018312D01*
X031952Y018090D01*
X031620Y017758D01*
G37*
G36*
X032121Y017257D02*
X031899Y017479D01*
X032231Y017811D01*
X032453Y017589D01*
X032121Y017257D01*
G37*
X031681Y014368D03*
X030972Y014368D03*
X031251Y011600D03*
X031960Y011600D03*
X030557Y008688D03*
X029849Y008688D03*
X033743Y008699D03*
X034451Y008699D03*
X035283Y008658D03*
X035991Y008658D03*
G36*
X038195Y017357D02*
X038417Y017135D01*
X038085Y016803D01*
X037863Y017025D01*
X038195Y017357D01*
G37*
G36*
X038572Y017285D02*
X038350Y017507D01*
X038682Y017839D01*
X038904Y017617D01*
X038572Y017285D01*
G37*
G36*
X037694Y017858D02*
X037916Y017636D01*
X037584Y017304D01*
X037362Y017526D01*
X037694Y017858D01*
G37*
G36*
X038071Y017787D02*
X037849Y018009D01*
X038181Y018341D01*
X038403Y018119D01*
X038071Y017787D01*
G37*
X041922Y019075D03*
X042631Y019075D03*
X040935Y022669D03*
X040227Y022669D03*
X039745Y023390D03*
X039036Y023390D03*
X031745Y022990D03*
X031036Y022990D03*
G36*
X031127Y023662D02*
X030816Y023689D01*
X030857Y024158D01*
X031168Y024131D01*
X031127Y023662D01*
G37*
G36*
X031833Y023601D02*
X031522Y023628D01*
X031563Y024097D01*
X031874Y024070D01*
X031833Y023601D01*
G37*
D12*
G36*
X030360Y017372D02*
X030555Y017567D01*
X030804Y017318D01*
X030609Y017123D01*
X030360Y017372D01*
G37*
G36*
X029998Y017011D02*
X030193Y017206D01*
X030442Y016957D01*
X030247Y016762D01*
X029998Y017011D01*
G37*
G36*
X030690Y016319D02*
X030885Y016514D01*
X031134Y016265D01*
X030939Y016070D01*
X030690Y016319D01*
G37*
G36*
X031051Y016681D02*
X031246Y016876D01*
X031495Y016627D01*
X031300Y016432D01*
X031051Y016681D01*
G37*
D13*
G36*
X033701Y018332D02*
X033646Y018387D01*
X034063Y018804D01*
X034118Y018749D01*
X033701Y018332D01*
G37*
G36*
X033812Y018221D02*
X033757Y018276D01*
X034174Y018693D01*
X034229Y018638D01*
X033812Y018221D01*
G37*
G36*
X033924Y018109D02*
X033869Y018164D01*
X034286Y018581D01*
X034341Y018526D01*
X033924Y018109D01*
G37*
G36*
X034035Y017998D02*
X033980Y018053D01*
X034397Y018470D01*
X034452Y018415D01*
X034035Y017998D01*
G37*
G36*
X034147Y017887D02*
X034092Y017942D01*
X034509Y018359D01*
X034564Y018304D01*
X034147Y017887D01*
G37*
G36*
X034258Y017775D02*
X034203Y017830D01*
X034620Y018247D01*
X034675Y018192D01*
X034258Y017775D01*
G37*
G36*
X034369Y017664D02*
X034314Y017719D01*
X034731Y018136D01*
X034786Y018081D01*
X034369Y017664D01*
G37*
G36*
X034481Y017553D02*
X034426Y017608D01*
X034843Y018025D01*
X034898Y017970D01*
X034481Y017553D01*
G37*
G36*
X035483Y017970D02*
X035538Y018025D01*
X035955Y017608D01*
X035900Y017553D01*
X035483Y017970D01*
G37*
G36*
X035595Y018081D02*
X035650Y018136D01*
X036067Y017719D01*
X036012Y017664D01*
X035595Y018081D01*
G37*
G36*
X035706Y018192D02*
X035761Y018247D01*
X036178Y017830D01*
X036123Y017775D01*
X035706Y018192D01*
G37*
G36*
X035818Y018304D02*
X035873Y018359D01*
X036290Y017942D01*
X036235Y017887D01*
X035818Y018304D01*
G37*
G36*
X035929Y018415D02*
X035984Y018470D01*
X036401Y018053D01*
X036346Y017998D01*
X035929Y018415D01*
G37*
G36*
X036040Y018526D02*
X036095Y018581D01*
X036512Y018164D01*
X036457Y018109D01*
X036040Y018526D01*
G37*
G36*
X036152Y018638D02*
X036207Y018693D01*
X036624Y018276D01*
X036569Y018221D01*
X036152Y018638D01*
G37*
G36*
X036263Y018749D02*
X036318Y018804D01*
X036735Y018387D01*
X036680Y018332D01*
X036263Y018749D01*
G37*
G36*
X036374Y018860D02*
X036429Y018915D01*
X036846Y018498D01*
X036791Y018443D01*
X036374Y018860D01*
G37*
G36*
X036486Y018972D02*
X036541Y019027D01*
X036958Y018610D01*
X036903Y018555D01*
X036486Y018972D01*
G37*
G36*
X036597Y019083D02*
X036652Y019138D01*
X037069Y018721D01*
X037014Y018666D01*
X036597Y019083D01*
G37*
G36*
X036708Y019195D02*
X036763Y019250D01*
X037180Y018833D01*
X037125Y018778D01*
X036708Y019195D01*
G37*
G36*
X036820Y019306D02*
X036875Y019361D01*
X037292Y018944D01*
X037237Y018889D01*
X036820Y019306D01*
G37*
G36*
X036931Y019417D02*
X036986Y019472D01*
X037403Y019055D01*
X037348Y019000D01*
X036931Y019417D01*
G37*
G36*
X037042Y019529D02*
X037097Y019584D01*
X037514Y019167D01*
X037459Y019112D01*
X037042Y019529D01*
G37*
G36*
X037154Y019640D02*
X037209Y019695D01*
X037626Y019278D01*
X037571Y019223D01*
X037154Y019640D01*
G37*
G36*
X037265Y019751D02*
X037320Y019806D01*
X037737Y019389D01*
X037682Y019334D01*
X037265Y019751D01*
G37*
G36*
X037377Y019863D02*
X037432Y019918D01*
X037849Y019501D01*
X037794Y019446D01*
X037377Y019863D01*
G37*
G36*
X037488Y019974D02*
X037543Y020029D01*
X037960Y019612D01*
X037905Y019557D01*
X037488Y019974D01*
G37*
G36*
X037599Y020085D02*
X037654Y020140D01*
X038071Y019723D01*
X038016Y019668D01*
X037599Y020085D01*
G37*
G36*
X037711Y020197D02*
X037766Y020252D01*
X038183Y019835D01*
X038128Y019780D01*
X037711Y020197D01*
G37*
G36*
X037822Y020308D02*
X037877Y020363D01*
X038294Y019946D01*
X038239Y019891D01*
X037822Y020308D01*
G37*
G36*
X037933Y020419D02*
X037988Y020474D01*
X038405Y020057D01*
X038350Y020002D01*
X037933Y020419D01*
G37*
G36*
X038045Y020531D02*
X038100Y020586D01*
X038517Y020169D01*
X038462Y020114D01*
X038045Y020531D01*
G37*
G36*
X038156Y020642D02*
X038211Y020697D01*
X038628Y020280D01*
X038573Y020225D01*
X038156Y020642D01*
G37*
G36*
X038211Y021283D02*
X038156Y021338D01*
X038573Y021755D01*
X038628Y021700D01*
X038211Y021283D01*
G37*
G36*
X038100Y021394D02*
X038045Y021449D01*
X038462Y021866D01*
X038517Y021811D01*
X038100Y021394D01*
G37*
G36*
X037988Y021506D02*
X037933Y021561D01*
X038350Y021978D01*
X038405Y021923D01*
X037988Y021506D01*
G37*
G36*
X037877Y021617D02*
X037822Y021672D01*
X038239Y022089D01*
X038294Y022034D01*
X037877Y021617D01*
G37*
G36*
X037766Y021728D02*
X037711Y021783D01*
X038128Y022200D01*
X038183Y022145D01*
X037766Y021728D01*
G37*
G36*
X037654Y021840D02*
X037599Y021895D01*
X038016Y022312D01*
X038071Y022257D01*
X037654Y021840D01*
G37*
G36*
X037543Y021951D02*
X037488Y022006D01*
X037905Y022423D01*
X037960Y022368D01*
X037543Y021951D01*
G37*
G36*
X037432Y022063D02*
X037377Y022118D01*
X037794Y022535D01*
X037849Y022480D01*
X037432Y022063D01*
G37*
G36*
X037320Y022174D02*
X037265Y022229D01*
X037682Y022646D01*
X037737Y022591D01*
X037320Y022174D01*
G37*
G36*
X037209Y022285D02*
X037154Y022340D01*
X037571Y022757D01*
X037626Y022702D01*
X037209Y022285D01*
G37*
G36*
X037097Y022397D02*
X037042Y022452D01*
X037459Y022869D01*
X037514Y022814D01*
X037097Y022397D01*
G37*
G36*
X036986Y022508D02*
X036931Y022563D01*
X037348Y022980D01*
X037403Y022925D01*
X036986Y022508D01*
G37*
G36*
X036875Y022619D02*
X036820Y022674D01*
X037237Y023091D01*
X037292Y023036D01*
X036875Y022619D01*
G37*
G36*
X036763Y022731D02*
X036708Y022786D01*
X037125Y023203D01*
X037180Y023148D01*
X036763Y022731D01*
G37*
G36*
X036652Y022842D02*
X036597Y022897D01*
X037014Y023314D01*
X037069Y023259D01*
X036652Y022842D01*
G37*
G36*
X036541Y022953D02*
X036486Y023008D01*
X036903Y023425D01*
X036958Y023370D01*
X036541Y022953D01*
G37*
G36*
X036429Y023065D02*
X036374Y023120D01*
X036791Y023537D01*
X036846Y023482D01*
X036429Y023065D01*
G37*
G36*
X036318Y023176D02*
X036263Y023231D01*
X036680Y023648D01*
X036735Y023593D01*
X036318Y023176D01*
G37*
G36*
X036207Y023287D02*
X036152Y023342D01*
X036569Y023759D01*
X036624Y023704D01*
X036207Y023287D01*
G37*
G36*
X036095Y023399D02*
X036040Y023454D01*
X036457Y023871D01*
X036512Y023816D01*
X036095Y023399D01*
G37*
G36*
X035984Y023510D02*
X035929Y023565D01*
X036346Y023982D01*
X036401Y023927D01*
X035984Y023510D01*
G37*
G36*
X035873Y023621D02*
X035818Y023676D01*
X036235Y024093D01*
X036290Y024038D01*
X035873Y023621D01*
G37*
G36*
X035761Y023733D02*
X035706Y023788D01*
X036123Y024205D01*
X036178Y024150D01*
X035761Y023733D01*
G37*
G36*
X035650Y023844D02*
X035595Y023899D01*
X036012Y024316D01*
X036067Y024261D01*
X035650Y023844D01*
G37*
G36*
X035538Y023956D02*
X035483Y024011D01*
X035900Y024428D01*
X035955Y024373D01*
X035538Y023956D01*
G37*
G36*
X034426Y024373D02*
X034481Y024428D01*
X034898Y024011D01*
X034843Y023956D01*
X034426Y024373D01*
G37*
G36*
X034314Y024261D02*
X034369Y024316D01*
X034786Y023899D01*
X034731Y023844D01*
X034314Y024261D01*
G37*
G36*
X034203Y024150D02*
X034258Y024205D01*
X034675Y023788D01*
X034620Y023733D01*
X034203Y024150D01*
G37*
G36*
X034092Y024038D02*
X034147Y024093D01*
X034564Y023676D01*
X034509Y023621D01*
X034092Y024038D01*
G37*
G36*
X033980Y023927D02*
X034035Y023982D01*
X034452Y023565D01*
X034397Y023510D01*
X033980Y023927D01*
G37*
G36*
X033869Y023816D02*
X033924Y023871D01*
X034341Y023454D01*
X034286Y023399D01*
X033869Y023816D01*
G37*
G36*
X033757Y023704D02*
X033812Y023759D01*
X034229Y023342D01*
X034174Y023287D01*
X033757Y023704D01*
G37*
G36*
X033646Y023593D02*
X033701Y023648D01*
X034118Y023231D01*
X034063Y023176D01*
X033646Y023593D01*
G37*
G36*
X033535Y023482D02*
X033590Y023537D01*
X034007Y023120D01*
X033952Y023065D01*
X033535Y023482D01*
G37*
G36*
X033423Y023370D02*
X033478Y023425D01*
X033895Y023008D01*
X033840Y022953D01*
X033423Y023370D01*
G37*
G36*
X033312Y023259D02*
X033367Y023314D01*
X033784Y022897D01*
X033729Y022842D01*
X033312Y023259D01*
G37*
G36*
X033201Y023148D02*
X033256Y023203D01*
X033673Y022786D01*
X033618Y022731D01*
X033201Y023148D01*
G37*
G36*
X033089Y023036D02*
X033144Y023091D01*
X033561Y022674D01*
X033506Y022619D01*
X033089Y023036D01*
G37*
G36*
X032978Y022925D02*
X033033Y022980D01*
X033450Y022563D01*
X033395Y022508D01*
X032978Y022925D01*
G37*
G36*
X032867Y022814D02*
X032922Y022869D01*
X033339Y022452D01*
X033284Y022397D01*
X032867Y022814D01*
G37*
G36*
X032755Y022702D02*
X032810Y022757D01*
X033227Y022340D01*
X033172Y022285D01*
X032755Y022702D01*
G37*
G36*
X032644Y022591D02*
X032699Y022646D01*
X033116Y022229D01*
X033061Y022174D01*
X032644Y022591D01*
G37*
G36*
X032533Y022480D02*
X032588Y022535D01*
X033005Y022118D01*
X032950Y022063D01*
X032533Y022480D01*
G37*
G36*
X032421Y022368D02*
X032476Y022423D01*
X032893Y022006D01*
X032838Y021951D01*
X032421Y022368D01*
G37*
G36*
X032310Y022257D02*
X032365Y022312D01*
X032782Y021895D01*
X032727Y021840D01*
X032310Y022257D01*
G37*
G36*
X032198Y022145D02*
X032253Y022200D01*
X032670Y021783D01*
X032615Y021728D01*
X032198Y022145D01*
G37*
G36*
X032087Y022034D02*
X032142Y022089D01*
X032559Y021672D01*
X032504Y021617D01*
X032087Y022034D01*
G37*
G36*
X031976Y021923D02*
X032031Y021978D01*
X032448Y021561D01*
X032393Y021506D01*
X031976Y021923D01*
G37*
G36*
X031864Y021811D02*
X031919Y021866D01*
X032336Y021449D01*
X032281Y021394D01*
X031864Y021811D01*
G37*
G36*
X031753Y021700D02*
X031808Y021755D01*
X032225Y021338D01*
X032170Y021283D01*
X031753Y021700D01*
G37*
G36*
X031808Y020225D02*
X031753Y020280D01*
X032170Y020697D01*
X032225Y020642D01*
X031808Y020225D01*
G37*
G36*
X031919Y020114D02*
X031864Y020169D01*
X032281Y020586D01*
X032336Y020531D01*
X031919Y020114D01*
G37*
G36*
X032031Y020002D02*
X031976Y020057D01*
X032393Y020474D01*
X032448Y020419D01*
X032031Y020002D01*
G37*
G36*
X032142Y019891D02*
X032087Y019946D01*
X032504Y020363D01*
X032559Y020308D01*
X032142Y019891D01*
G37*
G36*
X032253Y019780D02*
X032198Y019835D01*
X032615Y020252D01*
X032670Y020197D01*
X032253Y019780D01*
G37*
G36*
X032365Y019668D02*
X032310Y019723D01*
X032727Y020140D01*
X032782Y020085D01*
X032365Y019668D01*
G37*
G36*
X032476Y019557D02*
X032421Y019612D01*
X032838Y020029D01*
X032893Y019974D01*
X032476Y019557D01*
G37*
G36*
X032588Y019446D02*
X032533Y019501D01*
X032950Y019918D01*
X033005Y019863D01*
X032588Y019446D01*
G37*
G36*
X032699Y019334D02*
X032644Y019389D01*
X033061Y019806D01*
X033116Y019751D01*
X032699Y019334D01*
G37*
G36*
X032810Y019223D02*
X032755Y019278D01*
X033172Y019695D01*
X033227Y019640D01*
X032810Y019223D01*
G37*
G36*
X032922Y019112D02*
X032867Y019167D01*
X033284Y019584D01*
X033339Y019529D01*
X032922Y019112D01*
G37*
G36*
X033033Y019000D02*
X032978Y019055D01*
X033395Y019472D01*
X033450Y019417D01*
X033033Y019000D01*
G37*
G36*
X033144Y018889D02*
X033089Y018944D01*
X033506Y019361D01*
X033561Y019306D01*
X033144Y018889D01*
G37*
G36*
X033256Y018778D02*
X033201Y018833D01*
X033618Y019250D01*
X033673Y019195D01*
X033256Y018778D01*
G37*
G36*
X033367Y018666D02*
X033312Y018721D01*
X033729Y019138D01*
X033784Y019083D01*
X033367Y018666D01*
G37*
G36*
X033478Y018555D02*
X033423Y018610D01*
X033840Y019027D01*
X033895Y018972D01*
X033478Y018555D01*
G37*
G36*
X033590Y018443D02*
X033535Y018498D01*
X033952Y018915D01*
X034007Y018860D01*
X033590Y018443D01*
G37*
M02*
