G75*
G70*
%OFA0B0*%
%FSLAX24Y24*%
%IPPOS*%
%LPD*%
%AMOC8*
5,1,8,0,0,1.08239X$1,22.5*
%
%ADD10R,0.0395X0.0552*%
%ADD11R,0.0477X0.0477*%
%ADD12C,0.0980*%
%ADD13C,0.0780*%
%ADD14C,0.0820*%
%ADD15R,0.0552X0.0395*%
%ADD16R,0.0674X0.0674*%
%ADD17R,0.0789X0.0789*%
%ADD18R,0.0820X0.0820*%
%ADD19C,0.1380*%
%ADD20C,0.0476*%
D10*
G36*
X035675Y019525D02*
X035396Y019246D01*
X035007Y019635D01*
X035286Y019914D01*
X035675Y019525D01*
G37*
G36*
X036176Y020026D02*
X035897Y019747D01*
X035508Y020136D01*
X035787Y020415D01*
X036176Y020026D01*
G37*
G36*
X037380Y020862D02*
X037101Y020583D01*
X036712Y020972D01*
X036991Y021251D01*
X037380Y020862D01*
G37*
G36*
X037881Y021363D02*
X037602Y021084D01*
X037213Y021473D01*
X037492Y021752D01*
X037881Y021363D01*
G37*
G36*
X037848Y022413D02*
X037569Y022692D01*
X037958Y023081D01*
X038237Y022802D01*
X037848Y022413D01*
G37*
G36*
X037347Y022914D02*
X037068Y023193D01*
X037457Y023582D01*
X037736Y023303D01*
X037347Y022914D01*
G37*
G36*
X036075Y023986D02*
X035796Y023707D01*
X035407Y024096D01*
X035686Y024375D01*
X036075Y023986D01*
G37*
G36*
X035574Y023485D02*
X035295Y023206D01*
X034906Y023595D01*
X035185Y023874D01*
X035574Y023485D01*
G37*
G36*
X034136Y023125D02*
X034415Y023404D01*
X034804Y023015D01*
X034525Y022736D01*
X034136Y023125D01*
G37*
G36*
X033974Y023352D02*
X033695Y023073D01*
X033306Y023462D01*
X033585Y023741D01*
X033974Y023352D01*
G37*
G36*
X033473Y022851D02*
X033194Y022572D01*
X032805Y022961D01*
X033084Y023240D01*
X033473Y022851D01*
G37*
G36*
X033635Y022624D02*
X033914Y022903D01*
X034303Y022514D01*
X034024Y022235D01*
X033635Y022624D01*
G37*
G36*
X033110Y022061D02*
X033389Y021782D01*
X033000Y021393D01*
X032721Y021672D01*
X033110Y022061D01*
G37*
G36*
X033611Y021560D02*
X033890Y021281D01*
X033501Y020892D01*
X033222Y021171D01*
X033611Y021560D01*
G37*
G36*
X034417Y024480D02*
X034696Y024759D01*
X035085Y024370D01*
X034806Y024091D01*
X034417Y024480D01*
G37*
G36*
X034918Y024981D02*
X035197Y025260D01*
X035586Y024871D01*
X035307Y024592D01*
X034918Y024981D01*
G37*
D11*
G36*
X029964Y018419D02*
X029628Y018755D01*
X029964Y019091D01*
X030300Y018755D01*
X029964Y018419D01*
G37*
G36*
X031323Y017061D02*
X030987Y017397D01*
X031323Y017733D01*
X031659Y017397D01*
X031323Y017061D01*
G37*
D12*
X024652Y018927D03*
X018652Y018927D03*
X014191Y016615D03*
X008191Y016615D03*
X008566Y021290D03*
X013816Y021290D03*
X018652Y024177D03*
X013816Y027290D03*
X008566Y027290D03*
X024652Y024177D03*
X045839Y024374D03*
X051839Y024374D03*
X056666Y027290D03*
X061916Y027290D03*
X061916Y021290D03*
X056666Y021290D03*
X051839Y019124D03*
X056766Y016936D03*
X062016Y016936D03*
X062016Y010936D03*
X056766Y010936D03*
X045839Y019124D03*
X014191Y011365D03*
X008191Y011365D03*
D13*
X009941Y008990D03*
X012441Y008990D03*
X012441Y010990D03*
X009941Y010990D03*
X015191Y012990D03*
X015191Y013990D03*
X015191Y014990D03*
X020402Y016552D03*
X022902Y016552D03*
X022902Y018552D03*
X020402Y018552D03*
X025652Y020552D03*
X025652Y021552D03*
X025652Y022552D03*
X022652Y025552D03*
X021652Y025552D03*
X020652Y025552D03*
X015191Y025290D03*
X015191Y024290D03*
X015191Y023290D03*
X012191Y020290D03*
X011191Y020290D03*
X010191Y020290D03*
X010191Y017990D03*
X011191Y017990D03*
X012191Y017990D03*
X008191Y023040D03*
X006191Y023040D03*
X006191Y025540D03*
X008191Y025540D03*
X047839Y025749D03*
X048839Y025749D03*
X049839Y025749D03*
X055291Y025290D03*
X055291Y024290D03*
X055291Y023290D03*
X052839Y022749D03*
X052839Y021749D03*
X052839Y020749D03*
X050089Y018749D03*
X047589Y018749D03*
X047589Y016749D03*
X050089Y016749D03*
X055391Y014936D03*
X055391Y013936D03*
X055391Y012936D03*
X062391Y012686D03*
X064391Y012686D03*
X064391Y015186D03*
X062391Y015186D03*
X060391Y017936D03*
X059391Y017936D03*
X058391Y017936D03*
X062291Y023040D03*
X064291Y023040D03*
X064291Y025540D03*
X062291Y025540D03*
X060291Y028290D03*
X059291Y028290D03*
X058291Y028290D03*
D14*
X051891Y028240D03*
X050891Y028140D03*
X049891Y028240D03*
X048391Y028240D03*
X047391Y028140D03*
X046391Y028240D03*
X044891Y028240D03*
X043891Y028140D03*
X042891Y028240D03*
X041391Y028240D03*
X040391Y028140D03*
X039391Y028240D03*
X037891Y028240D03*
X036891Y028140D03*
X035891Y028240D03*
X034391Y028240D03*
X033391Y028140D03*
X032391Y028240D03*
X030891Y028240D03*
X029891Y028140D03*
X028891Y028240D03*
X027391Y028240D03*
X026391Y028140D03*
X025391Y028240D03*
X023891Y028240D03*
X022891Y028140D03*
X021891Y028240D03*
X020391Y028240D03*
X019391Y028140D03*
X018391Y028240D03*
X042372Y021394D03*
X043027Y020632D03*
X043519Y019756D03*
X044174Y018994D03*
X044666Y018117D03*
X045321Y017356D03*
X042039Y013390D03*
X041039Y013490D03*
X040039Y013390D03*
X039039Y013490D03*
X038039Y013390D03*
X037039Y013490D03*
X036039Y013390D03*
X035039Y013490D03*
X034039Y013390D03*
X033039Y013490D03*
X032039Y013390D03*
X031039Y013490D03*
X030039Y013390D03*
X029039Y013490D03*
X028039Y013390D03*
X027039Y013490D03*
X026039Y013390D03*
X025039Y013490D03*
X024039Y013390D03*
X024039Y012390D03*
X025039Y012490D03*
X026039Y012390D03*
X027039Y012490D03*
X028039Y012390D03*
X029039Y012490D03*
X030039Y012390D03*
X031039Y012490D03*
X032039Y012390D03*
X034039Y012390D03*
X035039Y012490D03*
X036039Y012390D03*
X037039Y012490D03*
X038039Y012390D03*
X039039Y012490D03*
X040039Y012390D03*
X041039Y012490D03*
X042039Y012390D03*
X042377Y010480D03*
X043377Y010380D03*
X044377Y010480D03*
X044377Y009480D03*
X043377Y009380D03*
X042377Y009480D03*
X041377Y009380D03*
X040377Y009480D03*
X039377Y009380D03*
X038377Y009480D03*
X037377Y009380D03*
X036377Y009480D03*
X035377Y009380D03*
X034377Y009480D03*
X033377Y009380D03*
X032377Y009480D03*
X031377Y009380D03*
X030377Y009480D03*
X029377Y009380D03*
X028377Y009480D03*
X027377Y009380D03*
X026377Y009480D03*
X026377Y010480D03*
X027377Y010380D03*
X028377Y010480D03*
X029377Y010380D03*
X030377Y010480D03*
X031377Y010380D03*
X032377Y010480D03*
X033377Y010380D03*
X034377Y010480D03*
X036377Y010480D03*
X037377Y010380D03*
X038377Y010480D03*
X039377Y010380D03*
X040377Y010480D03*
X041377Y010380D03*
X019299Y010674D03*
X018241Y010520D03*
X018241Y011660D03*
X019199Y011674D03*
X019299Y012674D03*
X019199Y013674D03*
X019299Y014674D03*
D15*
X045276Y015822D03*
X045276Y016530D03*
D16*
X051985Y012986D03*
X053103Y012986D03*
D17*
X051654Y009926D03*
X052638Y008941D03*
X050669Y008941D03*
X048680Y008941D03*
X047696Y009926D03*
X046712Y008941D03*
D18*
X043039Y012490D03*
X043039Y013490D03*
X025377Y010380D03*
X025377Y009380D03*
D19*
X006803Y009373D03*
X015403Y019173D03*
X017386Y026263D03*
X053313Y026370D03*
X055013Y019070D03*
X063656Y009254D03*
D20*
X063461Y013960D03*
X063391Y015590D03*
X052491Y010190D03*
X052011Y012070D03*
X048091Y011890D03*
X046591Y012990D03*
X045791Y012490D03*
X045291Y013490D03*
X044291Y013490D03*
X047291Y014190D03*
X045791Y014990D03*
X043391Y015590D03*
X041491Y014890D03*
X040491Y014990D03*
X039391Y015090D03*
X038991Y014290D03*
X038011Y014380D03*
X037091Y014290D03*
X036161Y014230D03*
X035091Y014390D03*
X034191Y014390D03*
X033291Y014290D03*
X031341Y014650D03*
X028891Y014290D03*
X027521Y014420D03*
X026591Y014740D03*
X026841Y015540D03*
X027891Y015790D03*
X028191Y016390D03*
X027591Y016690D03*
X028291Y016990D03*
X027891Y017390D03*
X027981Y018070D03*
X029291Y016790D03*
X032641Y019160D03*
X031931Y019900D03*
X033691Y020690D03*
X033991Y021590D03*
X033491Y022390D03*
X032591Y023290D03*
X033891Y023790D03*
X033991Y024390D03*
X034341Y025000D03*
X034791Y025390D03*
X035991Y025190D03*
X035991Y024644D03*
X036391Y024320D03*
X036581Y023080D03*
X036431Y022440D03*
X035631Y022660D03*
X036251Y021910D03*
X036901Y021950D03*
X037511Y022100D03*
X038071Y022050D03*
X039691Y021890D03*
X040791Y022190D03*
X042491Y024290D03*
X042091Y025290D03*
X041391Y025090D03*
X040691Y024690D03*
X040191Y024390D03*
X038791Y025320D03*
X038311Y024940D03*
X040511Y026350D03*
X035881Y027270D03*
X034391Y027290D03*
X033051Y026730D03*
X033591Y026290D03*
X030691Y022990D03*
X029491Y022390D03*
X030191Y022290D03*
X035981Y020810D03*
X036231Y020360D03*
X036471Y021020D03*
X037471Y019640D03*
X037791Y019170D03*
X036791Y017690D03*
X037491Y017290D03*
X038191Y016990D03*
X038891Y016690D03*
X037891Y016290D03*
X037091Y016690D03*
X036401Y017210D03*
X035991Y017590D03*
X035391Y018390D03*
X034891Y018400D03*
X035111Y019140D03*
X041391Y018490D03*
X042691Y018090D03*
X038601Y015860D03*
X033191Y012490D03*
X034791Y011590D03*
X035531Y011450D03*
X036671Y011550D03*
X037891Y011490D03*
X038951Y011500D03*
X039921Y011480D03*
X040891Y011410D03*
X042021Y011430D03*
X045291Y009490D03*
X045891Y011190D03*
X051991Y014690D03*
X050151Y014934D03*
X050791Y020190D03*
X049391Y020690D03*
X049191Y024590D03*
X050591Y024590D03*
X030991Y011390D03*
X028391Y011390D03*
X023191Y009890D03*
X021991Y009890D03*
X020591Y009890D03*
X019591Y009790D03*
X016491Y009890D03*
X008591Y018290D03*
X007991Y019790D03*
M02*
