G75*
G70*
%OFA0B0*%
%FSLAX24Y24*%
%IPPOS*%
%LPD*%
%AMOC8*
5,1,8,0,0,1.08239X$1,22.5*
%
%ADD10C,0.0060*%
%ADD11C,0.0050*%
%ADD12C,0.0080*%
D10*
X032340Y024493D02*
X032576Y024493D01*
X032576Y024966D02*
X032340Y024966D01*
D11*
X031137Y019118D02*
X033058Y017198D01*
X033058Y017197D02*
X033100Y017153D01*
X033138Y017106D01*
X033174Y017057D01*
X033206Y017006D01*
X033235Y016953D01*
X033260Y016898D01*
X033282Y016841D01*
X033300Y016783D01*
X033315Y016724D01*
X033325Y016665D01*
X033332Y016605D01*
X033335Y016544D01*
X033334Y016484D01*
X033329Y016423D01*
X033320Y016363D01*
X033308Y016304D01*
X033292Y016246D01*
X033272Y016188D01*
X033248Y016133D01*
X033221Y016079D01*
X033190Y016026D01*
X033156Y015976D01*
X033119Y015928D01*
X033079Y015883D01*
X033036Y015840D01*
X032991Y015800D01*
X032943Y015763D01*
X032893Y015729D01*
X032840Y015698D01*
X032786Y015671D01*
X032731Y015647D01*
X032673Y015627D01*
X032615Y015611D01*
X032556Y015599D01*
X032496Y015590D01*
X032435Y015585D01*
X032375Y015584D01*
X032314Y015587D01*
X032254Y015594D01*
X032195Y015604D01*
X032136Y015619D01*
X032078Y015637D01*
X032021Y015659D01*
X031966Y015684D01*
X031913Y015713D01*
X031862Y015745D01*
X031813Y015781D01*
X031766Y015819D01*
X031722Y015861D01*
X029829Y017754D01*
X029787Y017798D01*
X029749Y017845D01*
X029713Y017894D01*
X029681Y017945D01*
X029652Y017998D01*
X029627Y018053D01*
X029605Y018110D01*
X029587Y018168D01*
X029572Y018227D01*
X029562Y018286D01*
X029555Y018346D01*
X029552Y018407D01*
X029553Y018467D01*
X029558Y018528D01*
X029567Y018588D01*
X029579Y018647D01*
X029595Y018705D01*
X029615Y018763D01*
X029639Y018818D01*
X029666Y018872D01*
X029697Y018925D01*
X029731Y018975D01*
X029768Y019023D01*
X029808Y019068D01*
X029851Y019111D01*
X029896Y019151D01*
X029944Y019188D01*
X029994Y019222D01*
X030047Y019253D01*
X030101Y019280D01*
X030156Y019304D01*
X030214Y019324D01*
X030272Y019340D01*
X030331Y019352D01*
X030391Y019361D01*
X030452Y019366D01*
X030512Y019367D01*
X030573Y019364D01*
X030633Y019357D01*
X030692Y019347D01*
X030751Y019332D01*
X030809Y019314D01*
X030866Y019292D01*
X030921Y019267D01*
X030974Y019238D01*
X031025Y019206D01*
X031074Y019170D01*
X031121Y019132D01*
X031165Y019090D01*
X045982Y008841D02*
X046297Y008841D01*
X045982Y008841D02*
X045982Y007857D01*
X049525Y007857D01*
X049525Y008841D01*
X049210Y008841D01*
X048305Y008841D02*
X047202Y008841D01*
X050724Y008841D02*
X050724Y007857D01*
X054268Y007857D01*
X054268Y008841D01*
X053953Y008841D01*
X053047Y008841D02*
X051945Y008841D01*
X051039Y008841D02*
X050724Y008841D01*
D12*
X023789Y011940D02*
X023539Y012190D01*
X023539Y012690D01*
X023789Y012940D01*
X024289Y012940D01*
X024539Y012690D01*
X024789Y012940D01*
X025289Y012940D01*
X025539Y012690D01*
X025789Y012940D01*
X026289Y012940D01*
X026539Y012690D01*
X026789Y012940D01*
X027289Y012940D01*
X027539Y012690D01*
X027789Y012940D01*
X028289Y012940D01*
X028539Y012690D01*
X028789Y012940D01*
X029289Y012940D01*
X029539Y012690D01*
X029789Y012940D01*
X030289Y012940D01*
X030539Y012690D01*
X030789Y012940D01*
X031289Y012940D01*
X031539Y012690D01*
X031789Y012940D01*
X032289Y012940D01*
X032539Y012690D01*
X032539Y012190D01*
X032289Y011940D01*
X031789Y011940D01*
X031539Y012190D01*
X031289Y011940D01*
X030789Y011940D01*
X030539Y012190D01*
X030289Y011940D01*
X029789Y011940D01*
X029539Y012190D01*
X029289Y011940D01*
X028789Y011940D01*
X028539Y012190D01*
X028289Y011940D01*
X027789Y011940D01*
X027539Y012190D01*
X027289Y011940D01*
X026789Y011940D01*
X026539Y012190D01*
X026289Y011940D01*
X025789Y011940D01*
X025539Y012190D01*
X025289Y011940D01*
X024789Y011940D01*
X024539Y012190D01*
X024289Y011940D01*
X023789Y011940D01*
X023789Y012940D02*
X023539Y013190D01*
X023539Y013690D01*
X023789Y013940D01*
X024289Y013940D01*
X024539Y013690D01*
X024789Y013940D01*
X025289Y013940D01*
X025539Y013690D01*
X025789Y013940D01*
X026289Y013940D01*
X026539Y013690D01*
X026789Y013940D01*
X027289Y013940D01*
X027539Y013690D01*
X027789Y013940D01*
X028289Y013940D01*
X028539Y013690D01*
X028789Y013940D01*
X029289Y013940D01*
X029539Y013690D01*
X029789Y013940D01*
X030289Y013940D01*
X030539Y013690D01*
X030789Y013940D01*
X031289Y013940D01*
X031539Y013690D01*
X031789Y013940D01*
X032289Y013940D01*
X032539Y013690D01*
X032789Y013940D01*
X033289Y013940D01*
X033539Y013690D01*
X033789Y013940D01*
X034289Y013940D01*
X034539Y013690D01*
X034789Y013940D01*
X035289Y013940D01*
X035539Y013690D01*
X035789Y013940D01*
X036289Y013940D01*
X036539Y013690D01*
X036789Y013940D01*
X037289Y013940D01*
X037539Y013690D01*
X037789Y013940D01*
X038289Y013940D01*
X038539Y013690D01*
X038789Y013940D01*
X039289Y013940D01*
X039539Y013690D01*
X039789Y013940D01*
X040289Y013940D01*
X040539Y013690D01*
X040789Y013940D01*
X041289Y013940D01*
X041539Y013690D01*
X041789Y013940D01*
X042289Y013940D01*
X042539Y013690D01*
X042789Y013940D01*
X043289Y013940D01*
X043539Y013690D01*
X043539Y013190D01*
X043289Y012940D01*
X043539Y012690D01*
X043539Y012190D01*
X043289Y011940D01*
X042789Y011940D01*
X042539Y012190D01*
X042289Y011940D01*
X041789Y011940D01*
X041539Y012190D01*
X041289Y011940D01*
X040789Y011940D01*
X040539Y012190D01*
X040289Y011940D01*
X039789Y011940D01*
X039539Y012190D01*
X039289Y011940D01*
X038789Y011940D01*
X038539Y012190D01*
X038289Y011940D01*
X037789Y011940D01*
X037539Y012190D01*
X037289Y011940D01*
X036789Y011940D01*
X036539Y012190D01*
X036289Y011940D01*
X035789Y011940D01*
X035539Y012190D01*
X035289Y011940D01*
X034789Y011940D01*
X034539Y012190D01*
X034289Y011940D01*
X033789Y011940D01*
X033539Y012190D01*
X033539Y012690D01*
X033789Y012940D01*
X034289Y012940D01*
X034539Y012690D01*
X034789Y012940D01*
X035289Y012940D01*
X035539Y012690D01*
X035789Y012940D01*
X036289Y012940D01*
X036539Y012690D01*
X036789Y012940D01*
X037289Y012940D01*
X037539Y012690D01*
X037789Y012940D01*
X038289Y012940D01*
X038539Y012690D01*
X038789Y012940D01*
X039289Y012940D01*
X039539Y012690D01*
X039789Y012940D01*
X040289Y012940D01*
X040539Y012690D01*
X040789Y012940D01*
X041289Y012940D01*
X041539Y012690D01*
X041789Y012940D01*
X042289Y012940D01*
X042539Y012690D01*
X042789Y012940D01*
X043289Y012940D01*
X042789Y012940D02*
X042539Y013190D01*
X042289Y012940D01*
X041789Y012940D02*
X041539Y013190D01*
X041289Y012940D01*
X040789Y012940D02*
X040539Y013190D01*
X040289Y012940D01*
X039789Y012940D02*
X039539Y013190D01*
X039289Y012940D01*
X038789Y012940D02*
X038539Y013190D01*
X038289Y012940D01*
X037789Y012940D02*
X037539Y013190D01*
X037289Y012940D01*
X036789Y012940D02*
X036539Y013190D01*
X036289Y012940D01*
X035789Y012940D02*
X035539Y013190D01*
X035289Y012940D01*
X034789Y012940D02*
X034539Y013190D01*
X034289Y012940D01*
X033789Y012940D02*
X033539Y013190D01*
X033289Y012940D01*
X032789Y012940D01*
X032539Y013190D01*
X032289Y012940D01*
X031789Y012940D02*
X031539Y013190D01*
X031289Y012940D01*
X030789Y012940D02*
X030539Y013190D01*
X030289Y012940D01*
X029789Y012940D02*
X029539Y013190D01*
X029289Y012940D01*
X028789Y012940D02*
X028539Y013190D01*
X028289Y012940D01*
X027789Y012940D02*
X027539Y013190D01*
X027289Y012940D01*
X026789Y012940D02*
X026539Y013190D01*
X026289Y012940D01*
X025789Y012940D02*
X025539Y013190D01*
X025289Y012940D01*
X024789Y012940D02*
X024539Y013190D01*
X024289Y012940D01*
X025127Y010930D02*
X025627Y010930D01*
X025877Y010680D01*
X026127Y010930D01*
X026627Y010930D01*
X026877Y010680D01*
X027127Y010930D01*
X027627Y010930D01*
X027877Y010680D01*
X028127Y010930D01*
X028627Y010930D01*
X028877Y010680D01*
X029127Y010930D01*
X029627Y010930D01*
X029877Y010680D01*
X030127Y010930D01*
X030627Y010930D01*
X030877Y010680D01*
X031127Y010930D01*
X031627Y010930D01*
X031877Y010680D01*
X032127Y010930D01*
X032627Y010930D01*
X032877Y010680D01*
X033127Y010930D01*
X033627Y010930D01*
X033877Y010680D01*
X034127Y010930D01*
X034627Y010930D01*
X034877Y010680D01*
X034877Y010180D01*
X034627Y009930D01*
X034127Y009930D01*
X033877Y010180D01*
X033627Y009930D01*
X033127Y009930D01*
X032877Y010180D01*
X032627Y009930D01*
X032127Y009930D01*
X031877Y010180D01*
X031627Y009930D01*
X031127Y009930D01*
X030877Y010180D01*
X030627Y009930D01*
X030127Y009930D01*
X029877Y010180D01*
X029627Y009930D01*
X029127Y009930D01*
X028877Y010180D01*
X028627Y009930D01*
X028127Y009930D01*
X027877Y010180D01*
X027627Y009930D01*
X027127Y009930D01*
X026877Y010180D01*
X026627Y009930D01*
X026127Y009930D01*
X025877Y010180D01*
X025627Y009930D01*
X025127Y009930D01*
X024877Y010180D01*
X024877Y010680D01*
X025127Y010930D01*
X025127Y009930D02*
X024877Y009680D01*
X024877Y009180D01*
X025127Y008930D01*
X025627Y008930D01*
X025877Y009180D01*
X026127Y008930D01*
X026627Y008930D01*
X026877Y009180D01*
X027127Y008930D01*
X027627Y008930D01*
X027877Y009180D01*
X028127Y008930D01*
X028627Y008930D01*
X028877Y009180D01*
X029127Y008930D01*
X029627Y008930D01*
X029877Y009180D01*
X030127Y008930D01*
X030627Y008930D01*
X030877Y009180D01*
X031127Y008930D01*
X031627Y008930D01*
X031877Y009180D01*
X032127Y008930D01*
X032627Y008930D01*
X032877Y009180D01*
X033127Y008930D01*
X033627Y008930D01*
X033877Y009180D01*
X034127Y008930D01*
X034627Y008930D01*
X034877Y009180D01*
X035127Y008930D01*
X035627Y008930D01*
X035877Y009180D01*
X036127Y008930D01*
X036627Y008930D01*
X036877Y009180D01*
X037127Y008930D01*
X037627Y008930D01*
X037877Y009180D01*
X038127Y008930D01*
X038627Y008930D01*
X038877Y009180D01*
X039127Y008930D01*
X039627Y008930D01*
X039877Y009180D01*
X040127Y008930D01*
X040627Y008930D01*
X040877Y009180D01*
X041127Y008930D01*
X041627Y008930D01*
X041877Y009180D01*
X042127Y008930D01*
X042627Y008930D01*
X042877Y009180D01*
X043127Y008930D01*
X043627Y008930D01*
X043877Y009180D01*
X044127Y008930D01*
X044627Y008930D01*
X044877Y009180D01*
X044877Y009680D01*
X044627Y009930D01*
X044877Y010180D01*
X044877Y010680D01*
X044627Y010930D01*
X044127Y010930D01*
X043877Y010680D01*
X043627Y010930D01*
X043127Y010930D01*
X042877Y010680D01*
X042627Y010930D01*
X042127Y010930D01*
X041877Y010680D01*
X041627Y010930D01*
X041127Y010930D01*
X040877Y010680D01*
X040627Y010930D01*
X040127Y010930D01*
X039877Y010680D01*
X039627Y010930D01*
X039127Y010930D01*
X038877Y010680D01*
X038627Y010930D01*
X038127Y010930D01*
X037877Y010680D01*
X037627Y010930D01*
X037127Y010930D01*
X036877Y010680D01*
X036627Y010930D01*
X036127Y010930D01*
X035877Y010680D01*
X035877Y010180D01*
X036127Y009930D01*
X036627Y009930D01*
X036877Y010180D01*
X037127Y009930D01*
X037627Y009930D01*
X037877Y010180D01*
X038127Y009930D01*
X038627Y009930D01*
X038877Y010180D01*
X039127Y009930D01*
X039627Y009930D01*
X039877Y010180D01*
X040127Y009930D01*
X040627Y009930D01*
X040877Y010180D01*
X041127Y009930D01*
X041627Y009930D01*
X041877Y010180D01*
X042127Y009930D01*
X042627Y009930D01*
X042877Y010180D01*
X043127Y009930D01*
X043627Y009930D01*
X043877Y010180D01*
X044127Y009930D01*
X044627Y009930D01*
X044127Y009930D02*
X043877Y009680D01*
X043627Y009930D01*
X043127Y009930D02*
X042877Y009680D01*
X042627Y009930D01*
X042127Y009930D02*
X041877Y009680D01*
X041627Y009930D01*
X041127Y009930D02*
X040877Y009680D01*
X040627Y009930D01*
X040127Y009930D02*
X039877Y009680D01*
X039627Y009930D01*
X039127Y009930D02*
X038877Y009680D01*
X038627Y009930D01*
X038127Y009930D02*
X037877Y009680D01*
X037627Y009930D01*
X037127Y009930D02*
X036877Y009680D01*
X036627Y009930D01*
X036127Y009930D02*
X035877Y009680D01*
X035627Y009930D01*
X035127Y009930D01*
X034877Y009680D01*
X034627Y009930D01*
X034127Y009930D02*
X033877Y009680D01*
X033627Y009930D01*
X033127Y009930D02*
X032877Y009680D01*
X032627Y009930D01*
X032127Y009930D02*
X031877Y009680D01*
X031627Y009930D01*
X031127Y009930D02*
X030877Y009680D01*
X030627Y009930D01*
X030127Y009930D02*
X029877Y009680D01*
X029627Y009930D01*
X029127Y009930D02*
X028877Y009680D01*
X028627Y009930D01*
X028127Y009930D02*
X027877Y009680D01*
X027627Y009930D01*
X027127Y009930D02*
X026877Y009680D01*
X026627Y009930D01*
X026127Y009930D02*
X025877Y009680D01*
X025627Y009930D01*
X026599Y018074D02*
X026349Y018324D01*
X026349Y018824D01*
X026599Y019074D01*
X026349Y019324D01*
X026349Y019824D01*
X026599Y020074D01*
X026349Y020324D01*
X026349Y020824D01*
X026599Y021074D01*
X026349Y021324D01*
X026349Y021824D01*
X026599Y022074D01*
X026349Y022324D01*
X026349Y022824D01*
X026599Y023074D01*
X027099Y023074D01*
X027349Y022824D01*
X027349Y022324D01*
X027099Y022074D01*
X027349Y021824D01*
X027349Y021324D01*
X027099Y021074D01*
X027349Y020824D01*
X027349Y020324D01*
X027099Y020074D01*
X027349Y019824D01*
X027349Y019324D01*
X027099Y019074D01*
X027349Y018824D01*
X027349Y018324D01*
X027099Y018074D01*
X026599Y018074D01*
X027641Y022140D02*
X027391Y022390D01*
X027391Y022890D01*
X027641Y023140D01*
X028141Y023140D01*
X028391Y022890D01*
X028641Y023140D01*
X029141Y023140D01*
X029391Y022890D01*
X029391Y022390D01*
X029141Y022140D01*
X028641Y022140D01*
X028391Y022390D01*
X028141Y022140D01*
X027641Y022140D01*
X027741Y025390D02*
X027241Y025390D01*
X026991Y025640D01*
X026741Y025390D01*
X026241Y025390D01*
X025991Y025640D01*
X025741Y025390D01*
X025241Y025390D01*
X024991Y025640D01*
X024991Y026140D01*
X025241Y026390D01*
X025741Y026390D01*
X025991Y026140D01*
X026241Y026390D01*
X026741Y026390D01*
X026991Y026140D01*
X027241Y026390D01*
X027741Y026390D01*
X027991Y026140D01*
X027991Y025640D01*
X027741Y025390D01*
X028491Y025640D02*
X028491Y026140D01*
X028741Y026390D01*
X029241Y026390D01*
X029491Y026140D01*
X029741Y026390D01*
X030241Y026390D01*
X030491Y026140D01*
X030741Y026390D01*
X031241Y026390D01*
X031491Y026140D01*
X031491Y025640D01*
X031241Y025390D01*
X030741Y025390D01*
X030491Y025640D01*
X030241Y025390D01*
X029741Y025390D01*
X029491Y025640D01*
X029241Y025390D01*
X028741Y025390D01*
X028491Y025640D01*
X031991Y025640D02*
X031991Y026140D01*
X032241Y026390D01*
X032741Y026390D01*
X032991Y026140D01*
X033241Y026390D01*
X033741Y026390D01*
X033991Y026140D01*
X034241Y026390D01*
X034741Y026390D01*
X034991Y026140D01*
X034991Y025640D01*
X034741Y025390D01*
X034241Y025390D01*
X033991Y025640D01*
X033741Y025390D01*
X033241Y025390D01*
X032991Y025640D01*
X032741Y025390D01*
X032241Y025390D01*
X031991Y025640D01*
X035491Y025640D02*
X035741Y025390D01*
X036241Y025390D01*
X036491Y025640D01*
X036741Y025390D01*
X037241Y025390D01*
X037491Y025640D01*
X037741Y025390D01*
X038241Y025390D01*
X038491Y025640D01*
X038491Y026140D01*
X038241Y026390D01*
X037741Y026390D01*
X037491Y026140D01*
X037241Y026390D01*
X036741Y026390D01*
X036491Y026140D01*
X036241Y026390D01*
X035741Y026390D01*
X035491Y026140D01*
X035491Y025640D01*
X038991Y025640D02*
X039241Y025390D01*
X039741Y025390D01*
X039991Y025640D01*
X040241Y025390D01*
X040741Y025390D01*
X040991Y025640D01*
X041241Y025390D01*
X041741Y025390D01*
X041991Y025640D01*
X041991Y026140D01*
X041741Y026390D01*
X041241Y026390D01*
X040991Y026140D01*
X040741Y026390D01*
X040241Y026390D01*
X039991Y026140D01*
X039741Y026390D01*
X039241Y026390D01*
X038991Y026140D01*
X038991Y025640D01*
X042491Y025640D02*
X042741Y025390D01*
X043241Y025390D01*
X043491Y025640D01*
X043741Y025390D01*
X044241Y025390D01*
X044491Y025640D01*
X044741Y025390D01*
X045241Y025390D01*
X045491Y025640D01*
X045491Y026140D01*
X045241Y026390D01*
X044741Y026390D01*
X044491Y026140D01*
X044241Y026390D01*
X043741Y026390D01*
X043491Y026140D01*
X043241Y026390D01*
X042741Y026390D01*
X042491Y026140D01*
X042491Y025640D01*
X043290Y024194D02*
X043790Y024194D01*
X044040Y023944D01*
X044040Y023444D01*
X043790Y023194D01*
X043290Y023194D01*
X043040Y022944D01*
X043040Y022444D01*
X043290Y022194D01*
X043790Y022194D01*
X044040Y022444D01*
X044040Y022944D01*
X043790Y023194D01*
X043290Y023194D02*
X043040Y023444D01*
X043040Y023944D01*
X043290Y024194D01*
X045991Y025640D02*
X045991Y026140D01*
X046241Y026390D01*
X046741Y026390D01*
X046991Y026140D01*
X047241Y026390D01*
X047741Y026390D01*
X047991Y026140D01*
X048241Y026390D01*
X048741Y026390D01*
X048991Y026140D01*
X048991Y025640D01*
X048741Y025390D01*
X048241Y025390D01*
X047991Y025640D01*
X047741Y025390D01*
X047241Y025390D01*
X046991Y025640D01*
X046741Y025390D01*
X046241Y025390D01*
X045991Y025640D01*
X049491Y025640D02*
X049741Y025390D01*
X050241Y025390D01*
X050491Y025640D01*
X050741Y025390D01*
X051241Y025390D01*
X051491Y025640D01*
X051741Y025390D01*
X052241Y025390D01*
X052491Y025640D01*
X052491Y026140D01*
X052241Y026390D01*
X051741Y026390D01*
X051491Y026140D01*
X051241Y026390D01*
X050741Y026390D01*
X050491Y026140D01*
X050241Y026390D01*
X049741Y026390D01*
X049491Y026140D01*
X049491Y025640D01*
X052991Y025640D02*
X053241Y025390D01*
X053741Y025390D01*
X053991Y025640D01*
X054241Y025390D01*
X054741Y025390D01*
X054991Y025640D01*
X055241Y025390D01*
X055741Y025390D01*
X055991Y025640D01*
X055991Y026140D01*
X055741Y026390D01*
X055241Y026390D01*
X054991Y026140D01*
X054741Y026390D01*
X054241Y026390D01*
X053991Y026140D01*
X053741Y026390D01*
X053241Y026390D01*
X052991Y026140D01*
X052991Y025640D01*
X056434Y025679D02*
X056684Y025429D01*
X056434Y025179D01*
X056434Y024679D01*
X056684Y024429D01*
X056434Y024179D01*
X056434Y023679D01*
X056684Y023429D01*
X057184Y023429D01*
X057434Y023679D01*
X057434Y024179D01*
X057184Y024429D01*
X057434Y024679D01*
X057434Y025179D01*
X057184Y025429D01*
X057434Y025679D01*
X057434Y026179D01*
X057184Y026429D01*
X056684Y026429D01*
X056434Y026179D01*
X056434Y025679D01*
X044040Y021944D02*
X044040Y021444D01*
X043790Y021194D01*
X043290Y021194D01*
X043040Y020944D01*
X043040Y020444D01*
X043290Y020194D01*
X043790Y020194D01*
X044040Y020444D01*
X044040Y020944D01*
X043790Y021194D01*
X043290Y021194D02*
X043040Y021444D01*
X043040Y021944D01*
X043290Y022194D01*
X043790Y022194D02*
X044040Y021944D01*
X043790Y020194D02*
X044040Y019944D01*
X044040Y019444D01*
X043790Y019194D01*
X043290Y019194D01*
X043040Y018944D01*
X043040Y018444D01*
X043290Y018194D01*
X043790Y018194D01*
X044040Y018444D01*
X044040Y018944D01*
X043790Y019194D01*
X043290Y019194D02*
X043040Y019444D01*
X043040Y019944D01*
X043290Y020194D01*
X024491Y025640D02*
X024241Y025390D01*
X023741Y025390D01*
X023491Y025640D01*
X023241Y025390D01*
X022741Y025390D01*
X022491Y025640D01*
X022241Y025390D01*
X021741Y025390D01*
X021491Y025640D01*
X021491Y026140D01*
X021741Y026390D01*
X022241Y026390D01*
X022491Y026140D01*
X022741Y026390D01*
X023241Y026390D01*
X023491Y026140D01*
X023741Y026390D01*
X024241Y026390D01*
X024491Y026140D01*
X024491Y025640D01*
X020991Y025640D02*
X020741Y025390D01*
X020241Y025390D01*
X019991Y025640D01*
X019741Y025390D01*
X019241Y025390D01*
X018991Y025640D01*
X018741Y025390D01*
X018241Y025390D01*
X017991Y025640D01*
X017991Y026140D01*
X018241Y026390D01*
X018741Y026390D01*
X018991Y026140D01*
X019241Y026390D01*
X019741Y026390D01*
X019991Y026140D01*
X020241Y026390D01*
X020741Y026390D01*
X020991Y026140D01*
X020991Y025640D01*
X017491Y025640D02*
X017241Y025390D01*
X016741Y025390D01*
X016491Y025640D01*
X016241Y025390D01*
X015741Y025390D01*
X015491Y025640D01*
X015241Y025390D01*
X014741Y025390D01*
X014491Y025640D01*
X014491Y026140D01*
X014741Y026390D01*
X015241Y026390D01*
X015491Y026140D01*
X015741Y026390D01*
X016241Y026390D01*
X016491Y026140D01*
X016741Y026390D01*
X017241Y026390D01*
X017491Y026140D01*
X017491Y025640D01*
X014105Y025661D02*
X014105Y026161D01*
X013855Y026411D01*
X013355Y026411D01*
X013105Y026161D01*
X013105Y025661D01*
X013355Y025411D01*
X013105Y025161D01*
X013105Y024661D01*
X013355Y024411D01*
X013105Y024161D01*
X013105Y023661D01*
X013355Y023411D01*
X013855Y023411D01*
X014105Y023661D01*
X014105Y024161D01*
X013855Y024411D01*
X014105Y024661D01*
X014105Y025161D01*
X013855Y025411D01*
X014105Y025661D01*
M02*
