G75*
G70*
%OFA0B0*%
%FSLAX24Y24*%
%IPPOS*%
%LPD*%
%AMOC8*
5,1,8,0,0,1.08239X$1,22.5*
%
%ADD10R,0.0552X0.0395*%
%ADD11R,0.0395X0.0552*%
%ADD12R,0.0477X0.0477*%
%ADD13R,0.0356X0.0434*%
%ADD14C,0.0980*%
%ADD15C,0.0780*%
%ADD16R,0.0159X0.0671*%
%ADD17C,0.0820*%
%ADD18R,0.0674X0.0674*%
%ADD19R,0.0789X0.0789*%
%ADD20R,0.0820X0.0820*%
%ADD21C,0.1380*%
%ADD22C,0.0476*%
%ADD23OC8,0.0476*%
D10*
X016091Y008736D03*
X016091Y009444D03*
X020165Y009461D03*
X021070Y009457D03*
X021936Y009453D03*
X021936Y008744D03*
X021070Y008748D03*
X020165Y008752D03*
X041609Y020139D03*
X042417Y020142D03*
X042417Y020851D03*
X041609Y020848D03*
D11*
X014336Y008240D03*
X015045Y008240D03*
X024291Y014411D03*
X025000Y014411D03*
G36*
X028921Y017308D02*
X029200Y017587D01*
X029589Y017198D01*
X029310Y016919D01*
X028921Y017308D01*
G37*
G36*
X029422Y017809D02*
X029701Y018088D01*
X030090Y017699D01*
X029811Y017420D01*
X029422Y017809D01*
G37*
G36*
X031620Y017701D02*
X031341Y017980D01*
X031730Y018369D01*
X032009Y018090D01*
X031620Y017701D01*
G37*
G36*
X032121Y017200D02*
X031842Y017479D01*
X032231Y017868D01*
X032510Y017589D01*
X032121Y017200D01*
G37*
X031681Y014368D03*
X030972Y014368D03*
X031251Y011600D03*
X031960Y011600D03*
X030557Y008688D03*
X029849Y008688D03*
X033743Y008699D03*
X034451Y008699D03*
X035283Y008658D03*
X035991Y008658D03*
G36*
X038195Y017414D02*
X038474Y017135D01*
X038085Y016746D01*
X037806Y017025D01*
X038195Y017414D01*
G37*
G36*
X038572Y017228D02*
X038293Y017507D01*
X038682Y017896D01*
X038961Y017617D01*
X038572Y017228D01*
G37*
G36*
X037694Y017915D02*
X037973Y017636D01*
X037584Y017247D01*
X037305Y017526D01*
X037694Y017915D01*
G37*
G36*
X038071Y017730D02*
X037792Y018009D01*
X038181Y018398D01*
X038460Y018119D01*
X038071Y017730D01*
G37*
X041922Y019075D03*
X042631Y019075D03*
X040935Y022669D03*
X040227Y022669D03*
X039745Y023390D03*
X039036Y023390D03*
X031745Y022990D03*
X031036Y022990D03*
G36*
X031164Y023618D02*
X030772Y023653D01*
X030820Y024202D01*
X031212Y024167D01*
X031164Y023618D01*
G37*
G36*
X031870Y023557D02*
X031478Y023592D01*
X031526Y024141D01*
X031918Y024106D01*
X031870Y023557D01*
G37*
D12*
G36*
X030764Y017819D02*
X030428Y018155D01*
X030764Y018491D01*
X031100Y018155D01*
X030764Y017819D01*
G37*
G36*
X032123Y016461D02*
X031787Y016797D01*
X032123Y017133D01*
X032459Y016797D01*
X032123Y016461D01*
G37*
D13*
G36*
X030994Y016681D02*
X031246Y016933D01*
X031552Y016627D01*
X031300Y016375D01*
X030994Y016681D01*
G37*
G36*
X030633Y016319D02*
X030885Y016571D01*
X031191Y016265D01*
X030939Y016013D01*
X030633Y016319D01*
G37*
G36*
X029941Y017011D02*
X030193Y017263D01*
X030499Y016957D01*
X030247Y016705D01*
X029941Y017011D01*
G37*
G36*
X030303Y017372D02*
X030555Y017624D01*
X030861Y017318D01*
X030609Y017066D01*
X030303Y017372D01*
G37*
D14*
X024152Y017127D03*
X018152Y017127D03*
X013691Y015815D03*
X007691Y015815D03*
X007691Y010565D03*
X013691Y010565D03*
X018152Y022377D03*
X024152Y022377D03*
X046239Y022274D03*
X052239Y022274D03*
X052239Y017024D03*
X056545Y015815D03*
X062545Y015815D03*
X062545Y010565D03*
X056545Y010565D03*
X046239Y017024D03*
D15*
X047989Y016649D03*
X050489Y016649D03*
X050489Y014649D03*
X047989Y014649D03*
X053239Y018649D03*
X053239Y019649D03*
X053239Y020649D03*
X058295Y018190D03*
X060795Y018190D03*
X060795Y016190D03*
X058295Y016190D03*
X055545Y014190D03*
X055545Y013190D03*
X055545Y012190D03*
X058545Y009190D03*
X059545Y009190D03*
X060545Y009190D03*
X050239Y023649D03*
X049239Y023649D03*
X048239Y023649D03*
X025152Y020752D03*
X025152Y019752D03*
X025152Y018752D03*
X022402Y016752D03*
X019902Y016752D03*
X019902Y014752D03*
X022402Y014752D03*
X011941Y016190D03*
X009441Y016190D03*
X009441Y018190D03*
X011941Y018190D03*
X006691Y014190D03*
X006691Y013190D03*
X006691Y012190D03*
X009691Y009190D03*
X010691Y009190D03*
X011691Y009190D03*
X020152Y023752D03*
X021152Y023752D03*
X022152Y023752D03*
D16*
G36*
X031697Y021700D02*
X031808Y021811D01*
X032281Y021338D01*
X032170Y021227D01*
X031697Y021700D01*
G37*
G36*
X031808Y021811D02*
X031919Y021922D01*
X032392Y021449D01*
X032281Y021338D01*
X031808Y021811D01*
G37*
G36*
X031920Y021923D02*
X032031Y022034D01*
X032504Y021561D01*
X032393Y021450D01*
X031920Y021923D01*
G37*
G36*
X032031Y022034D02*
X032142Y022145D01*
X032615Y021672D01*
X032504Y021561D01*
X032031Y022034D01*
G37*
G36*
X032142Y022145D02*
X032253Y022256D01*
X032726Y021783D01*
X032615Y021672D01*
X032142Y022145D01*
G37*
G36*
X032254Y022257D02*
X032365Y022368D01*
X032838Y021895D01*
X032727Y021784D01*
X032254Y022257D01*
G37*
G36*
X032365Y022368D02*
X032476Y022479D01*
X032949Y022006D01*
X032838Y021895D01*
X032365Y022368D01*
G37*
G36*
X032477Y022480D02*
X032588Y022591D01*
X033061Y022118D01*
X032950Y022007D01*
X032477Y022480D01*
G37*
G36*
X032588Y022591D02*
X032699Y022702D01*
X033172Y022229D01*
X033061Y022118D01*
X032588Y022591D01*
G37*
G36*
X032699Y022702D02*
X032810Y022813D01*
X033283Y022340D01*
X033172Y022229D01*
X032699Y022702D01*
G37*
G36*
X032811Y022814D02*
X032922Y022925D01*
X033395Y022452D01*
X033284Y022341D01*
X032811Y022814D01*
G37*
G36*
X032922Y022925D02*
X033033Y023036D01*
X033506Y022563D01*
X033395Y022452D01*
X032922Y022925D01*
G37*
G36*
X033033Y023036D02*
X033144Y023147D01*
X033617Y022674D01*
X033506Y022563D01*
X033033Y023036D01*
G37*
G36*
X033145Y023148D02*
X033256Y023259D01*
X033729Y022786D01*
X033618Y022675D01*
X033145Y023148D01*
G37*
G36*
X033256Y023259D02*
X033367Y023370D01*
X033840Y022897D01*
X033729Y022786D01*
X033256Y023259D01*
G37*
G36*
X033367Y023370D02*
X033478Y023481D01*
X033951Y023008D01*
X033840Y022897D01*
X033367Y023370D01*
G37*
G36*
X033479Y023482D02*
X033590Y023593D01*
X034063Y023120D01*
X033952Y023009D01*
X033479Y023482D01*
G37*
G36*
X033590Y023593D02*
X033701Y023704D01*
X034174Y023231D01*
X034063Y023120D01*
X033590Y023593D01*
G37*
G36*
X033701Y023704D02*
X033812Y023815D01*
X034285Y023342D01*
X034174Y023231D01*
X033701Y023704D01*
G37*
G36*
X033813Y023816D02*
X033924Y023927D01*
X034397Y023454D01*
X034286Y023343D01*
X033813Y023816D01*
G37*
G36*
X033924Y023927D02*
X034035Y024038D01*
X034508Y023565D01*
X034397Y023454D01*
X033924Y023927D01*
G37*
G36*
X034036Y024038D02*
X034147Y024149D01*
X034620Y023676D01*
X034509Y023565D01*
X034036Y024038D01*
G37*
G36*
X034147Y024150D02*
X034258Y024261D01*
X034731Y023788D01*
X034620Y023677D01*
X034147Y024150D01*
G37*
G36*
X034258Y024261D02*
X034369Y024372D01*
X034842Y023899D01*
X034731Y023788D01*
X034258Y024261D01*
G37*
G36*
X034370Y024373D02*
X034481Y024484D01*
X034954Y024011D01*
X034843Y023900D01*
X034370Y024373D01*
G37*
G36*
X035538Y023900D02*
X035427Y024011D01*
X035900Y024484D01*
X036011Y024373D01*
X035538Y023900D01*
G37*
G36*
X035650Y023788D02*
X035539Y023899D01*
X036012Y024372D01*
X036123Y024261D01*
X035650Y023788D01*
G37*
G36*
X035761Y023677D02*
X035650Y023788D01*
X036123Y024261D01*
X036234Y024150D01*
X035761Y023677D01*
G37*
G36*
X035873Y023565D02*
X035762Y023676D01*
X036235Y024149D01*
X036346Y024038D01*
X035873Y023565D01*
G37*
G36*
X035984Y023454D02*
X035873Y023565D01*
X036346Y024038D01*
X036457Y023927D01*
X035984Y023454D01*
G37*
G36*
X036095Y023343D02*
X035984Y023454D01*
X036457Y023927D01*
X036568Y023816D01*
X036095Y023343D01*
G37*
G36*
X036207Y023231D02*
X036096Y023342D01*
X036569Y023815D01*
X036680Y023704D01*
X036207Y023231D01*
G37*
G36*
X036318Y023120D02*
X036207Y023231D01*
X036680Y023704D01*
X036791Y023593D01*
X036318Y023120D01*
G37*
G36*
X036429Y023009D02*
X036318Y023120D01*
X036791Y023593D01*
X036902Y023482D01*
X036429Y023009D01*
G37*
G36*
X036541Y022897D02*
X036430Y023008D01*
X036903Y023481D01*
X037014Y023370D01*
X036541Y022897D01*
G37*
G36*
X036652Y022786D02*
X036541Y022897D01*
X037014Y023370D01*
X037125Y023259D01*
X036652Y022786D01*
G37*
G36*
X036763Y022675D02*
X036652Y022786D01*
X037125Y023259D01*
X037236Y023148D01*
X036763Y022675D01*
G37*
G36*
X036875Y022563D02*
X036764Y022674D01*
X037237Y023147D01*
X037348Y023036D01*
X036875Y022563D01*
G37*
G36*
X036986Y022452D02*
X036875Y022563D01*
X037348Y023036D01*
X037459Y022925D01*
X036986Y022452D01*
G37*
G36*
X037097Y022341D02*
X036986Y022452D01*
X037459Y022925D01*
X037570Y022814D01*
X037097Y022341D01*
G37*
G36*
X037209Y022229D02*
X037098Y022340D01*
X037571Y022813D01*
X037682Y022702D01*
X037209Y022229D01*
G37*
G36*
X037320Y022118D02*
X037209Y022229D01*
X037682Y022702D01*
X037793Y022591D01*
X037320Y022118D01*
G37*
G36*
X037432Y022007D02*
X037321Y022118D01*
X037794Y022591D01*
X037905Y022480D01*
X037432Y022007D01*
G37*
G36*
X037543Y021895D02*
X037432Y022006D01*
X037905Y022479D01*
X038016Y022368D01*
X037543Y021895D01*
G37*
G36*
X037654Y021784D02*
X037543Y021895D01*
X038016Y022368D01*
X038127Y022257D01*
X037654Y021784D01*
G37*
G36*
X037766Y021672D02*
X037655Y021783D01*
X038128Y022256D01*
X038239Y022145D01*
X037766Y021672D01*
G37*
G36*
X037877Y021561D02*
X037766Y021672D01*
X038239Y022145D01*
X038350Y022034D01*
X037877Y021561D01*
G37*
G36*
X037988Y021450D02*
X037877Y021561D01*
X038350Y022034D01*
X038461Y021923D01*
X037988Y021450D01*
G37*
G36*
X038100Y021338D02*
X037989Y021449D01*
X038462Y021922D01*
X038573Y021811D01*
X038100Y021338D01*
G37*
G36*
X038211Y021227D02*
X038100Y021338D01*
X038573Y021811D01*
X038684Y021700D01*
X038211Y021227D01*
G37*
G36*
X038100Y020642D02*
X038211Y020753D01*
X038684Y020280D01*
X038573Y020169D01*
X038100Y020642D01*
G37*
G36*
X037989Y020531D02*
X038100Y020642D01*
X038573Y020169D01*
X038462Y020058D01*
X037989Y020531D01*
G37*
G36*
X037877Y020419D02*
X037988Y020530D01*
X038461Y020057D01*
X038350Y019946D01*
X037877Y020419D01*
G37*
G36*
X037766Y020308D02*
X037877Y020419D01*
X038350Y019946D01*
X038239Y019835D01*
X037766Y020308D01*
G37*
G36*
X037655Y020197D02*
X037766Y020308D01*
X038239Y019835D01*
X038128Y019724D01*
X037655Y020197D01*
G37*
G36*
X037543Y020085D02*
X037654Y020196D01*
X038127Y019723D01*
X038016Y019612D01*
X037543Y020085D01*
G37*
G36*
X037432Y019974D02*
X037543Y020085D01*
X038016Y019612D01*
X037905Y019501D01*
X037432Y019974D01*
G37*
G36*
X037321Y019863D02*
X037432Y019974D01*
X037905Y019501D01*
X037794Y019390D01*
X037321Y019863D01*
G37*
G36*
X037209Y019751D02*
X037320Y019862D01*
X037793Y019389D01*
X037682Y019278D01*
X037209Y019751D01*
G37*
G36*
X037098Y019640D02*
X037209Y019751D01*
X037682Y019278D01*
X037571Y019167D01*
X037098Y019640D01*
G37*
G36*
X036986Y019529D02*
X037097Y019640D01*
X037570Y019167D01*
X037459Y019056D01*
X036986Y019529D01*
G37*
G36*
X036875Y019417D02*
X036986Y019528D01*
X037459Y019055D01*
X037348Y018944D01*
X036875Y019417D01*
G37*
G36*
X036764Y019306D02*
X036875Y019417D01*
X037348Y018944D01*
X037237Y018833D01*
X036764Y019306D01*
G37*
G36*
X036652Y019195D02*
X036763Y019306D01*
X037236Y018833D01*
X037125Y018722D01*
X036652Y019195D01*
G37*
G36*
X036541Y019083D02*
X036652Y019194D01*
X037125Y018721D01*
X037014Y018610D01*
X036541Y019083D01*
G37*
G36*
X036430Y018972D02*
X036541Y019083D01*
X037014Y018610D01*
X036903Y018499D01*
X036430Y018972D01*
G37*
G36*
X036318Y018860D02*
X036429Y018971D01*
X036902Y018498D01*
X036791Y018387D01*
X036318Y018860D01*
G37*
G36*
X036207Y018749D02*
X036318Y018860D01*
X036791Y018387D01*
X036680Y018276D01*
X036207Y018749D01*
G37*
G36*
X036096Y018638D02*
X036207Y018749D01*
X036680Y018276D01*
X036569Y018165D01*
X036096Y018638D01*
G37*
G36*
X035984Y018526D02*
X036095Y018637D01*
X036568Y018164D01*
X036457Y018053D01*
X035984Y018526D01*
G37*
G36*
X035873Y018415D02*
X035984Y018526D01*
X036457Y018053D01*
X036346Y017942D01*
X035873Y018415D01*
G37*
G36*
X035762Y018304D02*
X035873Y018415D01*
X036346Y017942D01*
X036235Y017831D01*
X035762Y018304D01*
G37*
G36*
X035650Y018192D02*
X035761Y018303D01*
X036234Y017830D01*
X036123Y017719D01*
X035650Y018192D01*
G37*
G36*
X035539Y018081D02*
X035650Y018192D01*
X036123Y017719D01*
X036012Y017608D01*
X035539Y018081D01*
G37*
G36*
X035427Y017970D02*
X035538Y018081D01*
X036011Y017608D01*
X035900Y017497D01*
X035427Y017970D01*
G37*
G36*
X034481Y017497D02*
X034370Y017608D01*
X034843Y018081D01*
X034954Y017970D01*
X034481Y017497D01*
G37*
G36*
X034369Y017608D02*
X034258Y017719D01*
X034731Y018192D01*
X034842Y018081D01*
X034369Y017608D01*
G37*
G36*
X034258Y017719D02*
X034147Y017830D01*
X034620Y018303D01*
X034731Y018192D01*
X034258Y017719D01*
G37*
G36*
X034147Y017831D02*
X034036Y017942D01*
X034509Y018415D01*
X034620Y018304D01*
X034147Y017831D01*
G37*
G36*
X034035Y017942D02*
X033924Y018053D01*
X034397Y018526D01*
X034508Y018415D01*
X034035Y017942D01*
G37*
G36*
X033924Y018053D02*
X033813Y018164D01*
X034286Y018637D01*
X034397Y018526D01*
X033924Y018053D01*
G37*
G36*
X033812Y018165D02*
X033701Y018276D01*
X034174Y018749D01*
X034285Y018638D01*
X033812Y018165D01*
G37*
G36*
X033701Y018276D02*
X033590Y018387D01*
X034063Y018860D01*
X034174Y018749D01*
X033701Y018276D01*
G37*
G36*
X033590Y018387D02*
X033479Y018498D01*
X033952Y018971D01*
X034063Y018860D01*
X033590Y018387D01*
G37*
G36*
X033478Y018499D02*
X033367Y018610D01*
X033840Y019083D01*
X033951Y018972D01*
X033478Y018499D01*
G37*
G36*
X033367Y018610D02*
X033256Y018721D01*
X033729Y019194D01*
X033840Y019083D01*
X033367Y018610D01*
G37*
G36*
X033256Y018722D02*
X033145Y018833D01*
X033618Y019306D01*
X033729Y019195D01*
X033256Y018722D01*
G37*
G36*
X033144Y018833D02*
X033033Y018944D01*
X033506Y019417D01*
X033617Y019306D01*
X033144Y018833D01*
G37*
G36*
X033033Y018944D02*
X032922Y019055D01*
X033395Y019528D01*
X033506Y019417D01*
X033033Y018944D01*
G37*
G36*
X032922Y019056D02*
X032811Y019167D01*
X033284Y019640D01*
X033395Y019529D01*
X032922Y019056D01*
G37*
G36*
X032810Y019167D02*
X032699Y019278D01*
X033172Y019751D01*
X033283Y019640D01*
X032810Y019167D01*
G37*
G36*
X032699Y019278D02*
X032588Y019389D01*
X033061Y019862D01*
X033172Y019751D01*
X032699Y019278D01*
G37*
G36*
X032588Y019390D02*
X032477Y019501D01*
X032950Y019974D01*
X033061Y019863D01*
X032588Y019390D01*
G37*
G36*
X032476Y019501D02*
X032365Y019612D01*
X032838Y020085D01*
X032949Y019974D01*
X032476Y019501D01*
G37*
G36*
X032365Y019612D02*
X032254Y019723D01*
X032727Y020196D01*
X032838Y020085D01*
X032365Y019612D01*
G37*
G36*
X032253Y019724D02*
X032142Y019835D01*
X032615Y020308D01*
X032726Y020197D01*
X032253Y019724D01*
G37*
G36*
X032142Y019835D02*
X032031Y019946D01*
X032504Y020419D01*
X032615Y020308D01*
X032142Y019835D01*
G37*
G36*
X032031Y019946D02*
X031920Y020057D01*
X032393Y020530D01*
X032504Y020419D01*
X032031Y019946D01*
G37*
G36*
X031919Y020058D02*
X031808Y020169D01*
X032281Y020642D01*
X032392Y020531D01*
X031919Y020058D01*
G37*
G36*
X031808Y020169D02*
X031697Y020280D01*
X032170Y020753D01*
X032281Y020642D01*
X031808Y020169D01*
G37*
D17*
X028961Y022640D03*
X027821Y022640D03*
X026899Y022574D03*
X026799Y021574D03*
X026899Y020574D03*
X026799Y019574D03*
X026899Y018574D03*
X027039Y013490D03*
X028039Y013390D03*
X029039Y013490D03*
X030039Y013390D03*
X031039Y013490D03*
X032039Y013390D03*
X033039Y013490D03*
X034039Y013390D03*
X035039Y013490D03*
X036039Y013390D03*
X037039Y013490D03*
X038039Y013390D03*
X039039Y013490D03*
X040039Y013390D03*
X041039Y013490D03*
X042039Y013390D03*
X042039Y012390D03*
X041039Y012490D03*
X040039Y012390D03*
X039039Y012490D03*
X038039Y012390D03*
X037039Y012490D03*
X036039Y012390D03*
X035039Y012490D03*
X034039Y012390D03*
X032039Y012390D03*
X031039Y012490D03*
X030039Y012390D03*
X029039Y012490D03*
X028039Y012390D03*
X027039Y012490D03*
X026039Y012390D03*
X025039Y012490D03*
X024039Y012390D03*
X024039Y013390D03*
X025039Y013490D03*
X026039Y013390D03*
X026377Y010480D03*
X027377Y010380D03*
X028377Y010480D03*
X029377Y010380D03*
X030377Y010480D03*
X031377Y010380D03*
X032377Y010480D03*
X033377Y010380D03*
X034377Y010480D03*
X034377Y009480D03*
X035377Y009380D03*
X036377Y009480D03*
X037377Y009380D03*
X038377Y009480D03*
X039377Y009380D03*
X040377Y009480D03*
X041377Y009380D03*
X042377Y009480D03*
X043377Y009380D03*
X044377Y009480D03*
X044377Y010480D03*
X043377Y010380D03*
X042377Y010480D03*
X041377Y010380D03*
X040377Y010480D03*
X039377Y010380D03*
X038377Y010480D03*
X037377Y010380D03*
X036377Y010480D03*
X033377Y009380D03*
X032377Y009480D03*
X031377Y009380D03*
X030377Y009480D03*
X029377Y009380D03*
X028377Y009480D03*
X027377Y009380D03*
X026377Y009480D03*
X043590Y018694D03*
X043490Y019694D03*
X043590Y020694D03*
X043490Y021694D03*
X043590Y022694D03*
X043490Y023694D03*
X043991Y025840D03*
X042991Y025940D03*
X041491Y025940D03*
X040491Y025840D03*
X039491Y025940D03*
X037991Y025940D03*
X036991Y025840D03*
X035991Y025940D03*
X034491Y025940D03*
X033491Y025840D03*
X032491Y025940D03*
X030991Y025940D03*
X029991Y025840D03*
X028991Y025940D03*
X027491Y025940D03*
X026491Y025840D03*
X025491Y025940D03*
X023991Y025940D03*
X022991Y025840D03*
X021991Y025940D03*
X020491Y025940D03*
X019491Y025840D03*
X018491Y025940D03*
X016991Y025940D03*
X015991Y025840D03*
X014991Y025940D03*
X013555Y025911D03*
X013655Y024911D03*
X013555Y023911D03*
X044991Y025940D03*
X046491Y025940D03*
X047491Y025840D03*
X048491Y025940D03*
X049991Y025940D03*
X050991Y025840D03*
X051991Y025940D03*
X053491Y025940D03*
X054491Y025840D03*
X055491Y025940D03*
X056984Y025929D03*
X056884Y024929D03*
X056984Y023929D03*
D18*
X048403Y011686D03*
X047285Y011686D03*
D19*
X047754Y009826D03*
X048738Y008841D03*
X046769Y008841D03*
X051512Y008841D03*
X053480Y008841D03*
X052496Y009826D03*
D20*
X043039Y012490D03*
X043039Y013490D03*
X025377Y010380D03*
X025377Y009380D03*
D21*
X017986Y011863D03*
X014203Y020673D03*
X052356Y012454D03*
X056213Y020670D03*
D22*
X033320Y024588D03*
D23*
X032721Y023120D03*
X032201Y023210D03*
X034009Y022691D03*
X034754Y022328D03*
X035041Y022740D03*
X035586Y022564D03*
X036343Y022656D03*
X037080Y021785D03*
X036691Y021390D03*
X036240Y021672D03*
X037842Y021038D03*
X037009Y020025D03*
X036478Y019785D03*
X035545Y020092D03*
X036053Y020521D03*
X034557Y019855D03*
X034306Y019347D03*
X033852Y019934D03*
X033336Y020249D03*
X034341Y021070D03*
X034521Y021630D03*
X033841Y021650D03*
X033117Y021647D03*
X030551Y022952D03*
X029981Y023130D03*
X030427Y023826D03*
X028478Y023293D03*
X028391Y021810D03*
X028881Y021550D03*
X028997Y019045D03*
X028211Y016919D03*
X028586Y016540D03*
X028980Y016175D03*
X028217Y016084D03*
X027664Y015882D03*
X027050Y015610D03*
X026580Y015285D03*
X027347Y015145D03*
X025826Y014977D03*
X025170Y014944D03*
X025884Y016433D03*
X026533Y016442D03*
X027102Y016433D03*
X027671Y016412D03*
X030336Y016369D03*
X032491Y014290D03*
X033961Y014530D03*
X036741Y015980D03*
X036121Y016430D03*
X036141Y017020D03*
X035591Y016970D03*
X035136Y018142D03*
X035620Y019206D03*
X037551Y018410D03*
X038648Y016789D03*
X038391Y015690D03*
X037491Y015690D03*
X039291Y015790D03*
X040191Y015860D03*
X041091Y015890D03*
X042201Y016920D03*
X044191Y017490D03*
X045991Y017890D03*
X044797Y019186D03*
X041939Y019611D03*
X040131Y020580D03*
X040081Y021180D03*
X042789Y022572D03*
X040330Y023340D03*
X039697Y022790D03*
X035860Y024777D03*
X034542Y023203D03*
X045427Y020918D03*
X046291Y020690D03*
X050491Y017890D03*
X054591Y016890D03*
X060091Y015490D03*
X060391Y013290D03*
X048741Y015580D03*
X041791Y011410D03*
X040721Y011400D03*
X039551Y011480D03*
X038591Y011490D03*
X037611Y011460D03*
X036791Y011490D03*
X035921Y011430D03*
X035091Y011410D03*
X032941Y011860D03*
X028852Y008832D03*
X027907Y008832D03*
X024291Y009490D03*
X023498Y009501D03*
X022734Y009458D03*
X022423Y010265D03*
X023143Y010328D03*
X020820Y010603D03*
X023191Y012290D03*
X023191Y012990D03*
X019791Y013590D03*
X017691Y015090D03*
X015891Y012890D03*
X016091Y009890D03*
X032891Y008790D03*
X021291Y022190D03*
X021769Y022566D03*
X023035Y023201D03*
M02*
