%
M48
M72
T01C0.0197
T02C0.0236
T03C0.0350
T04C0.0354
T05C0.0394
T06C0.0400
T07C0.0472
T08C0.0550
T09C0.1300
%
T01
X32123Y16797
X30764Y18155
T02
X28997Y19045
X33336Y20249
X33852Y19934
X34557Y19855
X34306Y19347
X35620Y19206
X36478Y19785
X37009Y20025
X36053Y20521
X35545Y20092
X34341Y21070
X34521Y21630
X33841Y21650
X33117Y21647
X34754Y22328
X34009Y22691
X34542Y23203
X35041Y22740
X35586Y22564
X36343Y22656
X37080Y21785
X36691Y21390
X36240Y21672
X37842Y21038
X40081Y21180
X40131Y20580
X41939Y19611
X44797Y19186
X45991Y17890
X44191Y17490
X42201Y16920
X41091Y15890
X40191Y15860
X39291Y15790
X38391Y15690
X37491Y15690
X36741Y15980
X36121Y16430
X36141Y17020
X35591Y16970
X35136Y18142
X37551Y18410
X38648Y16789
X33961Y14530
X32491Y14290
X28980Y16175
X28586Y16540
X28211Y16919
X27671Y16412
X27102Y16433
X26533Y16442
X25884Y16433
X27050Y15610
X26580Y15285
X27347Y15145
X27664Y15882
X28217Y16084
X30336Y16369
X25826Y14977
X25170Y14944
X23191Y12990
X23191Y12290
X20820Y10603
X22423Y10265
X23143Y10328
X23498Y9501
X24291Y9490
X22734Y9458
X27907Y8832
X28852Y8832
X32891Y8790
X35091Y11410
X35921Y11430
X36791Y11490
X37611Y11460
X38591Y11490
X39551Y11480
X40721Y11400
X41791Y11410
X48741Y15580
X50491Y17890
X54591Y16890
X60091Y15490
X60391Y13290
X46291Y20690
X45427Y20918
X42789Y22572
X40330Y23340
X39697Y22790
X35860Y24777
X33320Y24588
X32721Y23120
X32201Y23210
X30551Y22952
X29981Y23130
X30427Y23826
X28478Y23293
X28391Y21810
X28881Y21550
X23035Y23201
X21769Y22566
X21291Y22190
X17691Y15090
X19791Y13590
X15891Y12890
X16091Y9890
X32941Y11860
T03
X9691Y9190
X10691Y9190
X11691Y9190
X6691Y12190
X6691Y13190
X6691Y14190
X25152Y18752
X25152Y19752
X25152Y20752
X22152Y23752
X21152Y23752
X20152Y23752
X48239Y23649
X49239Y23649
X50239Y23649
X53239Y20649
X53239Y19649
X53239Y18649
X55545Y14190
X55545Y13190
X55545Y12190
X58545Y9190
X59545Y9190
X60545Y9190
T04
X50489Y14649
X47989Y14649
X47989Y16649
X50489Y16649
X58295Y16190
X60795Y16190
X60795Y18190
X58295Y18190
X22402Y16752
X19902Y16752
X19902Y14752
X22402Y14752
X11941Y16190
X9441Y16190
X9441Y18190
X11941Y18190
T05
X47285Y11686
X48403Y11686
T06
X44377Y10480
X43377Y10380
X42377Y10480
X41377Y10380
X40377Y10480
X39377Y10380
X38377Y10480
X37377Y10380
X36377Y10480
X36377Y9480
X37377Y9380
X38377Y9480
X39377Y9380
X40377Y9480
X41377Y9380
X42377Y9480
X43377Y9380
X44377Y9480
X43039Y12490
X42039Y12390
X41039Y12490
X40039Y12390
X39039Y12490
X38039Y12390
X37039Y12490
X36039Y12390
X35039Y12490
X34039Y12390
X34039Y13390
X33039Y13490
X32039Y13390
X31039Y13490
X30039Y13390
X29039Y13490
X28039Y13390
X27039Y13490
X26039Y13390
X25039Y13490
X24039Y13390
X24039Y12390
X25039Y12490
X26039Y12390
X27039Y12490
X28039Y12390
X29039Y12490
X30039Y12390
X31039Y12490
X32039Y12390
X35039Y13490
X36039Y13390
X37039Y13490
X38039Y13390
X39039Y13490
X40039Y13390
X41039Y13490
X42039Y13390
X43039Y13490
X35377Y9380
X34377Y9480
X33377Y9380
X32377Y9480
X31377Y9380
X30377Y9480
X29377Y9380
X28377Y9480
X27377Y9380
X26377Y9480
X25377Y9380
X25377Y10380
X26377Y10480
X27377Y10380
X28377Y10480
X29377Y10380
X30377Y10480
X31377Y10380
X32377Y10480
X33377Y10380
X34377Y10480
X26899Y18574
X26799Y19574
X26899Y20574
X26799Y21574
X26899Y22574
X27821Y22640
X28961Y22640
X28991Y25940
X29991Y25840
X30991Y25940
X32491Y25940
X33491Y25840
X34491Y25940
X35991Y25940
X36991Y25840
X37991Y25940
X39491Y25940
X40491Y25840
X41491Y25940
X42991Y25940
X43991Y25840
X44991Y25940
X46491Y25940
X47491Y25840
X48491Y25940
X49991Y25940
X50991Y25840
X51991Y25940
X53491Y25940
X54491Y25840
X55491Y25940
X56984Y25929
X56884Y24929
X56984Y23929
X43590Y22694
X43490Y21694
X43590Y20694
X43490Y19694
X43590Y18694
X43490Y23694
X27491Y25940
X26491Y25840
X25491Y25940
X23991Y25940
X22991Y25840
X21991Y25940
X20491Y25940
X19491Y25840
X18491Y25940
X16991Y25940
X15991Y25840
X14991Y25940
X13555Y25911
X13655Y24911
X13555Y23911
T07
X46769Y8841
X47754Y9826
X48738Y8841
X51512Y8841
X53480Y8841
X52496Y9826
T08
X56545Y10565
X62545Y10565
X62545Y15815
X56545Y15815
X52239Y17024
X46239Y17024
X46239Y22274
X52239Y22274
X24152Y22377
X18152Y22377
X18152Y17127
X13691Y15815
X7691Y15815
X7691Y10565
X13691Y10565
X24152Y17127
T09
X17986Y11863
X14203Y20673
X52356Y12454
X56213Y20670
M30
