G75*
G70*
%OFA0B0*%
%FSLAX24Y24*%
%IPPOS*%
%LPD*%
%AMOC8*
5,1,8,0,0,1.08239X$1,22.5*
%
%ADD10C,0.0000*%
%ADD11R,0.0315X0.0472*%
%ADD12R,0.0397X0.0397*%
%ADD13R,0.0276X0.0354*%
%ADD14C,0.0900*%
%ADD15C,0.0700*%
%ADD16C,0.0740*%
%ADD17R,0.0709X0.0709*%
%ADD18OC8,0.0740*%
%ADD19R,0.0591X0.0098*%
%ADD20R,0.0394X0.0197*%
%ADD21R,0.0472X0.0315*%
%ADD22R,0.0276X0.0236*%
%ADD23R,0.0354X0.0276*%
%ADD24C,0.0160*%
%ADD25C,0.0240*%
%ADD26C,0.0320*%
%ADD27C,0.0120*%
%ADD28C,0.0396*%
%ADD29C,0.0090*%
%ADD30C,0.0300*%
%ADD31C,0.0100*%
D10*
X005191Y007690D02*
X005191Y031690D01*
X011991Y031690D01*
X057991Y031690D01*
X070193Y031690D01*
X070191Y020890D01*
X070183Y007690D01*
X005191Y007690D01*
X006153Y009373D02*
X006155Y009423D01*
X006161Y009473D01*
X006171Y009523D01*
X006184Y009571D01*
X006201Y009619D01*
X006222Y009665D01*
X006246Y009709D01*
X006274Y009751D01*
X006305Y009791D01*
X006339Y009828D01*
X006376Y009863D01*
X006415Y009894D01*
X006456Y009923D01*
X006500Y009948D01*
X006546Y009970D01*
X006593Y009988D01*
X006641Y010002D01*
X006690Y010013D01*
X006740Y010020D01*
X006790Y010023D01*
X006841Y010022D01*
X006891Y010017D01*
X006941Y010008D01*
X006989Y009996D01*
X007037Y009979D01*
X007083Y009959D01*
X007128Y009936D01*
X007171Y009909D01*
X007211Y009879D01*
X007249Y009846D01*
X007284Y009810D01*
X007317Y009771D01*
X007346Y009730D01*
X007372Y009687D01*
X007395Y009642D01*
X007414Y009595D01*
X007429Y009547D01*
X007441Y009498D01*
X007449Y009448D01*
X007453Y009398D01*
X007453Y009348D01*
X007449Y009298D01*
X007441Y009248D01*
X007429Y009199D01*
X007414Y009151D01*
X007395Y009104D01*
X007372Y009059D01*
X007346Y009016D01*
X007317Y008975D01*
X007284Y008936D01*
X007249Y008900D01*
X007211Y008867D01*
X007171Y008837D01*
X007128Y008810D01*
X007083Y008787D01*
X007037Y008767D01*
X006989Y008750D01*
X006941Y008738D01*
X006891Y008729D01*
X006841Y008724D01*
X006790Y008723D01*
X006740Y008726D01*
X006690Y008733D01*
X006641Y008744D01*
X006593Y008758D01*
X006546Y008776D01*
X006500Y008798D01*
X006456Y008823D01*
X006415Y008852D01*
X006376Y008883D01*
X006339Y008918D01*
X006305Y008955D01*
X006274Y008995D01*
X006246Y009037D01*
X006222Y009081D01*
X006201Y009127D01*
X006184Y009175D01*
X006171Y009223D01*
X006161Y009273D01*
X006155Y009323D01*
X006153Y009373D01*
X016253Y021773D02*
X016255Y021823D01*
X016261Y021873D01*
X016271Y021923D01*
X016284Y021971D01*
X016301Y022019D01*
X016322Y022065D01*
X016346Y022109D01*
X016374Y022151D01*
X016405Y022191D01*
X016439Y022228D01*
X016476Y022263D01*
X016515Y022294D01*
X016556Y022323D01*
X016600Y022348D01*
X016646Y022370D01*
X016693Y022388D01*
X016741Y022402D01*
X016790Y022413D01*
X016840Y022420D01*
X016890Y022423D01*
X016941Y022422D01*
X016991Y022417D01*
X017041Y022408D01*
X017089Y022396D01*
X017137Y022379D01*
X017183Y022359D01*
X017228Y022336D01*
X017271Y022309D01*
X017311Y022279D01*
X017349Y022246D01*
X017384Y022210D01*
X017417Y022171D01*
X017446Y022130D01*
X017472Y022087D01*
X017495Y022042D01*
X017514Y021995D01*
X017529Y021947D01*
X017541Y021898D01*
X017549Y021848D01*
X017553Y021798D01*
X017553Y021748D01*
X017549Y021698D01*
X017541Y021648D01*
X017529Y021599D01*
X017514Y021551D01*
X017495Y021504D01*
X017472Y021459D01*
X017446Y021416D01*
X017417Y021375D01*
X017384Y021336D01*
X017349Y021300D01*
X017311Y021267D01*
X017271Y021237D01*
X017228Y021210D01*
X017183Y021187D01*
X017137Y021167D01*
X017089Y021150D01*
X017041Y021138D01*
X016991Y021129D01*
X016941Y021124D01*
X016890Y021123D01*
X016840Y021126D01*
X016790Y021133D01*
X016741Y021144D01*
X016693Y021158D01*
X016646Y021176D01*
X016600Y021198D01*
X016556Y021223D01*
X016515Y021252D01*
X016476Y021283D01*
X016439Y021318D01*
X016405Y021355D01*
X016374Y021395D01*
X016346Y021437D01*
X016322Y021481D01*
X016301Y021527D01*
X016284Y021575D01*
X016271Y021623D01*
X016261Y021673D01*
X016255Y021723D01*
X016253Y021773D01*
X005936Y030563D02*
X005938Y030613D01*
X005944Y030663D01*
X005954Y030713D01*
X005967Y030761D01*
X005984Y030809D01*
X006005Y030855D01*
X006029Y030899D01*
X006057Y030941D01*
X006088Y030981D01*
X006122Y031018D01*
X006159Y031053D01*
X006198Y031084D01*
X006239Y031113D01*
X006283Y031138D01*
X006329Y031160D01*
X006376Y031178D01*
X006424Y031192D01*
X006473Y031203D01*
X006523Y031210D01*
X006573Y031213D01*
X006624Y031212D01*
X006674Y031207D01*
X006724Y031198D01*
X006772Y031186D01*
X006820Y031169D01*
X006866Y031149D01*
X006911Y031126D01*
X006954Y031099D01*
X006994Y031069D01*
X007032Y031036D01*
X007067Y031000D01*
X007100Y030961D01*
X007129Y030920D01*
X007155Y030877D01*
X007178Y030832D01*
X007197Y030785D01*
X007212Y030737D01*
X007224Y030688D01*
X007232Y030638D01*
X007236Y030588D01*
X007236Y030538D01*
X007232Y030488D01*
X007224Y030438D01*
X007212Y030389D01*
X007197Y030341D01*
X007178Y030294D01*
X007155Y030249D01*
X007129Y030206D01*
X007100Y030165D01*
X007067Y030126D01*
X007032Y030090D01*
X006994Y030057D01*
X006954Y030027D01*
X006911Y030000D01*
X006866Y029977D01*
X006820Y029957D01*
X006772Y029940D01*
X006724Y029928D01*
X006674Y029919D01*
X006624Y029914D01*
X006573Y029913D01*
X006523Y029916D01*
X006473Y029923D01*
X006424Y029934D01*
X006376Y029948D01*
X006329Y029966D01*
X006283Y029988D01*
X006239Y030013D01*
X006198Y030042D01*
X006159Y030073D01*
X006122Y030108D01*
X006088Y030145D01*
X006057Y030185D01*
X006029Y030227D01*
X006005Y030271D01*
X005984Y030317D01*
X005967Y030365D01*
X005954Y030413D01*
X005944Y030463D01*
X005938Y030513D01*
X005936Y030563D01*
X058363Y021570D02*
X058365Y021620D01*
X058371Y021670D01*
X058381Y021720D01*
X058394Y021768D01*
X058411Y021816D01*
X058432Y021862D01*
X058456Y021906D01*
X058484Y021948D01*
X058515Y021988D01*
X058549Y022025D01*
X058586Y022060D01*
X058625Y022091D01*
X058666Y022120D01*
X058710Y022145D01*
X058756Y022167D01*
X058803Y022185D01*
X058851Y022199D01*
X058900Y022210D01*
X058950Y022217D01*
X059000Y022220D01*
X059051Y022219D01*
X059101Y022214D01*
X059151Y022205D01*
X059199Y022193D01*
X059247Y022176D01*
X059293Y022156D01*
X059338Y022133D01*
X059381Y022106D01*
X059421Y022076D01*
X059459Y022043D01*
X059494Y022007D01*
X059527Y021968D01*
X059556Y021927D01*
X059582Y021884D01*
X059605Y021839D01*
X059624Y021792D01*
X059639Y021744D01*
X059651Y021695D01*
X059659Y021645D01*
X059663Y021595D01*
X059663Y021545D01*
X059659Y021495D01*
X059651Y021445D01*
X059639Y021396D01*
X059624Y021348D01*
X059605Y021301D01*
X059582Y021256D01*
X059556Y021213D01*
X059527Y021172D01*
X059494Y021133D01*
X059459Y021097D01*
X059421Y021064D01*
X059381Y021034D01*
X059338Y021007D01*
X059293Y020984D01*
X059247Y020964D01*
X059199Y020947D01*
X059151Y020935D01*
X059101Y020926D01*
X059051Y020921D01*
X059000Y020920D01*
X058950Y020923D01*
X058900Y020930D01*
X058851Y020941D01*
X058803Y020955D01*
X058756Y020973D01*
X058710Y020995D01*
X058666Y021020D01*
X058625Y021049D01*
X058586Y021080D01*
X058549Y021115D01*
X058515Y021152D01*
X058484Y021192D01*
X058456Y021234D01*
X058432Y021278D01*
X058411Y021324D01*
X058394Y021372D01*
X058381Y021420D01*
X058371Y021470D01*
X058365Y021520D01*
X058363Y021570D01*
X068063Y030170D02*
X068065Y030220D01*
X068071Y030270D01*
X068081Y030320D01*
X068094Y030368D01*
X068111Y030416D01*
X068132Y030462D01*
X068156Y030506D01*
X068184Y030548D01*
X068215Y030588D01*
X068249Y030625D01*
X068286Y030660D01*
X068325Y030691D01*
X068366Y030720D01*
X068410Y030745D01*
X068456Y030767D01*
X068503Y030785D01*
X068551Y030799D01*
X068600Y030810D01*
X068650Y030817D01*
X068700Y030820D01*
X068751Y030819D01*
X068801Y030814D01*
X068851Y030805D01*
X068899Y030793D01*
X068947Y030776D01*
X068993Y030756D01*
X069038Y030733D01*
X069081Y030706D01*
X069121Y030676D01*
X069159Y030643D01*
X069194Y030607D01*
X069227Y030568D01*
X069256Y030527D01*
X069282Y030484D01*
X069305Y030439D01*
X069324Y030392D01*
X069339Y030344D01*
X069351Y030295D01*
X069359Y030245D01*
X069363Y030195D01*
X069363Y030145D01*
X069359Y030095D01*
X069351Y030045D01*
X069339Y029996D01*
X069324Y029948D01*
X069305Y029901D01*
X069282Y029856D01*
X069256Y029813D01*
X069227Y029772D01*
X069194Y029733D01*
X069159Y029697D01*
X069121Y029664D01*
X069081Y029634D01*
X069038Y029607D01*
X068993Y029584D01*
X068947Y029564D01*
X068899Y029547D01*
X068851Y029535D01*
X068801Y029526D01*
X068751Y029521D01*
X068700Y029520D01*
X068650Y029523D01*
X068600Y029530D01*
X068551Y029541D01*
X068503Y029555D01*
X068456Y029573D01*
X068410Y029595D01*
X068366Y029620D01*
X068325Y029649D01*
X068286Y029680D01*
X068249Y029715D01*
X068215Y029752D01*
X068184Y029792D01*
X068156Y029834D01*
X068132Y029878D01*
X068111Y029924D01*
X068094Y029972D01*
X068081Y030020D01*
X068071Y030070D01*
X068065Y030120D01*
X068063Y030170D01*
X068106Y009254D02*
X068108Y009304D01*
X068114Y009354D01*
X068124Y009404D01*
X068137Y009452D01*
X068154Y009500D01*
X068175Y009546D01*
X068199Y009590D01*
X068227Y009632D01*
X068258Y009672D01*
X068292Y009709D01*
X068329Y009744D01*
X068368Y009775D01*
X068409Y009804D01*
X068453Y009829D01*
X068499Y009851D01*
X068546Y009869D01*
X068594Y009883D01*
X068643Y009894D01*
X068693Y009901D01*
X068743Y009904D01*
X068794Y009903D01*
X068844Y009898D01*
X068894Y009889D01*
X068942Y009877D01*
X068990Y009860D01*
X069036Y009840D01*
X069081Y009817D01*
X069124Y009790D01*
X069164Y009760D01*
X069202Y009727D01*
X069237Y009691D01*
X069270Y009652D01*
X069299Y009611D01*
X069325Y009568D01*
X069348Y009523D01*
X069367Y009476D01*
X069382Y009428D01*
X069394Y009379D01*
X069402Y009329D01*
X069406Y009279D01*
X069406Y009229D01*
X069402Y009179D01*
X069394Y009129D01*
X069382Y009080D01*
X069367Y009032D01*
X069348Y008985D01*
X069325Y008940D01*
X069299Y008897D01*
X069270Y008856D01*
X069237Y008817D01*
X069202Y008781D01*
X069164Y008748D01*
X069124Y008718D01*
X069081Y008691D01*
X069036Y008668D01*
X068990Y008648D01*
X068942Y008631D01*
X068894Y008619D01*
X068844Y008610D01*
X068794Y008605D01*
X068743Y008604D01*
X068693Y008607D01*
X068643Y008614D01*
X068594Y008625D01*
X068546Y008639D01*
X068499Y008657D01*
X068453Y008679D01*
X068409Y008704D01*
X068368Y008733D01*
X068329Y008764D01*
X068292Y008799D01*
X068258Y008836D01*
X068227Y008876D01*
X068199Y008918D01*
X068175Y008962D01*
X068154Y009008D01*
X068137Y009056D01*
X068124Y009104D01*
X068114Y009154D01*
X068108Y009204D01*
X068106Y009254D01*
D11*
X052145Y011690D03*
X051436Y011690D03*
X050045Y012890D03*
X049336Y012890D03*
X053936Y017090D03*
X054645Y017090D03*
X066836Y021090D03*
X067545Y021090D03*
X067645Y017990D03*
X066936Y017990D03*
G36*
X042097Y026250D02*
X042367Y026407D01*
X042603Y026000D01*
X042333Y025843D01*
X042097Y026250D01*
G37*
G36*
X041484Y025896D02*
X041754Y026053D01*
X041990Y025646D01*
X041720Y025489D01*
X041484Y025896D01*
G37*
G36*
X040956Y026309D02*
X041250Y026416D01*
X041412Y025973D01*
X041118Y025866D01*
X040956Y026309D01*
G37*
G36*
X040290Y026067D02*
X040584Y026174D01*
X040746Y025731D01*
X040452Y025624D01*
X040290Y026067D01*
G37*
G36*
X033320Y018358D02*
X033098Y018580D01*
X033430Y018912D01*
X033652Y018690D01*
X033320Y018358D01*
G37*
G36*
X033821Y017857D02*
X033599Y018079D01*
X033931Y018411D01*
X034153Y018189D01*
X033821Y017857D01*
G37*
G36*
X029967Y015345D02*
X030237Y015502D01*
X030473Y015095D01*
X030203Y014938D01*
X029967Y015345D01*
G37*
G36*
X029354Y014990D02*
X029624Y015147D01*
X029860Y014740D01*
X029590Y014583D01*
X029354Y014990D01*
G37*
X031551Y011520D03*
X032260Y011520D03*
X033936Y011390D03*
X034645Y011390D03*
X034898Y008672D03*
X034190Y008672D03*
X033655Y008670D03*
X032946Y008670D03*
X035883Y008679D03*
X036591Y008679D03*
X037036Y008670D03*
X037745Y008670D03*
X026557Y009311D03*
X025849Y009311D03*
X025161Y009316D03*
X024453Y009316D03*
X023732Y009292D03*
X023024Y009292D03*
X022254Y009244D03*
X021545Y009244D03*
X014745Y008990D03*
X014036Y008990D03*
X020236Y017990D03*
X020945Y017990D03*
X008445Y023190D03*
X007736Y023190D03*
D12*
G36*
X032464Y018475D02*
X032184Y018755D01*
X032464Y019035D01*
X032744Y018755D01*
X032464Y018475D01*
G37*
G36*
X033823Y017117D02*
X033543Y017397D01*
X033823Y017677D01*
X034103Y017397D01*
X033823Y017117D01*
G37*
D13*
G36*
X032751Y017281D02*
X032946Y017476D01*
X033195Y017227D01*
X033000Y017032D01*
X032751Y017281D01*
G37*
G36*
X032060Y017972D02*
X032255Y018167D01*
X032504Y017918D01*
X032309Y017723D01*
X032060Y017972D01*
G37*
G36*
X031698Y017611D02*
X031893Y017806D01*
X032142Y017557D01*
X031947Y017362D01*
X031698Y017611D01*
G37*
G36*
X032390Y016919D02*
X032585Y017114D01*
X032834Y016865D01*
X032639Y016670D01*
X032390Y016919D01*
G37*
X058018Y009190D03*
X058963Y009190D03*
D14*
X061866Y010936D03*
X067116Y010936D03*
X067116Y016936D03*
X061866Y016936D03*
X054339Y019124D03*
X048339Y019124D03*
X048339Y024374D03*
X054339Y024374D03*
X061766Y023590D03*
X067016Y023590D03*
X067016Y029590D03*
X061766Y029590D03*
X027152Y024177D03*
X021152Y024177D03*
X013716Y024290D03*
X008466Y024290D03*
X021152Y018927D03*
X027152Y018927D03*
X014191Y016615D03*
X008191Y016615D03*
X008191Y011365D03*
X014191Y011365D03*
X013716Y030290D03*
X008466Y030290D03*
D15*
X008091Y028540D03*
X006091Y028540D03*
X006091Y026040D03*
X008091Y026040D03*
X010091Y023290D03*
X011091Y023290D03*
X012091Y023290D03*
X015091Y026290D03*
X015091Y027290D03*
X015091Y028290D03*
X023152Y025552D03*
X024152Y025552D03*
X025152Y025552D03*
X028152Y022552D03*
X028152Y021552D03*
X028152Y020552D03*
X025402Y018552D03*
X022902Y018552D03*
X022902Y016552D03*
X025402Y016552D03*
X015191Y014990D03*
X015191Y013990D03*
X015191Y012990D03*
X012441Y010990D03*
X009941Y010990D03*
X009941Y008990D03*
X012441Y008990D03*
X012191Y017990D03*
X011191Y017990D03*
X010191Y017990D03*
X050089Y018749D03*
X052589Y018749D03*
X052589Y016749D03*
X050089Y016749D03*
X055339Y020749D03*
X055339Y021749D03*
X055339Y022749D03*
X060391Y025590D03*
X060391Y026590D03*
X060391Y027590D03*
X063391Y030590D03*
X064391Y030590D03*
X065391Y030590D03*
X067391Y027840D03*
X069391Y027840D03*
X069391Y025340D03*
X067391Y025340D03*
X052339Y025749D03*
X051339Y025749D03*
X050339Y025749D03*
X063491Y017936D03*
X064491Y017936D03*
X065491Y017936D03*
X067491Y015186D03*
X069491Y015186D03*
X069491Y012686D03*
X067491Y012686D03*
X060491Y012936D03*
X060491Y013936D03*
X060491Y014936D03*
D16*
X054891Y015060D03*
X054891Y013920D03*
X057321Y010890D03*
X058461Y010890D03*
X059991Y009560D03*
X059991Y008420D03*
X046877Y009480D03*
X045877Y009380D03*
X044877Y009480D03*
X043877Y009380D03*
X042877Y009480D03*
X041877Y009380D03*
X040877Y009480D03*
X039877Y009380D03*
X038877Y009480D03*
X037877Y009380D03*
X036877Y009480D03*
X035877Y009380D03*
X034877Y009480D03*
X033877Y009380D03*
X032877Y009480D03*
X031877Y009380D03*
X030877Y009480D03*
X029877Y009380D03*
X028877Y009480D03*
X028877Y010480D03*
X029877Y010380D03*
X030877Y010480D03*
X031877Y010380D03*
X032877Y010480D03*
X033877Y010380D03*
X034877Y010480D03*
X035877Y010380D03*
X036877Y010480D03*
X038877Y010480D03*
X039877Y010380D03*
X040877Y010480D03*
X041877Y010380D03*
X042877Y010480D03*
X043877Y010380D03*
X044877Y010480D03*
X045877Y010380D03*
X046877Y010480D03*
X044539Y012390D03*
X043539Y012490D03*
X042539Y012390D03*
X041539Y012490D03*
X040539Y012390D03*
X039539Y012490D03*
X038539Y012390D03*
X037539Y012490D03*
X036539Y012390D03*
X036539Y013390D03*
X035539Y013490D03*
X034539Y013390D03*
X033539Y013490D03*
X032539Y013390D03*
X031539Y013490D03*
X030539Y013390D03*
X029539Y013490D03*
X028539Y013390D03*
X027539Y013490D03*
X026539Y013390D03*
X026539Y012390D03*
X027539Y012490D03*
X028539Y012390D03*
X029539Y012490D03*
X030539Y012390D03*
X031539Y012490D03*
X032539Y012390D03*
X033539Y012490D03*
X034539Y012390D03*
X037539Y013490D03*
X038539Y013390D03*
X039539Y013490D03*
X040539Y013390D03*
X041539Y013490D03*
X042539Y013390D03*
X043539Y013490D03*
X044539Y013390D03*
X047821Y017356D03*
X047166Y018117D03*
X046674Y018994D03*
X046019Y019756D03*
X045527Y020632D03*
X044872Y021394D03*
X045391Y028240D03*
X046391Y028140D03*
X047391Y028240D03*
X048891Y028240D03*
X049891Y028140D03*
X050891Y028240D03*
X052391Y028240D03*
X053391Y028140D03*
X054391Y028240D03*
X043891Y028240D03*
X042891Y028140D03*
X041891Y028240D03*
X040391Y028240D03*
X039391Y028140D03*
X038391Y028240D03*
X036891Y028240D03*
X035891Y028140D03*
X034891Y028240D03*
X033391Y028240D03*
X032391Y028140D03*
X031391Y028240D03*
X029891Y028240D03*
X028891Y028140D03*
X027891Y028240D03*
X026391Y028240D03*
X025391Y028140D03*
X024391Y028240D03*
X022891Y028240D03*
X021891Y028140D03*
X020891Y028240D03*
X021999Y014774D03*
X020841Y014090D03*
X021899Y013774D03*
X020741Y013090D03*
X021999Y012774D03*
X020841Y012090D03*
X021899Y011774D03*
X020741Y011090D03*
X021999Y010774D03*
X020841Y010090D03*
D17*
X049212Y008941D03*
X050196Y009926D03*
X051180Y008941D03*
X053169Y008941D03*
X054154Y009926D03*
X055138Y008941D03*
D18*
X045539Y012490D03*
X045539Y013490D03*
X027877Y010380D03*
X027877Y009380D03*
D19*
G36*
X037447Y018892D02*
X037031Y018476D01*
X036961Y018546D01*
X037377Y018962D01*
X037447Y018892D01*
G37*
G36*
X037308Y019031D02*
X036892Y018615D01*
X036822Y018685D01*
X037238Y019101D01*
X037308Y019031D01*
G37*
G36*
X037169Y019170D02*
X036753Y018754D01*
X036683Y018824D01*
X037099Y019240D01*
X037169Y019170D01*
G37*
G36*
X037029Y019309D02*
X036613Y018893D01*
X036543Y018963D01*
X036959Y019379D01*
X037029Y019309D01*
G37*
G36*
X036890Y019448D02*
X036474Y019032D01*
X036404Y019102D01*
X036820Y019518D01*
X036890Y019448D01*
G37*
G36*
X036751Y019588D02*
X036335Y019172D01*
X036265Y019242D01*
X036681Y019658D01*
X036751Y019588D01*
G37*
G36*
X036612Y019727D02*
X036196Y019311D01*
X036126Y019381D01*
X036542Y019797D01*
X036612Y019727D01*
G37*
G36*
X036473Y019866D02*
X036057Y019450D01*
X035987Y019520D01*
X036403Y019936D01*
X036473Y019866D01*
G37*
G36*
X036333Y020005D02*
X035917Y019589D01*
X035847Y019659D01*
X036263Y020075D01*
X036333Y020005D01*
G37*
G36*
X036194Y020144D02*
X035778Y019728D01*
X035708Y019798D01*
X036124Y020214D01*
X036194Y020144D01*
G37*
G36*
X036055Y020284D02*
X035639Y019868D01*
X035569Y019938D01*
X035985Y020354D01*
X036055Y020284D01*
G37*
G36*
X035916Y020423D02*
X035500Y020007D01*
X035430Y020077D01*
X035846Y020493D01*
X035916Y020423D01*
G37*
G36*
X035777Y020562D02*
X035361Y020146D01*
X035291Y020216D01*
X035707Y020632D01*
X035777Y020562D01*
G37*
G36*
X035637Y020701D02*
X035221Y020285D01*
X035151Y020355D01*
X035567Y020771D01*
X035637Y020701D01*
G37*
G36*
X035498Y020840D02*
X035082Y020424D01*
X035012Y020494D01*
X035428Y020910D01*
X035498Y020840D01*
G37*
G36*
X035359Y020980D02*
X034943Y020564D01*
X034873Y020634D01*
X035289Y021050D01*
X035359Y020980D01*
G37*
G36*
X035220Y021119D02*
X034804Y020703D01*
X034734Y020773D01*
X035150Y021189D01*
X035220Y021119D01*
G37*
G36*
X035081Y021258D02*
X034665Y020842D01*
X034595Y020912D01*
X035011Y021328D01*
X035081Y021258D01*
G37*
G36*
X034942Y021397D02*
X034526Y020981D01*
X034456Y021051D01*
X034872Y021467D01*
X034942Y021397D01*
G37*
G36*
X034802Y021536D02*
X034386Y021120D01*
X034316Y021190D01*
X034732Y021606D01*
X034802Y021536D01*
G37*
G36*
X034663Y021676D02*
X034247Y021260D01*
X034177Y021330D01*
X034593Y021746D01*
X034663Y021676D01*
G37*
G36*
X034524Y021815D02*
X034108Y021399D01*
X034038Y021469D01*
X034454Y021885D01*
X034524Y021815D01*
G37*
G36*
X034385Y021954D02*
X033969Y021538D01*
X033899Y021608D01*
X034315Y022024D01*
X034385Y021954D01*
G37*
G36*
X034246Y022093D02*
X033830Y021677D01*
X033760Y021747D01*
X034176Y022163D01*
X034246Y022093D01*
G37*
G36*
X034106Y022232D02*
X033690Y021816D01*
X033620Y021886D01*
X034036Y022302D01*
X034106Y022232D01*
G37*
G36*
X034036Y022791D02*
X033620Y023207D01*
X033690Y023277D01*
X034106Y022861D01*
X034036Y022791D01*
G37*
G36*
X034176Y022930D02*
X033760Y023346D01*
X033830Y023416D01*
X034246Y023000D01*
X034176Y022930D01*
G37*
G36*
X034315Y023069D02*
X033899Y023485D01*
X033969Y023555D01*
X034385Y023139D01*
X034315Y023069D01*
G37*
G36*
X034454Y023208D02*
X034038Y023624D01*
X034108Y023694D01*
X034524Y023278D01*
X034454Y023208D01*
G37*
G36*
X034593Y023347D02*
X034177Y023763D01*
X034247Y023833D01*
X034663Y023417D01*
X034593Y023347D01*
G37*
G36*
X034732Y023487D02*
X034316Y023903D01*
X034386Y023973D01*
X034802Y023557D01*
X034732Y023487D01*
G37*
G36*
X034872Y023626D02*
X034456Y024042D01*
X034526Y024112D01*
X034942Y023696D01*
X034872Y023626D01*
G37*
G36*
X035011Y023765D02*
X034595Y024181D01*
X034665Y024251D01*
X035081Y023835D01*
X035011Y023765D01*
G37*
G36*
X035150Y023904D02*
X034734Y024320D01*
X034804Y024390D01*
X035220Y023974D01*
X035150Y023904D01*
G37*
G36*
X035289Y024043D02*
X034873Y024459D01*
X034943Y024529D01*
X035359Y024113D01*
X035289Y024043D01*
G37*
G36*
X035428Y024183D02*
X035012Y024599D01*
X035082Y024669D01*
X035498Y024253D01*
X035428Y024183D01*
G37*
G36*
X035567Y024322D02*
X035151Y024738D01*
X035221Y024808D01*
X035637Y024392D01*
X035567Y024322D01*
G37*
G36*
X035707Y024461D02*
X035291Y024877D01*
X035361Y024947D01*
X035777Y024531D01*
X035707Y024461D01*
G37*
G36*
X035846Y024600D02*
X035430Y025016D01*
X035500Y025086D01*
X035916Y024670D01*
X035846Y024600D01*
G37*
G36*
X035985Y024739D02*
X035569Y025155D01*
X035639Y025225D01*
X036055Y024809D01*
X035985Y024739D01*
G37*
G36*
X036124Y024879D02*
X035708Y025295D01*
X035778Y025365D01*
X036194Y024949D01*
X036124Y024879D01*
G37*
G36*
X036263Y025018D02*
X035847Y025434D01*
X035917Y025504D01*
X036333Y025088D01*
X036263Y025018D01*
G37*
G36*
X036403Y025157D02*
X035987Y025573D01*
X036057Y025643D01*
X036473Y025227D01*
X036403Y025157D01*
G37*
G36*
X036542Y025296D02*
X036126Y025712D01*
X036196Y025782D01*
X036612Y025366D01*
X036542Y025296D01*
G37*
G36*
X036681Y025435D02*
X036265Y025851D01*
X036335Y025921D01*
X036751Y025505D01*
X036681Y025435D01*
G37*
G36*
X036820Y025575D02*
X036404Y025991D01*
X036474Y026061D01*
X036890Y025645D01*
X036820Y025575D01*
G37*
G36*
X036959Y025714D02*
X036543Y026130D01*
X036613Y026200D01*
X037029Y025784D01*
X036959Y025714D01*
G37*
G36*
X037099Y025853D02*
X036683Y026269D01*
X036753Y026339D01*
X037169Y025923D01*
X037099Y025853D01*
G37*
G36*
X037238Y025992D02*
X036822Y026408D01*
X036892Y026478D01*
X037308Y026062D01*
X037238Y025992D01*
G37*
G36*
X037377Y026131D02*
X036961Y026547D01*
X037031Y026617D01*
X037447Y026201D01*
X037377Y026131D01*
G37*
G36*
X037935Y026201D02*
X038351Y026617D01*
X038421Y026547D01*
X038005Y026131D01*
X037935Y026201D01*
G37*
G36*
X038075Y026062D02*
X038491Y026478D01*
X038561Y026408D01*
X038145Y025992D01*
X038075Y026062D01*
G37*
G36*
X038214Y025923D02*
X038630Y026339D01*
X038700Y026269D01*
X038284Y025853D01*
X038214Y025923D01*
G37*
G36*
X038353Y025784D02*
X038769Y026200D01*
X038839Y026130D01*
X038423Y025714D01*
X038353Y025784D01*
G37*
G36*
X038492Y025645D02*
X038908Y026061D01*
X038978Y025991D01*
X038562Y025575D01*
X038492Y025645D01*
G37*
G36*
X038631Y025505D02*
X039047Y025921D01*
X039117Y025851D01*
X038701Y025435D01*
X038631Y025505D01*
G37*
G36*
X038771Y025366D02*
X039187Y025782D01*
X039257Y025712D01*
X038841Y025296D01*
X038771Y025366D01*
G37*
G36*
X038910Y025227D02*
X039326Y025643D01*
X039396Y025573D01*
X038980Y025157D01*
X038910Y025227D01*
G37*
G36*
X039049Y025088D02*
X039465Y025504D01*
X039535Y025434D01*
X039119Y025018D01*
X039049Y025088D01*
G37*
G36*
X039188Y024949D02*
X039604Y025365D01*
X039674Y025295D01*
X039258Y024879D01*
X039188Y024949D01*
G37*
G36*
X039327Y024809D02*
X039743Y025225D01*
X039813Y025155D01*
X039397Y024739D01*
X039327Y024809D01*
G37*
G36*
X039466Y024670D02*
X039882Y025086D01*
X039952Y025016D01*
X039536Y024600D01*
X039466Y024670D01*
G37*
G36*
X039606Y024531D02*
X040022Y024947D01*
X040092Y024877D01*
X039676Y024461D01*
X039606Y024531D01*
G37*
G36*
X039745Y024392D02*
X040161Y024808D01*
X040231Y024738D01*
X039815Y024322D01*
X039745Y024392D01*
G37*
G36*
X039884Y024253D02*
X040300Y024669D01*
X040370Y024599D01*
X039954Y024183D01*
X039884Y024253D01*
G37*
G36*
X040023Y024113D02*
X040439Y024529D01*
X040509Y024459D01*
X040093Y024043D01*
X040023Y024113D01*
G37*
G36*
X040162Y023974D02*
X040578Y024390D01*
X040648Y024320D01*
X040232Y023904D01*
X040162Y023974D01*
G37*
G36*
X040302Y023835D02*
X040718Y024251D01*
X040788Y024181D01*
X040372Y023765D01*
X040302Y023835D01*
G37*
G36*
X040441Y023696D02*
X040857Y024112D01*
X040927Y024042D01*
X040511Y023626D01*
X040441Y023696D01*
G37*
G36*
X040580Y023557D02*
X040996Y023973D01*
X041066Y023903D01*
X040650Y023487D01*
X040580Y023557D01*
G37*
G36*
X040719Y023417D02*
X041135Y023833D01*
X041205Y023763D01*
X040789Y023347D01*
X040719Y023417D01*
G37*
G36*
X040858Y023278D02*
X041274Y023694D01*
X041344Y023624D01*
X040928Y023208D01*
X040858Y023278D01*
G37*
G36*
X040998Y023139D02*
X041414Y023555D01*
X041484Y023485D01*
X041068Y023069D01*
X040998Y023139D01*
G37*
G36*
X041137Y023000D02*
X041553Y023416D01*
X041623Y023346D01*
X041207Y022930D01*
X041137Y023000D01*
G37*
G36*
X041276Y022861D02*
X041692Y023277D01*
X041762Y023207D01*
X041346Y022791D01*
X041276Y022861D01*
G37*
G36*
X041346Y022302D02*
X041762Y021886D01*
X041692Y021816D01*
X041276Y022232D01*
X041346Y022302D01*
G37*
G36*
X041207Y022163D02*
X041623Y021747D01*
X041553Y021677D01*
X041137Y022093D01*
X041207Y022163D01*
G37*
G36*
X041068Y022024D02*
X041484Y021608D01*
X041414Y021538D01*
X040998Y021954D01*
X041068Y022024D01*
G37*
G36*
X040928Y021885D02*
X041344Y021469D01*
X041274Y021399D01*
X040858Y021815D01*
X040928Y021885D01*
G37*
G36*
X040789Y021746D02*
X041205Y021330D01*
X041135Y021260D01*
X040719Y021676D01*
X040789Y021746D01*
G37*
G36*
X040650Y021606D02*
X041066Y021190D01*
X040996Y021120D01*
X040580Y021536D01*
X040650Y021606D01*
G37*
G36*
X040511Y021467D02*
X040927Y021051D01*
X040857Y020981D01*
X040441Y021397D01*
X040511Y021467D01*
G37*
G36*
X040372Y021328D02*
X040788Y020912D01*
X040718Y020842D01*
X040302Y021258D01*
X040372Y021328D01*
G37*
G36*
X040232Y021189D02*
X040648Y020773D01*
X040578Y020703D01*
X040162Y021119D01*
X040232Y021189D01*
G37*
G36*
X040093Y021050D02*
X040509Y020634D01*
X040439Y020564D01*
X040023Y020980D01*
X040093Y021050D01*
G37*
G36*
X039954Y020910D02*
X040370Y020494D01*
X040300Y020424D01*
X039884Y020840D01*
X039954Y020910D01*
G37*
G36*
X039815Y020771D02*
X040231Y020355D01*
X040161Y020285D01*
X039745Y020701D01*
X039815Y020771D01*
G37*
G36*
X039676Y020632D02*
X040092Y020216D01*
X040022Y020146D01*
X039606Y020562D01*
X039676Y020632D01*
G37*
G36*
X039536Y020493D02*
X039952Y020077D01*
X039882Y020007D01*
X039466Y020423D01*
X039536Y020493D01*
G37*
G36*
X039397Y020354D02*
X039813Y019938D01*
X039743Y019868D01*
X039327Y020284D01*
X039397Y020354D01*
G37*
G36*
X039258Y020214D02*
X039674Y019798D01*
X039604Y019728D01*
X039188Y020144D01*
X039258Y020214D01*
G37*
G36*
X039119Y020075D02*
X039535Y019659D01*
X039465Y019589D01*
X039049Y020005D01*
X039119Y020075D01*
G37*
G36*
X038980Y019936D02*
X039396Y019520D01*
X039326Y019450D01*
X038910Y019866D01*
X038980Y019936D01*
G37*
G36*
X038841Y019797D02*
X039257Y019381D01*
X039187Y019311D01*
X038771Y019727D01*
X038841Y019797D01*
G37*
G36*
X038701Y019658D02*
X039117Y019242D01*
X039047Y019172D01*
X038631Y019588D01*
X038701Y019658D01*
G37*
G36*
X038562Y019518D02*
X038978Y019102D01*
X038908Y019032D01*
X038492Y019448D01*
X038562Y019518D01*
G37*
G36*
X038423Y019379D02*
X038839Y018963D01*
X038769Y018893D01*
X038353Y019309D01*
X038423Y019379D01*
G37*
G36*
X038284Y019240D02*
X038700Y018824D01*
X038630Y018754D01*
X038214Y019170D01*
X038284Y019240D01*
G37*
G36*
X038145Y019101D02*
X038561Y018685D01*
X038491Y018615D01*
X038075Y019031D01*
X038145Y019101D01*
G37*
G36*
X038005Y018962D02*
X038421Y018546D01*
X038351Y018476D01*
X037935Y018892D01*
X038005Y018962D01*
G37*
D20*
X050691Y014512D03*
X050691Y014008D03*
X050691Y013504D03*
X050691Y013000D03*
X052651Y013000D03*
X052651Y013504D03*
X052651Y014008D03*
X052651Y014512D03*
D21*
X053549Y014786D03*
X053549Y014077D03*
X054291Y011544D03*
X054291Y010836D03*
X026991Y010736D03*
X026191Y010736D03*
X026191Y011444D03*
X026991Y011444D03*
X018991Y009344D03*
X018991Y008636D03*
D22*
X052797Y011690D03*
X053584Y011316D03*
X053584Y012064D03*
D23*
X055091Y012218D03*
X055091Y013163D03*
D24*
X055191Y020749D02*
X055191Y020790D01*
X053191Y020790D01*
X053129Y020812D01*
X053068Y020838D01*
X053008Y020867D01*
X052951Y020900D01*
X052895Y020935D01*
X052842Y020974D01*
X052791Y021016D01*
X052742Y021061D01*
X052696Y021108D01*
X052652Y021158D01*
X052612Y021210D01*
X052575Y021265D01*
X052541Y021321D01*
X052510Y021380D01*
X052482Y021440D01*
X052458Y021501D01*
X052438Y021564D01*
X052421Y021628D01*
X052408Y021693D01*
X052399Y021758D01*
X052393Y021824D01*
X052391Y021890D01*
X052391Y025749D01*
X052339Y025749D01*
X052391Y028240D02*
X052391Y029190D01*
X048891Y029190D02*
X048891Y028240D01*
X045391Y028240D02*
X045391Y029190D01*
X041891Y029190D02*
X041891Y028240D01*
X038391Y028240D02*
X038391Y029190D01*
X034891Y029190D02*
X034891Y028240D01*
X031391Y028240D02*
X031391Y029190D01*
X027891Y029190D02*
X027891Y028240D01*
X024391Y028240D02*
X024391Y029190D01*
X022191Y026790D02*
X022119Y026794D01*
X022047Y026803D01*
X021975Y026815D01*
X021904Y026831D01*
X021835Y026851D01*
X021766Y026874D01*
X021699Y026902D01*
X021633Y026932D01*
X021569Y026966D01*
X021507Y027004D01*
X021447Y027045D01*
X021390Y027089D01*
X021335Y027136D01*
X021282Y027186D01*
X021232Y027238D01*
X021185Y027294D01*
X021142Y027351D01*
X021101Y027411D01*
X021063Y027473D01*
X021029Y027537D01*
X020999Y027603D01*
X020972Y027670D01*
X020948Y027739D01*
X020928Y027809D01*
X020913Y027879D01*
X020900Y027951D01*
X020892Y028023D01*
X020888Y028095D01*
X020887Y028168D01*
X020891Y028240D01*
X020891Y029190D01*
X022191Y026790D02*
X024591Y026790D01*
X024637Y026792D01*
X024682Y026790D01*
X024728Y026785D01*
X024772Y026776D01*
X024816Y026764D01*
X024859Y026747D01*
X024900Y026728D01*
X024939Y026705D01*
X024977Y026678D01*
X025012Y026649D01*
X025044Y026617D01*
X025074Y026583D01*
X025101Y026546D01*
X025124Y026507D01*
X025145Y026466D01*
X025162Y026423D01*
X025175Y026380D01*
X025185Y026335D01*
X025191Y026290D01*
X025191Y025552D01*
X025152Y025552D01*
X026491Y020590D02*
X028091Y020590D01*
X028091Y020552D01*
X028152Y020552D01*
X022291Y020590D02*
X022163Y020584D01*
X022036Y020571D01*
X021910Y020553D01*
X021785Y020528D01*
X021661Y020498D01*
X021538Y020462D01*
X021418Y020420D01*
X021299Y020372D01*
X021183Y020318D01*
X021070Y020259D01*
X020960Y020195D01*
X020852Y020126D01*
X020749Y020051D01*
X020649Y019972D01*
X020552Y019888D01*
X020460Y019799D01*
X020373Y019707D01*
X020290Y019610D01*
X020211Y019509D01*
X020138Y019405D01*
X020069Y019297D01*
X020006Y019186D01*
X019948Y019072D01*
X019895Y018956D01*
X019849Y018837D01*
X019807Y018716D01*
X019772Y018593D01*
X019743Y018469D01*
X019719Y018344D01*
X019702Y018217D01*
X019691Y018090D01*
X017791Y014690D02*
X017752Y014577D01*
X017707Y014465D01*
X017657Y014356D01*
X017601Y014250D01*
X017540Y014147D01*
X017475Y014046D01*
X017404Y013949D01*
X017329Y013855D01*
X017250Y013765D01*
X017166Y013680D01*
X017078Y013598D01*
X016986Y013520D01*
X016891Y013448D01*
X016792Y013380D01*
X016690Y013316D01*
X016585Y013258D01*
X016478Y013205D01*
X016367Y013157D01*
X016255Y013115D01*
X016141Y013078D01*
X016025Y013047D01*
X015908Y013022D01*
X015789Y013002D01*
X015670Y012988D01*
X015551Y012979D01*
X015431Y012977D01*
X015311Y012980D01*
X015191Y012990D01*
X037691Y022290D02*
X037691Y023690D01*
X037291Y025390D02*
X037691Y025490D01*
X055191Y020749D02*
X055339Y020749D01*
X060391Y027590D02*
X064391Y027590D01*
X026491Y020590D02*
X022291Y020590D01*
X019691Y018090D02*
X018780Y016369D01*
X017791Y014690D01*
D25*
X015190Y012990D02*
X015049Y012988D01*
X014908Y012994D01*
X014768Y013006D01*
X014628Y013025D01*
X014489Y013051D01*
X014352Y013084D01*
X014216Y013123D01*
X014083Y013169D01*
X013952Y013221D01*
X013824Y013280D01*
X013698Y013345D01*
X013576Y013415D01*
X013458Y013492D01*
X013343Y013574D01*
X013232Y013662D01*
X013126Y013755D01*
X013025Y013853D01*
X012928Y013956D01*
X012837Y014063D01*
X012751Y014175D01*
X012670Y014291D01*
X012595Y014411D01*
X012526Y014534D01*
X012464Y014660D01*
X012407Y014789D01*
X012357Y014921D01*
X012313Y015055D01*
X012275Y015191D01*
X012245Y015329D01*
X012221Y015468D01*
X012204Y015608D01*
X012193Y015749D01*
X012190Y015890D01*
X012191Y015890D02*
X012191Y017990D01*
X020841Y010090D02*
X020840Y009251D01*
X038970Y021511D02*
X039002Y021519D01*
X039035Y021525D01*
X039069Y021527D01*
X039102Y021526D01*
X039135Y021521D01*
X039168Y021513D01*
X039199Y021501D01*
X039229Y021487D01*
X039258Y021469D01*
X039284Y021449D01*
X039308Y021426D01*
X039330Y021401D01*
X039330Y021400D02*
X039360Y021374D01*
X039392Y021351D01*
X039426Y021331D01*
X039462Y021315D01*
X039500Y021302D01*
X039538Y021292D01*
X039577Y021287D01*
X039617Y021285D01*
X039656Y021287D01*
X039696Y021293D01*
X039734Y021302D01*
X039771Y021315D01*
X039807Y021332D01*
X039841Y021352D01*
X039873Y021375D01*
X039903Y021401D01*
X039930Y021430D01*
X040571Y022050D02*
X041261Y022530D01*
X041701Y022620D01*
X038971Y021510D02*
X038920Y021482D01*
X038867Y021458D01*
X038813Y021438D01*
X038757Y021421D01*
X038701Y021408D01*
X038644Y021399D01*
X038586Y021393D01*
X038528Y021392D01*
X038470Y021395D01*
X038413Y021401D01*
X038356Y021411D01*
X038299Y021426D01*
X038244Y021444D01*
X038191Y021465D01*
X038138Y021491D01*
X038088Y021519D01*
X038040Y021551D01*
X037994Y021587D01*
X037950Y021625D01*
X037910Y021666D01*
X037872Y021710D01*
X037837Y021756D01*
X037805Y021805D01*
X037777Y021855D01*
X037752Y021908D01*
X037731Y021962D01*
X037714Y022017D01*
X037700Y022073D01*
X037690Y022130D01*
X037691Y022130D02*
X037691Y022290D01*
X037691Y022130D02*
X037691Y022090D01*
X037691Y025490D02*
X037691Y027890D01*
X052391Y029190D02*
X054791Y029190D01*
X064391Y027590D02*
X064525Y027777D01*
X064650Y027970D01*
X064765Y028168D01*
X064872Y028372D01*
X064969Y028580D01*
X065057Y028793D01*
X065134Y029009D01*
X065202Y029228D01*
X065260Y029451D01*
X065307Y029676D01*
X065344Y029903D01*
X065370Y030131D01*
X065386Y030360D01*
X065391Y030590D01*
X065391Y030591D02*
X065360Y030647D01*
X065325Y030702D01*
X065288Y030755D01*
X065247Y030805D01*
X065204Y030853D01*
X065157Y030898D01*
X065109Y030941D01*
X065057Y030981D01*
X065004Y031017D01*
X064948Y031050D01*
X064891Y031080D01*
X064832Y031107D01*
X064772Y031130D01*
X064710Y031149D01*
X064647Y031165D01*
X064584Y031177D01*
X064519Y031186D01*
X064455Y031190D01*
X064390Y031191D01*
X064391Y031190D02*
X063291Y031190D01*
X055190Y017690D02*
X053939Y017771D01*
X052690Y017890D01*
X052629Y017899D01*
X052569Y017911D01*
X052510Y017927D01*
X052452Y017946D01*
X052395Y017969D01*
X052340Y017996D01*
X052286Y018025D01*
X052234Y018058D01*
X052185Y018094D01*
X052137Y018133D01*
X052092Y018175D01*
X052050Y018219D01*
X052010Y018266D01*
X051973Y018315D01*
X051940Y018366D01*
X051909Y018419D01*
X051882Y018474D01*
X051858Y018531D01*
X051838Y018589D01*
X051821Y018648D01*
X051808Y018707D01*
X051798Y018768D01*
X051792Y018829D01*
X051790Y018890D01*
X051792Y018977D01*
X051797Y019064D01*
X051807Y019151D01*
X051821Y019237D01*
X051839Y019322D01*
X051861Y019407D01*
X051886Y019490D01*
X051916Y019572D01*
X051950Y019653D01*
X051987Y019732D01*
X052028Y019809D01*
X052073Y019884D01*
X052121Y019957D01*
X052172Y020027D01*
X052227Y020095D01*
X052285Y020161D01*
X052346Y020223D01*
X052409Y020283D01*
X052476Y020340D01*
X052545Y020393D01*
X052616Y020443D01*
X052690Y020490D01*
X052691Y020490D02*
X053191Y020790D01*
X059191Y015490D02*
X059257Y015428D01*
X059325Y015368D01*
X059396Y015312D01*
X059469Y015259D01*
X059545Y015210D01*
X059624Y015165D01*
X059704Y015123D01*
X059787Y015086D01*
X059871Y015052D01*
X059956Y015023D01*
X060043Y014998D01*
X060132Y014977D01*
X060221Y014960D01*
X060310Y014948D01*
X060400Y014940D01*
X060491Y014936D01*
X063491Y014890D01*
X063586Y014892D01*
X063681Y014899D01*
X063776Y014910D01*
X063870Y014926D01*
X063963Y014946D01*
X064054Y014971D01*
X064145Y015000D01*
X064234Y015033D01*
X064322Y015071D01*
X064407Y015112D01*
X064491Y015158D01*
X064572Y015207D01*
X064651Y015261D01*
X064727Y015318D01*
X064801Y015379D01*
X064871Y015443D01*
X064938Y015510D01*
X065002Y015580D01*
X065063Y015654D01*
X065120Y015730D01*
X065174Y015809D01*
X065223Y015890D01*
X065269Y015974D01*
X065310Y016059D01*
X065348Y016147D01*
X065381Y016236D01*
X065410Y016327D01*
X065435Y016418D01*
X065455Y016511D01*
X065471Y016605D01*
X065482Y016700D01*
X065489Y016795D01*
X065491Y016890D01*
X065491Y017936D01*
X065491Y020990D01*
X065495Y021182D01*
X065591Y025090D01*
X065590Y025090D02*
X065588Y025234D01*
X065579Y025377D01*
X065564Y025520D01*
X065541Y025661D01*
X065513Y025802D01*
X065477Y025941D01*
X065436Y026079D01*
X065388Y026214D01*
X065333Y026347D01*
X065273Y026477D01*
X065206Y026604D01*
X065134Y026728D01*
X065056Y026848D01*
X064972Y026965D01*
X064883Y027078D01*
X064789Y027186D01*
X064690Y027290D01*
X064691Y027290D02*
X064391Y027590D01*
X057691Y029890D02*
X057420Y029759D01*
X057143Y029641D01*
X056860Y029536D01*
X056574Y029445D01*
X056283Y029367D01*
X055988Y029304D01*
X055691Y029254D01*
X055392Y029219D01*
X055092Y029197D01*
X054791Y029190D01*
X057691Y029889D02*
X058166Y030119D01*
X058651Y030328D01*
X059144Y030515D01*
X059646Y030680D01*
X060154Y030822D01*
X060668Y030942D01*
X061187Y031038D01*
X061710Y031111D01*
X062236Y031161D01*
X062763Y031187D01*
X063291Y031189D01*
X055191Y017691D02*
X055565Y017600D01*
X055935Y017491D01*
X056300Y017364D01*
X056657Y017220D01*
X057008Y017059D01*
X057350Y016881D01*
X057684Y016687D01*
X058007Y016477D01*
X058321Y016252D01*
X058623Y016013D01*
X058913Y015758D01*
X059191Y015491D01*
X040570Y022051D02*
X039930Y021431D01*
D26*
X041700Y022620D02*
X041758Y022631D01*
X041817Y022638D01*
X041876Y022641D01*
X041935Y022640D01*
X041994Y022635D01*
X042053Y022626D01*
X042111Y022614D01*
X042168Y022598D01*
X042224Y022578D01*
X042278Y022554D01*
X042331Y022527D01*
X042381Y022496D01*
X042430Y022463D01*
X042476Y022426D01*
X042520Y022386D01*
X042561Y022343D01*
X042599Y022298D01*
X042634Y022250D01*
X042666Y022200D01*
X042695Y022148D01*
X042720Y022095D01*
X042741Y022039D01*
X042759Y021983D01*
X042773Y021925D01*
X042783Y021867D01*
X042789Y021808D01*
X042792Y021749D01*
X042791Y021690D01*
X042783Y021622D01*
X042779Y021555D01*
X042778Y021487D01*
X042781Y021419D01*
X042788Y021352D01*
X042799Y021285D01*
X042813Y021219D01*
X042831Y021154D01*
X042852Y021089D01*
X042877Y021026D01*
X042905Y020965D01*
X042937Y020905D01*
X042972Y020847D01*
X043010Y020791D01*
X043051Y020737D01*
X043095Y020685D01*
X043142Y020636D01*
X043191Y020590D01*
X045191Y018090D01*
X053549Y014077D02*
X053991Y014190D01*
X054891Y015060D01*
X054891Y013920D02*
X055091Y013163D01*
X055091Y012218D02*
X057321Y010890D01*
X058018Y009190D01*
X058963Y009190D02*
X059991Y008420D01*
X053171Y013000D02*
X053549Y014077D01*
X053171Y013000D02*
X052651Y013000D01*
X050691Y013000D02*
X050691Y013490D01*
X050691Y013504D01*
X050691Y013490D02*
X047791Y013490D01*
X047791Y009490D01*
X047791Y008990D02*
X047778Y008930D01*
X047761Y008872D01*
X047741Y008815D01*
X047717Y008759D01*
X047690Y008705D01*
X047659Y008653D01*
X047626Y008602D01*
X047589Y008554D01*
X047549Y008508D01*
X047507Y008465D01*
X047462Y008424D01*
X047415Y008386D01*
X047365Y008351D01*
X047314Y008319D01*
X047260Y008291D01*
X047205Y008266D01*
X047148Y008244D01*
X047090Y008226D01*
X047032Y008211D01*
X046972Y008200D01*
X046912Y008193D01*
X046851Y008189D01*
X046791Y008190D01*
X037741Y008190D01*
X036591Y008190D01*
X034191Y008190D01*
X032941Y008190D01*
X031891Y008190D01*
X021141Y008190D01*
X018991Y008190D01*
X018991Y008636D01*
X018991Y008190D02*
X014691Y008190D01*
X006891Y008190D01*
X006823Y008192D01*
X006754Y008198D01*
X006686Y008208D01*
X006619Y008221D01*
X006553Y008238D01*
X006488Y008260D01*
X006424Y008284D01*
X006361Y008313D01*
X006301Y008345D01*
X006242Y008380D01*
X006185Y008418D01*
X006131Y008460D01*
X006079Y008505D01*
X006030Y008553D01*
X005983Y008603D01*
X005940Y008656D01*
X005899Y008711D01*
X005862Y008769D01*
X005828Y008828D01*
X005798Y008890D01*
X005771Y008953D01*
X005748Y009017D01*
X005728Y009083D01*
X005712Y009149D01*
X005700Y009217D01*
X005692Y009285D01*
X005688Y009353D01*
X005687Y009422D01*
X005691Y009490D01*
X005691Y018190D01*
X005693Y018240D01*
X005698Y018290D01*
X005707Y018339D01*
X005719Y018387D01*
X005735Y018435D01*
X005754Y018481D01*
X005777Y018525D01*
X005802Y018568D01*
X005831Y018609D01*
X005862Y018648D01*
X005896Y018685D01*
X005933Y018719D01*
X005972Y018750D01*
X006013Y018779D01*
X006056Y018804D01*
X006100Y018827D01*
X006146Y018846D01*
X006194Y018862D01*
X006242Y018874D01*
X006291Y018883D01*
X006341Y018888D01*
X006391Y018890D01*
X008591Y019090D02*
X008991Y018890D01*
X009035Y018866D01*
X009078Y018839D01*
X009118Y018809D01*
X009156Y018777D01*
X009192Y018741D01*
X009226Y018704D01*
X009257Y018664D01*
X009284Y018622D01*
X009309Y018578D01*
X009331Y018533D01*
X009350Y018486D01*
X009365Y018438D01*
X009377Y018390D01*
X009386Y018340D01*
X009391Y018290D01*
X009891Y017190D02*
X009935Y017135D01*
X009981Y017083D01*
X010031Y017033D01*
X010083Y016986D01*
X010137Y016942D01*
X010194Y016900D01*
X010253Y016862D01*
X010314Y016828D01*
X010377Y016797D01*
X010441Y016769D01*
X010507Y016745D01*
X010574Y016724D01*
X010642Y016707D01*
X010711Y016694D01*
X010781Y016685D01*
X010850Y016680D01*
X010921Y016678D01*
X010991Y016680D01*
X011061Y016686D01*
X011130Y016696D01*
X011199Y016710D01*
X011267Y016728D01*
X011334Y016749D01*
X011399Y016774D01*
X011463Y016802D01*
X011526Y016834D01*
X011586Y016869D01*
X011645Y016908D01*
X011701Y016950D01*
X011755Y016994D01*
X011807Y017042D01*
X011856Y017092D01*
X011902Y017145D01*
X011944Y017201D01*
X011984Y017259D01*
X012021Y017318D01*
X012054Y017380D01*
X012084Y017444D01*
X012110Y017509D01*
X012133Y017575D01*
X012152Y017642D01*
X012167Y017711D01*
X012179Y017780D01*
X012187Y017850D01*
X012191Y017920D01*
X012191Y017990D01*
X009891Y017190D02*
X009834Y017250D01*
X009780Y017312D01*
X009730Y017377D01*
X009682Y017444D01*
X009638Y017513D01*
X009597Y017585D01*
X009559Y017658D01*
X009525Y017733D01*
X009495Y017809D01*
X009468Y017887D01*
X009445Y017966D01*
X009426Y018046D01*
X009410Y018127D01*
X009399Y018208D01*
X009391Y018290D01*
X008590Y019090D02*
X008762Y019263D01*
X008924Y019444D01*
X009078Y019633D01*
X009222Y019829D01*
X009357Y020031D01*
X009482Y020240D01*
X009596Y020455D01*
X009699Y020675D01*
X009792Y020900D01*
X009874Y021129D01*
X009945Y021362D01*
X010004Y021598D01*
X010052Y021836D01*
X010088Y022077D01*
X010112Y022319D01*
X010124Y022562D01*
X010125Y022805D01*
X010114Y023048D01*
X010091Y023291D01*
X010091Y023290D02*
X010191Y024090D01*
X010190Y024090D02*
X010177Y024336D01*
X010176Y024582D01*
X010187Y024828D01*
X010210Y025073D01*
X010245Y025317D01*
X010292Y025559D01*
X010350Y025799D01*
X010420Y026035D01*
X010501Y026267D01*
X010594Y026496D01*
X010698Y026719D01*
X010812Y026938D01*
X010937Y027150D01*
X011072Y027356D01*
X011216Y027556D01*
X011371Y027748D01*
X011534Y027932D01*
X011706Y028108D01*
X011887Y028276D01*
X012076Y028434D01*
X012272Y028584D01*
X012475Y028723D01*
X012684Y028853D01*
X012900Y028972D01*
X013121Y029080D01*
X013347Y029178D01*
X013578Y029265D01*
X013813Y029340D01*
X014051Y029404D01*
X014291Y029456D01*
X014534Y029496D01*
X014779Y029525D01*
X015025Y029541D01*
X015271Y029546D01*
X015518Y029539D01*
X015763Y029519D01*
X016008Y029488D01*
X016250Y029445D01*
X016490Y029390D01*
X018091Y029190D02*
X020891Y029190D01*
X024391Y029190D01*
X027891Y029190D01*
X031391Y029190D01*
X034891Y029190D01*
X037091Y029190D01*
X037691Y028590D02*
X037891Y028890D01*
X037911Y028929D01*
X037935Y028966D01*
X037962Y029002D01*
X037991Y029034D01*
X038024Y029064D01*
X038058Y029092D01*
X038095Y029116D01*
X038134Y029137D01*
X038175Y029155D01*
X038216Y029169D01*
X038259Y029180D01*
X038303Y029187D01*
X038347Y029191D01*
X038391Y029190D01*
X041891Y029190D01*
X045391Y029190D01*
X048891Y029190D01*
X052391Y029190D01*
X037691Y028590D02*
X037671Y028645D01*
X037647Y028699D01*
X037621Y028751D01*
X037590Y028801D01*
X037557Y028850D01*
X037521Y028896D01*
X037482Y028940D01*
X037441Y028981D01*
X037397Y029020D01*
X037351Y029056D01*
X037302Y029089D01*
X037252Y029120D01*
X037200Y029146D01*
X037146Y029170D01*
X037091Y029190D01*
X024491Y029190D02*
X024391Y029190D01*
X018091Y029190D02*
X017822Y029196D01*
X017553Y029212D01*
X017285Y029240D01*
X017018Y029279D01*
X016753Y029329D01*
X016491Y029390D01*
X008591Y019090D02*
X008045Y019003D01*
X007496Y018940D01*
X006944Y018903D01*
X006391Y018890D01*
X018991Y009890D02*
X018991Y009344D01*
X020840Y009251D02*
X020861Y008790D01*
X020865Y008742D01*
X020873Y008694D01*
X020884Y008646D01*
X020899Y008600D01*
X020918Y008554D01*
X020940Y008511D01*
X020965Y008469D01*
X020993Y008429D01*
X021024Y008391D01*
X021058Y008355D01*
X021094Y008323D01*
X021132Y008293D01*
X021173Y008266D01*
X021216Y008242D01*
X021260Y008222D01*
X021306Y008204D01*
X021353Y008191D01*
X021401Y008181D01*
X021401Y008180D02*
X021141Y008190D01*
X045191Y018090D02*
X047391Y015090D01*
X047390Y015090D02*
X047456Y014979D01*
X047516Y014865D01*
X047570Y014748D01*
X047619Y014629D01*
X047662Y014508D01*
X047699Y014384D01*
X047731Y014259D01*
X047756Y014133D01*
X047775Y014005D01*
X047788Y013877D01*
X047795Y013748D01*
X047796Y013619D01*
X047790Y013491D01*
X047790Y009490D02*
X047799Y009419D01*
X047805Y009347D01*
X047809Y009276D01*
X047809Y009204D01*
X047805Y009133D01*
X047799Y009061D01*
X047790Y008990D01*
D27*
X049691Y010390D02*
X050196Y009926D01*
X049691Y010391D02*
X049546Y010517D01*
X049396Y010637D01*
X049240Y010749D01*
X049079Y010853D01*
X048913Y010950D01*
X048743Y011039D01*
X048569Y011119D01*
X048391Y011191D01*
X048691Y012990D02*
X049336Y012890D01*
X050045Y012890D02*
X050691Y013000D01*
X052651Y013000D02*
X052651Y013504D01*
X052651Y014008D01*
X052651Y014512D02*
X052651Y014934D01*
X053549Y014786D02*
X053551Y015420D01*
X047791Y013490D02*
X046791Y013490D01*
X031877Y009380D02*
X031891Y008190D01*
X025849Y009311D02*
X025691Y009890D01*
X024491Y009890D02*
X024453Y009316D01*
X023024Y009292D02*
X023091Y009890D01*
X022090Y009791D02*
X022056Y009797D01*
X022022Y009801D01*
X021987Y009800D01*
X021952Y009797D01*
X021918Y009789D01*
X021885Y009779D01*
X021853Y009765D01*
X021823Y009748D01*
X021794Y009727D01*
X021768Y009705D01*
X021744Y009679D01*
X021723Y009652D01*
X021705Y009622D01*
X021690Y009591D01*
X021691Y009590D02*
X021545Y009244D01*
X020840Y009251D01*
X037691Y023690D02*
X037691Y024090D01*
D28*
X038491Y024644D03*
X038891Y024320D03*
X036841Y025000D03*
X037291Y025390D03*
X038491Y025190D03*
X036491Y024390D03*
X036391Y023790D03*
X035091Y023290D03*
X035991Y022390D03*
X036491Y021590D03*
X036191Y020690D03*
X034431Y019900D03*
X035141Y019160D03*
X037391Y018400D03*
X037891Y018390D03*
X037611Y019140D03*
X039971Y019640D03*
X040291Y019170D03*
X039291Y017690D03*
X039991Y017290D03*
X040691Y016990D03*
X041391Y016690D03*
X040391Y016290D03*
X039591Y016690D03*
X038901Y017210D03*
X038491Y017590D03*
X041101Y015860D03*
X041891Y015090D03*
X041491Y014290D03*
X040511Y014380D03*
X039591Y014290D03*
X038661Y014230D03*
X037591Y014390D03*
X036691Y014390D03*
X035791Y014290D03*
X033841Y014650D03*
X031391Y014290D03*
X030021Y014420D03*
X029091Y014740D03*
X029341Y015540D03*
X030391Y015790D03*
X030691Y016390D03*
X030091Y016690D03*
X030791Y016990D03*
X030391Y017390D03*
X030481Y018070D03*
X031791Y016790D03*
X024591Y018390D03*
X032691Y022290D03*
X031991Y022390D03*
X033191Y022990D03*
X038131Y022660D03*
X038931Y022440D03*
X038751Y021910D03*
X039401Y021950D03*
X040011Y022100D03*
X040571Y022050D03*
X042191Y021890D03*
X043291Y022190D03*
X044991Y024290D03*
X043191Y024690D03*
X042691Y024390D03*
X043891Y025090D03*
X044591Y025290D03*
X043011Y026350D03*
X041291Y025320D03*
X040811Y024940D03*
X039081Y023080D03*
X038971Y021020D03*
X038481Y020810D03*
X038731Y020360D03*
X043891Y018490D03*
X045191Y018090D03*
X045891Y015590D03*
X043991Y014890D03*
X042991Y014990D03*
X046791Y013490D03*
X047791Y013490D03*
X048691Y012990D03*
X048291Y012490D03*
X048391Y011190D03*
X050591Y011890D03*
X054311Y012070D03*
X054991Y010190D03*
X047791Y009490D03*
X044521Y011430D03*
X043391Y011410D03*
X042421Y011480D03*
X041451Y011500D03*
X040391Y011490D03*
X039171Y011550D03*
X038031Y011450D03*
X037291Y011590D03*
X035691Y012490D03*
X035041Y011790D03*
X033091Y011590D03*
X030991Y011590D03*
X027861Y011440D03*
X025691Y009890D03*
X024491Y009890D03*
X023091Y009890D03*
X022091Y009790D03*
X018991Y009890D03*
X008591Y018290D03*
X007991Y019790D03*
X032981Y026250D03*
X033771Y026060D03*
X034531Y025770D03*
X035551Y026730D03*
X036091Y026290D03*
X036891Y027290D03*
X038381Y027270D03*
X051691Y024590D03*
X053091Y024590D03*
X051891Y020690D03*
X053291Y020190D03*
X050891Y018990D03*
X055491Y016990D03*
X053551Y015420D03*
X052651Y014934D03*
X049791Y014190D03*
X048291Y014990D03*
X068561Y013960D03*
X068491Y017590D03*
D29*
X041800Y019890D02*
X041490Y020790D01*
X041691Y020790D02*
X043991Y014890D01*
X043391Y015090D02*
X044061Y013650D01*
X044031Y013220D01*
X044071Y012670D01*
X044011Y012170D01*
X046190Y014190D02*
X046102Y014288D01*
X046010Y014383D01*
X045913Y014473D01*
X045813Y014559D01*
X045709Y014641D01*
X045601Y014718D01*
X045490Y014790D01*
X045591Y014390D02*
X044811Y014820D01*
X044361Y015370D02*
X041791Y021090D01*
X041991Y021190D02*
X044591Y015790D01*
X044361Y015370D02*
X044382Y015313D01*
X044406Y015258D01*
X044434Y015204D01*
X044465Y015152D01*
X044499Y015101D01*
X044535Y015053D01*
X044575Y015008D01*
X044618Y014965D01*
X044663Y014924D01*
X044710Y014886D01*
X044759Y014851D01*
X044811Y014820D01*
X043391Y015090D02*
X041801Y019890D01*
X041691Y019590D02*
X042991Y014990D01*
X041891Y015090D02*
X041731Y016780D01*
X041301Y019190D01*
X041091Y019190D02*
X041391Y016690D01*
X042091Y016390D02*
X043011Y013670D01*
X043081Y013160D01*
X043021Y012670D01*
X043071Y012120D01*
X042891Y011390D01*
X043401Y010700D01*
X043361Y010140D01*
X043877Y009380D01*
X042877Y009480D02*
X042411Y010180D01*
X042351Y010650D01*
X041991Y011490D01*
X042011Y012140D01*
X042081Y012730D01*
X042021Y013160D01*
X042071Y013700D01*
X041491Y014290D01*
X041601Y014750D02*
X036981Y018230D01*
X036981Y018231D02*
X036954Y018248D01*
X036928Y018268D01*
X036905Y018291D01*
X036884Y018316D01*
X036866Y018343D01*
X036851Y018372D01*
X036839Y018402D01*
X036830Y018433D01*
X036825Y018465D01*
X036823Y018498D01*
X036824Y018530D01*
X036829Y018562D01*
X036838Y018594D01*
X036849Y018624D01*
X036864Y018653D01*
X036881Y018680D01*
X037065Y018858D01*
X037204Y018719D02*
X037611Y019140D01*
X037721Y018710D02*
X038031Y018860D01*
X038178Y018719D01*
X037891Y018390D02*
X037918Y018363D01*
X037949Y018339D01*
X037981Y018317D01*
X038015Y018298D01*
X038051Y018283D01*
X038088Y018271D01*
X038126Y018262D01*
X038165Y018257D01*
X038204Y018256D01*
X038243Y018258D01*
X038281Y018264D01*
X038319Y018273D01*
X038356Y018286D01*
X038391Y018303D01*
X038425Y018322D01*
X038457Y018344D01*
X038487Y018370D01*
X038514Y018398D01*
X038538Y018428D01*
X038560Y018460D01*
X038561Y018460D02*
X038571Y018481D01*
X038578Y018503D01*
X038581Y018525D01*
X038580Y018548D01*
X038575Y018571D01*
X038567Y018592D01*
X038556Y018612D01*
X038541Y018630D01*
X038318Y018858D01*
X038457Y018997D02*
X038681Y018770D01*
X039101Y019190D02*
X039135Y019153D01*
X039166Y019114D01*
X039195Y019073D01*
X039220Y019029D01*
X039241Y018984D01*
X039259Y018937D01*
X039273Y018889D01*
X039284Y018840D01*
X039291Y018790D01*
X039291Y017690D01*
X036221Y019100D02*
X036148Y018962D01*
X036081Y018820D01*
X035921Y019050D02*
X035931Y019082D01*
X035945Y019113D01*
X035961Y019142D01*
X035980Y019169D01*
X036001Y019195D01*
X036025Y019219D01*
X036051Y019240D01*
X036369Y019554D01*
X036230Y019693D02*
X035871Y019330D01*
X035620Y019370D02*
X035598Y019350D01*
X035578Y019327D01*
X035560Y019303D01*
X035546Y019276D01*
X035534Y019248D01*
X035526Y019220D01*
X035521Y019190D01*
X035520Y019160D01*
X035519Y019131D01*
X035515Y019102D01*
X035507Y019074D01*
X035496Y019047D01*
X035481Y019022D01*
X035463Y018999D01*
X035443Y018978D01*
X035420Y018960D01*
X035531Y018750D02*
X035563Y018776D01*
X035593Y018804D01*
X035621Y018835D01*
X035646Y018868D01*
X035668Y018903D01*
X035687Y018940D01*
X035703Y018979D01*
X035716Y019018D01*
X035725Y019059D01*
X035731Y019100D01*
X035621Y019370D02*
X036090Y019832D01*
X035812Y020111D02*
X036091Y020390D01*
X036191Y020690D01*
X035671Y020800D02*
X035394Y020528D01*
X035255Y020667D02*
X034431Y019900D01*
X036351Y018910D02*
X036322Y018840D01*
X036291Y018770D01*
X036211Y018590D02*
X036197Y018567D01*
X036186Y018543D01*
X036179Y018517D01*
X036175Y018491D01*
X036174Y018464D01*
X036177Y018438D01*
X036183Y018412D01*
X036192Y018387D01*
X036205Y018363D01*
X036220Y018342D01*
X036238Y018322D01*
X036258Y018305D01*
X036281Y018290D01*
X039991Y014490D01*
X039591Y014290D02*
X039991Y013890D01*
X040051Y013610D01*
X040031Y013180D01*
X040061Y012680D01*
X040021Y012160D01*
X039991Y011390D01*
X040331Y010690D01*
X040421Y010180D01*
X040877Y009480D01*
X041361Y010140D02*
X041877Y009380D01*
X041361Y010140D02*
X041401Y010700D01*
X040991Y011390D01*
X041091Y012130D01*
X041011Y012680D01*
X041071Y013130D01*
X041021Y013700D01*
X040511Y014380D01*
X040791Y014590D02*
X036571Y018310D01*
X036571Y018311D02*
X036552Y018333D01*
X036537Y018358D01*
X036524Y018385D01*
X036515Y018412D01*
X036510Y018441D01*
X036508Y018470D01*
X036510Y018499D01*
X036515Y018528D01*
X036524Y018556D01*
X036536Y018582D01*
X036552Y018607D01*
X036570Y018630D01*
X036591Y018650D01*
X036221Y019100D02*
X036241Y019133D01*
X036263Y019165D01*
X036287Y019195D01*
X036313Y019224D01*
X036341Y019250D01*
X035871Y019330D02*
X035845Y019312D01*
X035822Y019292D01*
X035801Y019269D01*
X035782Y019244D01*
X035766Y019218D01*
X035753Y019190D01*
X035742Y019161D01*
X035735Y019131D01*
X035731Y019100D01*
X035920Y019050D02*
X035905Y018990D01*
X035886Y018931D01*
X035864Y018874D01*
X035838Y018818D01*
X035808Y018763D01*
X035776Y018711D01*
X035740Y018660D01*
X035420Y018959D02*
X035384Y018933D01*
X035351Y018903D01*
X035320Y018870D01*
X035292Y018836D01*
X035267Y018799D01*
X035244Y018760D01*
X035226Y018719D01*
X035210Y018677D01*
X035199Y018634D01*
X035190Y018590D01*
X035451Y018370D02*
X036891Y015190D01*
X036691Y014390D02*
X037021Y013690D01*
X037071Y013130D01*
X037031Y012670D01*
X037061Y012200D01*
X036361Y010650D01*
X036401Y010210D01*
X036877Y009481D02*
X036927Y009515D01*
X036975Y009552D01*
X037020Y009592D01*
X037064Y009635D01*
X037104Y009680D01*
X037143Y009727D01*
X037178Y009776D01*
X037211Y009827D01*
X037240Y009880D01*
X037267Y009935D01*
X037290Y009991D01*
X038890Y011190D02*
X038953Y011145D01*
X039013Y011097D01*
X039071Y011046D01*
X039127Y010993D01*
X039180Y010937D01*
X039230Y010878D01*
X039277Y010817D01*
X039321Y010753D01*
X039362Y010688D01*
X039400Y010620D01*
X039401Y010620D02*
X039351Y010140D01*
X038877Y009481D02*
X038823Y009508D01*
X038772Y009539D01*
X038722Y009572D01*
X038674Y009609D01*
X038629Y009649D01*
X038586Y009691D01*
X038546Y009735D01*
X038509Y009782D01*
X038475Y009832D01*
X038443Y009883D01*
X038415Y009936D01*
X038390Y009991D01*
X038391Y009990D02*
X038376Y010021D01*
X038358Y010051D01*
X038336Y010078D01*
X038312Y010103D01*
X038285Y010125D01*
X038257Y010145D01*
X038226Y010161D01*
X038193Y010173D01*
X038160Y010183D01*
X038126Y010188D01*
X038091Y010190D01*
X038052Y010192D01*
X038013Y010198D01*
X037975Y010207D01*
X037938Y010220D01*
X037902Y010237D01*
X037869Y010257D01*
X037837Y010281D01*
X037808Y010307D01*
X037782Y010336D01*
X037758Y010368D01*
X037738Y010401D01*
X037721Y010437D01*
X037708Y010474D01*
X037699Y010512D01*
X037693Y010551D01*
X037691Y010590D01*
X037691Y011490D01*
X038021Y012230D01*
X038071Y012650D01*
X038011Y013170D01*
X038081Y013710D01*
X037591Y014390D01*
X038661Y014230D02*
X039021Y013680D01*
X039091Y013030D01*
X039011Y012720D01*
X039081Y012150D01*
X038791Y011690D01*
X038790Y011690D02*
X038773Y011658D01*
X038758Y011623D01*
X038747Y011587D01*
X038740Y011551D01*
X038736Y011514D01*
X038736Y011476D01*
X038740Y011439D01*
X038747Y011403D01*
X038758Y011367D01*
X038773Y011333D01*
X038790Y011300D01*
X038811Y011269D01*
X038835Y011240D01*
X038862Y011214D01*
X038891Y011190D01*
X039171Y011550D02*
X039391Y011390D01*
X040391Y011490D02*
X040877Y010480D01*
X041877Y010380D02*
X041451Y011500D01*
X042421Y011480D02*
X042877Y010480D01*
X044171Y011190D02*
X044207Y011147D01*
X044241Y011102D01*
X044272Y011054D01*
X044299Y011005D01*
X044323Y010954D01*
X044343Y010901D01*
X044360Y010847D01*
X044373Y010792D01*
X044382Y010736D01*
X044387Y010680D01*
X044389Y010623D01*
X044387Y010567D01*
X044380Y010510D01*
X044877Y010480D02*
X044521Y011430D01*
X035451Y020030D02*
X035023Y019586D01*
X034617Y019121D01*
X034234Y018637D01*
X033876Y018135D01*
X033876Y018134D02*
X033823Y017397D01*
X032973Y017254D01*
X032612Y016892D02*
X031791Y016790D01*
X031920Y017584D01*
X032282Y017945D02*
X032464Y018755D01*
X033375Y018635D01*
X036290Y027090D02*
X035894Y027239D01*
X035491Y027368D01*
X035083Y027478D01*
X034670Y027569D01*
X034252Y027639D01*
X033832Y027690D01*
X033410Y027720D01*
X033181Y027520D02*
X029901Y027540D01*
X029191Y027790D02*
X028891Y028140D01*
X029191Y027791D02*
X029232Y027752D01*
X029274Y027717D01*
X029319Y027684D01*
X029366Y027654D01*
X029415Y027627D01*
X029465Y027604D01*
X029517Y027583D01*
X029570Y027567D01*
X029624Y027553D01*
X029679Y027544D01*
X029734Y027538D01*
X029790Y027535D01*
X029845Y027536D01*
X029901Y027541D01*
X032191Y026930D02*
X026891Y026890D01*
X026891Y027290D02*
X032451Y027320D01*
X032301Y027120D02*
X022991Y027090D01*
X031491Y022990D02*
X031283Y022580D01*
X031058Y022181D01*
X030816Y021791D01*
X030557Y021412D01*
X030282Y021045D01*
X029991Y020690D01*
X030801Y020680D02*
X028391Y017390D01*
X028491Y017190D02*
X030891Y020470D01*
X031031Y020280D02*
X028591Y016990D01*
X028691Y016790D02*
X030791Y019590D01*
X031091Y019690D02*
X028691Y016390D01*
X028891Y016190D02*
X029691Y017390D01*
X030091Y017790D02*
X030481Y018070D01*
X030791Y016990D02*
X031191Y016490D01*
X030091Y017790D02*
X030026Y017741D01*
X029963Y017690D01*
X029903Y017635D01*
X029846Y017578D01*
X029791Y017518D01*
X029740Y017455D01*
X029691Y017390D01*
X027991Y017290D02*
X030801Y020980D01*
X034261Y025551D02*
X034491Y025387D01*
X034713Y025212D01*
X034926Y025026D01*
X035131Y024831D01*
X035131Y024830D02*
X035394Y024565D01*
X035255Y024426D02*
X034831Y024830D01*
X034911Y024490D02*
X035116Y024286D01*
X034977Y024147D02*
X034771Y024350D01*
X034631Y024220D02*
X034838Y024008D01*
X034699Y023869D02*
X034501Y024070D01*
X034559Y023730D02*
X034891Y023390D01*
X035091Y023290D01*
X034651Y023360D02*
X034420Y023590D01*
X034281Y023451D02*
X034041Y023700D01*
X033901Y023550D02*
X034142Y023312D01*
X034003Y023173D02*
X033751Y023410D01*
X033631Y023270D02*
X033863Y023034D01*
X033851Y022711D02*
X033870Y022691D01*
X033892Y022674D01*
X033915Y022660D01*
X033941Y022649D01*
X033968Y022641D01*
X033995Y022638D01*
X034023Y022637D01*
X034050Y022641D01*
X034271Y022610D02*
X034941Y021990D01*
X034791Y021790D02*
X034141Y022430D01*
X034270Y022610D02*
X034245Y022624D01*
X034219Y022635D01*
X034191Y022643D01*
X034163Y022649D01*
X034135Y022651D01*
X034106Y022650D01*
X034078Y022646D01*
X034050Y022640D01*
X034141Y022430D02*
X034107Y022439D01*
X034073Y022445D01*
X034038Y022449D01*
X034004Y022449D01*
X033969Y022445D01*
X033935Y022439D01*
X033901Y022430D01*
X033863Y022059D02*
X033591Y021790D01*
X033490Y020290D02*
X033564Y020280D01*
X033637Y020274D01*
X033711Y020271D01*
X033785Y020272D01*
X033859Y020278D01*
X033932Y020287D01*
X034005Y020300D01*
X034077Y020317D01*
X034148Y020338D01*
X034217Y020362D01*
X034286Y020390D01*
X034353Y020421D01*
X034418Y020456D01*
X034481Y020495D01*
X034542Y020537D01*
X034601Y020581D01*
X034657Y020629D01*
X034710Y020680D01*
X034711Y020680D02*
X034977Y020946D01*
X034838Y021085D02*
X034601Y020840D01*
X036340Y019250D02*
X036426Y019331D01*
X036507Y019415D01*
X036786Y019136D02*
X037001Y019350D01*
X036470Y019100D02*
X036440Y019066D01*
X036413Y019030D01*
X036389Y018992D01*
X036368Y018952D01*
X036350Y018910D01*
X035980Y018600D02*
X035964Y018574D01*
X035950Y018547D01*
X035940Y018518D01*
X035934Y018488D01*
X035931Y018458D01*
X035932Y018428D01*
X035937Y018398D01*
X035945Y018368D01*
X035957Y018340D01*
X035972Y018314D01*
X035990Y018290D01*
X035710Y018320D02*
X035697Y018350D01*
X035687Y018381D01*
X035679Y018413D01*
X035676Y018445D01*
X035675Y018478D01*
X035678Y018510D01*
X035684Y018543D01*
X035694Y018574D01*
X035706Y018604D01*
X035722Y018633D01*
X035740Y018660D01*
X035531Y018750D02*
X035506Y018725D01*
X035484Y018699D01*
X035465Y018670D01*
X035449Y018639D01*
X035437Y018607D01*
X035428Y018573D01*
X035423Y018539D01*
X035421Y018504D01*
X035423Y018470D01*
X035429Y018436D01*
X035438Y018402D01*
X035451Y018370D01*
X039530Y019590D02*
X039616Y019499D01*
X039697Y019404D01*
X039774Y019305D01*
X039846Y019203D01*
X039913Y019097D01*
X039975Y018989D01*
X040032Y018877D01*
X040083Y018763D01*
X040129Y018647D01*
X040169Y018528D01*
X040204Y018408D01*
X040233Y018287D01*
X040256Y018164D01*
X040273Y018040D01*
X040285Y017915D01*
X040290Y017790D01*
X040291Y017790D02*
X040391Y016290D01*
X036211Y018590D02*
X036291Y018770D01*
X039241Y019320D02*
X039295Y019262D01*
X039346Y019201D01*
X039394Y019137D01*
X039438Y019072D01*
X039480Y019004D01*
X039518Y018934D01*
X039552Y018863D01*
X039583Y018790D01*
X039610Y018715D01*
X039634Y018640D01*
X039654Y018563D01*
X039670Y018485D01*
X039682Y018407D01*
X039690Y018328D01*
X039694Y018248D01*
X039695Y018169D01*
X039691Y018090D01*
X039591Y016690D01*
X036647Y019275D02*
X036558Y019189D01*
X036471Y019100D01*
X032390Y015390D02*
X032199Y015524D01*
X032013Y015666D01*
X031835Y015816D01*
X031662Y015974D01*
X031497Y016139D01*
X031340Y016311D01*
X031190Y016490D01*
X030691Y016390D02*
X031991Y015290D01*
X030390Y017390D02*
X030300Y017348D01*
X030212Y017301D01*
X030126Y017251D01*
X030043Y017197D01*
X029962Y017139D01*
X029884Y017077D01*
X029809Y017012D01*
X029737Y016943D01*
X029668Y016871D01*
X029603Y016796D01*
X029541Y016718D01*
X029483Y016637D01*
X029429Y016554D01*
X029379Y016468D01*
X029332Y016380D01*
X029290Y016290D01*
X030391Y015790D02*
X031491Y014890D01*
X031391Y014290D02*
X030791Y014790D01*
X030021Y014420D02*
X030051Y013580D01*
X030031Y013130D01*
X031991Y015290D02*
X032106Y015188D01*
X032215Y015080D01*
X032319Y014968D01*
X032418Y014850D01*
X032511Y014728D01*
X032598Y014602D01*
X032678Y014471D01*
X032752Y014337D01*
X032820Y014199D01*
X032881Y014058D01*
X032935Y013914D01*
X032981Y013768D01*
X033021Y013620D01*
X033091Y013100D01*
X033100Y013048D01*
X033112Y012997D01*
X033128Y012947D01*
X033146Y012897D01*
X033169Y012850D01*
X033194Y012804D01*
X033222Y012759D01*
X033253Y012717D01*
X033287Y012677D01*
X033324Y012639D01*
X033363Y012604D01*
X033404Y012571D01*
X033448Y012541D01*
X033493Y012514D01*
X033540Y012491D01*
X034021Y012200D02*
X034002Y012146D01*
X033979Y012094D01*
X033953Y012043D01*
X033924Y011994D01*
X033891Y011946D01*
X033856Y011901D01*
X033818Y011859D01*
X033777Y011819D01*
X033733Y011781D01*
X033688Y011747D01*
X033640Y011715D01*
X033590Y011687D01*
X033538Y011662D01*
X033485Y011641D01*
X033431Y011623D01*
X033376Y011608D01*
X033319Y011597D01*
X033262Y011590D01*
X033205Y011586D01*
X033148Y011587D01*
X033091Y011590D01*
X032260Y011520D02*
X032341Y010900D01*
X032491Y010990D01*
X032341Y010900D02*
X032191Y010990D01*
X032341Y010900D02*
X032401Y010100D01*
X032191Y009690D02*
X031877Y009380D01*
X023732Y009293D02*
X023730Y009610D01*
X023741Y009926D01*
X023765Y010242D01*
X023803Y010557D01*
X023855Y010870D01*
X023920Y011180D01*
X023999Y011487D01*
X024091Y011790D01*
X022791Y017490D02*
X023048Y017559D01*
X023309Y017616D01*
X023572Y017661D01*
X023836Y017694D01*
X024102Y017715D01*
X024368Y017725D01*
X024635Y017722D01*
X024901Y017707D01*
X025166Y017680D01*
X025429Y017641D01*
X025691Y017590D01*
X027190Y014590D02*
X027331Y014642D01*
X027468Y014700D01*
X027604Y014764D01*
X027736Y014834D01*
X027865Y014909D01*
X027990Y014990D01*
X029091Y014740D02*
X029021Y013630D01*
X029081Y013190D01*
X029087Y013137D01*
X029088Y013084D01*
X029085Y013032D01*
X029079Y012979D01*
X029069Y012927D01*
X029055Y012876D01*
X029037Y012826D01*
X029016Y012778D01*
X028992Y012731D01*
X028964Y012686D01*
X028932Y012644D01*
X028898Y012603D01*
X028861Y012566D01*
X028821Y012531D01*
X028779Y012499D01*
X028735Y012470D01*
X028688Y012445D01*
X028640Y012423D01*
X028591Y012404D01*
X028540Y012390D01*
X028491Y011690D02*
X028430Y011692D01*
X028369Y011698D01*
X028308Y011708D01*
X028248Y011721D01*
X028189Y011738D01*
X028132Y011759D01*
X028075Y011784D01*
X028021Y011812D01*
X027968Y011844D01*
X027918Y011879D01*
X027870Y011917D01*
X027824Y011958D01*
X027781Y012001D01*
X027741Y012048D01*
X027704Y012097D01*
X027670Y012148D01*
X027639Y012201D01*
X027612Y012256D01*
X027589Y012313D01*
X027569Y012371D01*
X027553Y012430D01*
X027540Y012490D01*
X027001Y012680D02*
X026994Y012711D01*
X026990Y012743D01*
X026989Y012775D01*
X026992Y012807D01*
X026997Y012839D01*
X027006Y012870D01*
X027018Y012899D01*
X027033Y012928D01*
X027051Y012955D01*
X027071Y012980D01*
X027539Y013490D01*
X026990Y012080D02*
X026975Y012046D01*
X026956Y012012D01*
X026935Y011981D01*
X026911Y011952D01*
X026885Y011924D01*
X026856Y011900D01*
X026825Y011878D01*
X026792Y011859D01*
X026758Y011842D01*
X026722Y011829D01*
X026685Y011820D01*
X026648Y011813D01*
X026610Y011810D01*
X024891Y011490D02*
X024874Y011559D01*
X024861Y011628D01*
X024852Y011699D01*
X024846Y011769D01*
X024844Y011840D01*
X024846Y011911D01*
X024852Y011981D01*
X024861Y012052D01*
X024874Y012121D01*
X024891Y012190D01*
X026991Y012080D02*
X027010Y012138D01*
X027024Y012197D01*
X027035Y012258D01*
X027042Y012318D01*
X027045Y012379D01*
X027044Y012440D01*
X027039Y012501D01*
X027030Y012562D01*
X027018Y012621D01*
X027001Y012680D01*
X028491Y011690D02*
X030991Y011590D01*
X024891Y011490D02*
X024887Y011228D01*
X024895Y010967D01*
X024915Y010707D01*
X024947Y010447D01*
X024991Y010190D01*
X026191Y010736D02*
X026991Y010736D01*
X027791Y011090D02*
X031791Y011090D01*
X031551Y011520D02*
X031539Y012490D01*
X031071Y013160D02*
X031021Y013690D01*
X032390Y015390D02*
X032494Y015317D01*
X032595Y015238D01*
X032691Y015155D01*
X032784Y015068D01*
X032872Y014976D01*
X032955Y014880D01*
X033034Y014779D01*
X033108Y014676D01*
X033176Y014568D01*
X033239Y014458D01*
X033297Y014344D01*
X033349Y014228D01*
X033396Y014109D01*
X033436Y013989D01*
X033471Y013866D01*
X033500Y013742D01*
X033522Y013617D01*
X033539Y013490D01*
X034061Y013710D02*
X034031Y013180D01*
X034071Y012670D01*
X034021Y012200D01*
X035191Y012290D02*
X035391Y011890D01*
X035291Y011390D01*
X034991Y011070D01*
X034691Y010990D01*
X034391Y010790D01*
X034361Y010570D01*
X034411Y010210D01*
X033877Y009380D01*
X033655Y008670D01*
X034190Y008672D02*
X034191Y008190D01*
X034898Y008672D02*
X034877Y009480D01*
X035361Y010210D01*
X035401Y010600D01*
X035691Y012490D01*
X035491Y012790D02*
X035452Y012764D01*
X035415Y012736D01*
X035380Y012705D01*
X035348Y012671D01*
X035318Y012635D01*
X035292Y012597D01*
X035268Y012557D01*
X035247Y012515D01*
X035229Y012472D01*
X035214Y012428D01*
X035203Y012382D01*
X035195Y012337D01*
X035191Y012290D01*
X035041Y011790D02*
X034645Y011390D01*
X037391Y010990D02*
X037404Y010898D01*
X037412Y010806D01*
X037417Y010714D01*
X037416Y010621D01*
X037412Y010529D01*
X037402Y010437D01*
X037389Y010346D01*
X037371Y010255D01*
X037348Y010165D01*
X037322Y010077D01*
X037291Y009990D01*
X036877Y009480D02*
X037036Y008670D01*
X036591Y008679D02*
X036591Y008190D01*
X035883Y008679D02*
X035877Y009380D01*
X035929Y009401D01*
X035978Y009426D01*
X036026Y009454D01*
X036072Y009485D01*
X036116Y009519D01*
X036157Y009556D01*
X036196Y009596D01*
X036232Y009638D01*
X036264Y009683D01*
X036294Y009730D01*
X036320Y009779D01*
X036343Y009830D01*
X036363Y009882D01*
X036378Y009935D01*
X036390Y009989D01*
X036399Y010044D01*
X036403Y010099D01*
X036404Y010155D01*
X036401Y010210D01*
X037391Y010990D02*
X037291Y011590D01*
X045890Y015590D02*
X045697Y015988D01*
X045487Y016377D01*
X045260Y016757D01*
X045016Y017127D01*
X044757Y017486D01*
X044483Y017833D01*
X044194Y018168D01*
X043890Y018490D01*
X047166Y018117D02*
X047192Y018191D01*
X047215Y018266D01*
X047234Y018342D01*
X047249Y018418D01*
X047260Y018496D01*
X047268Y018574D01*
X047272Y018652D01*
X047271Y018730D01*
X047267Y018808D01*
X047260Y018886D01*
X047248Y018963D01*
X047233Y019040D01*
X047213Y019115D01*
X047190Y019190D01*
X050391Y020890D02*
X050486Y020692D01*
X050572Y020489D01*
X050648Y020283D01*
X050715Y020073D01*
X050770Y019860D01*
X050816Y019645D01*
X050852Y019428D01*
X050877Y019209D01*
X050891Y018990D01*
X052588Y016749D02*
X052455Y016630D01*
X052316Y016517D01*
X052171Y016411D01*
X052022Y016311D01*
X051868Y016219D01*
X051710Y016135D01*
X051548Y016058D01*
X051383Y015989D01*
X051215Y015927D01*
X051043Y015874D01*
X050870Y015829D01*
X050694Y015793D01*
X050518Y015764D01*
X050339Y015744D01*
X050161Y015733D01*
X049981Y015730D01*
X049802Y015736D01*
X049624Y015750D01*
X049446Y015773D01*
X049269Y015804D01*
X049094Y015843D01*
X048922Y015891D01*
X048751Y015947D01*
X048584Y016011D01*
X048420Y016083D01*
X048259Y016162D01*
X048102Y016249D01*
X047950Y016344D01*
X047802Y016445D01*
X047660Y016554D01*
X047522Y016669D01*
X047391Y016790D01*
X044291Y021090D01*
X044001Y020980D02*
X047281Y016510D01*
X046891Y016490D02*
X044191Y020190D01*
X045527Y020632D02*
X045591Y021390D01*
X045391Y026090D02*
X045173Y026085D01*
X044955Y026070D01*
X044738Y026044D01*
X044522Y026009D01*
X044309Y025964D01*
X044097Y025909D01*
X043889Y025844D01*
X043683Y025769D01*
X043482Y025685D01*
X043284Y025592D01*
X043091Y025490D01*
X043011Y026350D02*
X042350Y026125D01*
X042291Y026690D02*
X053091Y026690D01*
X051591Y026890D02*
X042291Y026890D01*
X041991Y027090D02*
X051191Y027090D01*
X050891Y026190D02*
X051339Y025749D01*
X050091Y025190D02*
X050046Y025213D01*
X050003Y025240D01*
X049961Y025269D01*
X049923Y025301D01*
X049886Y025336D01*
X049852Y025374D01*
X049821Y025414D01*
X049793Y025456D01*
X049769Y025500D01*
X049747Y025545D01*
X049729Y025592D01*
X049714Y025641D01*
X049702Y025690D01*
X049695Y025740D01*
X049691Y025790D01*
X049690Y025790D02*
X049686Y025836D01*
X049679Y025881D01*
X049667Y025925D01*
X049651Y025968D01*
X049632Y026009D01*
X049609Y026049D01*
X049583Y026086D01*
X049553Y026121D01*
X049521Y026153D01*
X049486Y026183D01*
X049449Y026209D01*
X049409Y026232D01*
X049368Y026251D01*
X049325Y026267D01*
X049281Y026279D01*
X049236Y026286D01*
X049190Y026290D01*
X049191Y026290D02*
X045291Y026290D01*
X045391Y026090D02*
X048691Y026090D01*
X048191Y025890D02*
X045591Y025890D01*
X045191Y026490D02*
X050191Y026490D01*
X050191Y026489D02*
X050251Y026486D01*
X050310Y026479D01*
X050369Y026468D01*
X050428Y026454D01*
X050485Y026437D01*
X050541Y026417D01*
X050596Y026393D01*
X050650Y026366D01*
X050702Y026337D01*
X050752Y026304D01*
X050801Y026269D01*
X050847Y026230D01*
X050891Y026190D01*
X049491Y025490D02*
X049483Y025540D01*
X049471Y025589D01*
X049456Y025638D01*
X049437Y025685D01*
X049415Y025731D01*
X049390Y025775D01*
X049361Y025817D01*
X049330Y025856D01*
X049295Y025894D01*
X049258Y025928D01*
X049219Y025960D01*
X049177Y025989D01*
X049133Y026015D01*
X049088Y026038D01*
X049041Y026057D01*
X048993Y026073D01*
X048943Y026085D01*
X048893Y026093D01*
X048843Y026098D01*
X048792Y026099D01*
X048741Y026096D01*
X048691Y026090D01*
X048091Y027290D02*
X041591Y027290D01*
X041291Y027490D02*
X045291Y027490D01*
X046291Y027990D02*
X046391Y028140D01*
X046291Y027990D02*
X046253Y027937D01*
X046213Y027886D01*
X046169Y027838D01*
X046123Y027792D01*
X046074Y027749D01*
X046023Y027709D01*
X045970Y027672D01*
X045914Y027638D01*
X045857Y027607D01*
X045798Y027580D01*
X045738Y027556D01*
X045676Y027535D01*
X045613Y027518D01*
X045549Y027505D01*
X045485Y027496D01*
X045420Y027490D01*
X045355Y027488D01*
X045290Y027490D01*
X042891Y028090D02*
X042891Y028140D01*
X038970Y021020D02*
X038661Y021191D01*
X038359Y021375D01*
X038065Y021571D01*
X037780Y021780D01*
X037781Y021780D02*
X037757Y021808D01*
X037736Y021839D01*
X037719Y021872D01*
X037705Y021907D01*
X037695Y021942D01*
X037688Y021979D01*
X037685Y022016D01*
X037686Y022053D01*
X037691Y022090D01*
X037694Y022048D01*
X037693Y022006D01*
X037688Y021965D01*
X037679Y021924D01*
X037666Y021884D01*
X037650Y021846D01*
X037630Y021809D01*
X037607Y021774D01*
X037581Y021741D01*
X037552Y021711D01*
X037521Y021684D01*
X037486Y021659D01*
X037450Y021638D01*
X037412Y021621D01*
X037373Y021607D01*
X037332Y021596D01*
X037291Y021590D01*
X036491Y021590D01*
X036691Y022290D02*
X035991Y022390D01*
X034941Y021990D02*
X034965Y021964D01*
X034987Y021936D01*
X035006Y021906D01*
X035022Y021875D01*
X035035Y021842D01*
X035044Y021807D01*
X035050Y021772D01*
X035053Y021737D01*
X035052Y021702D01*
X035047Y021666D01*
X035039Y021632D01*
X035028Y021598D01*
X035013Y021566D01*
X034995Y021535D01*
X034974Y021507D01*
X034951Y021480D01*
X034699Y021224D01*
X034559Y021363D02*
X034801Y021600D01*
X034815Y021617D01*
X034826Y021635D01*
X034834Y021655D01*
X034838Y021676D01*
X034839Y021698D01*
X034836Y021719D01*
X034829Y021739D01*
X034820Y021759D01*
X034807Y021776D01*
X034791Y021790D01*
X034420Y021503D02*
X034161Y021240D01*
X034011Y021370D02*
X034281Y021642D01*
X034142Y021781D02*
X033901Y021540D01*
X034600Y020840D02*
X034554Y020794D01*
X034505Y020751D01*
X034453Y020711D01*
X034400Y020674D01*
X034344Y020639D01*
X034287Y020608D01*
X034228Y020580D01*
X034168Y020555D01*
X034106Y020534D01*
X034043Y020516D01*
X033980Y020502D01*
X033915Y020491D01*
X033851Y020483D01*
X033786Y020480D01*
X033720Y020479D01*
X033655Y020483D01*
X033590Y020490D01*
X033491Y020290D02*
X032291Y020490D01*
X032790Y021690D02*
X032723Y021728D01*
X032654Y021762D01*
X032583Y021792D01*
X032511Y021819D01*
X032437Y021843D01*
X032363Y021862D01*
X032287Y021878D01*
X032211Y021890D01*
X032134Y021897D01*
X032057Y021901D01*
X031980Y021902D01*
X031903Y021898D01*
X031826Y021890D01*
X031750Y021878D01*
X031675Y021863D01*
X031600Y021844D01*
X031526Y021820D01*
X031454Y021794D01*
X031383Y021763D01*
X031314Y021729D01*
X031247Y021692D01*
X031181Y021651D01*
X031118Y021607D01*
X031057Y021559D01*
X030999Y021509D01*
X030943Y021456D01*
X030890Y021400D01*
X033861Y025580D02*
X034035Y025472D01*
X034205Y025357D01*
X034369Y025235D01*
X034529Y025106D01*
X034683Y024971D01*
X034831Y024830D01*
X034990Y025590D02*
X034946Y025623D01*
X034899Y025654D01*
X034850Y025681D01*
X034800Y025705D01*
X034748Y025726D01*
X034695Y025742D01*
X034641Y025755D01*
X034586Y025764D01*
X034530Y025770D01*
X032891Y020590D02*
X032639Y020634D01*
X032391Y020690D01*
X035601Y027111D02*
X035904Y026984D01*
X036201Y026844D01*
X036491Y026691D01*
X036721Y026300D02*
X036926Y026096D01*
X036786Y025957D02*
X036561Y026180D01*
X036647Y025818D02*
X036991Y025490D01*
X037291Y025390D01*
X036791Y025390D02*
X036508Y025678D01*
X036561Y026181D02*
X036529Y026209D01*
X036495Y026234D01*
X036459Y026256D01*
X036421Y026275D01*
X036382Y026290D01*
X036341Y026302D01*
X036300Y026310D01*
X036258Y026313D01*
X036215Y026314D01*
X036173Y026310D01*
X036131Y026302D01*
X036091Y026291D01*
X036691Y022290D02*
X036857Y022270D01*
X037024Y022258D01*
X037191Y022254D01*
X037358Y022258D01*
X037525Y022270D01*
X037691Y022290D01*
X038131Y022660D02*
X039251Y024160D01*
X039191Y024590D02*
X039570Y024982D01*
X039709Y024843D02*
X039461Y024600D01*
X039741Y024320D02*
X039988Y024565D01*
X039849Y024704D02*
X040061Y024920D01*
X040251Y025220D01*
X040811Y024940D02*
X040791Y024890D01*
X040768Y024842D01*
X040741Y024795D01*
X040713Y024750D01*
X040681Y024707D01*
X040647Y024666D01*
X040610Y024627D01*
X040571Y024590D01*
X040266Y024286D01*
X040127Y024426D02*
X040341Y024640D01*
X040356Y024658D01*
X040369Y024679D01*
X040379Y024701D01*
X040385Y024724D01*
X040387Y024748D01*
X040386Y024772D01*
X040381Y024796D01*
X040372Y024819D01*
X040361Y024840D01*
X040351Y024859D01*
X040343Y024880D01*
X040339Y024901D01*
X040338Y024923D01*
X040340Y024944D01*
X040346Y024965D01*
X040355Y024985D01*
X040367Y025003D01*
X040381Y025020D01*
X039691Y025390D02*
X039726Y025442D01*
X039764Y025491D01*
X039805Y025539D01*
X039849Y025584D01*
X039895Y025627D01*
X039944Y025667D01*
X039994Y025704D01*
X040047Y025738D01*
X040101Y025770D01*
X040157Y025798D01*
X040214Y025823D01*
X040273Y025845D01*
X040333Y025864D01*
X040394Y025879D01*
X040456Y025890D01*
X040518Y025899D01*
X041184Y026141D02*
X041591Y026290D01*
X041590Y026290D02*
X041635Y026309D01*
X041682Y026324D01*
X041730Y026336D01*
X041778Y026344D01*
X041827Y026348D01*
X041876Y026349D01*
X041925Y026346D01*
X041974Y026339D01*
X042022Y026329D01*
X042069Y026315D01*
X042114Y026297D01*
X042159Y026276D01*
X042201Y026252D01*
X042242Y026225D01*
X042281Y026194D01*
X042317Y026161D01*
X042350Y026125D01*
X041091Y027691D02*
X040977Y027688D01*
X040863Y027680D01*
X040749Y027667D01*
X040636Y027649D01*
X040524Y027625D01*
X040414Y027596D01*
X040305Y027562D01*
X040197Y027523D01*
X040092Y027478D01*
X039988Y027430D01*
X039887Y027376D01*
X039789Y027317D01*
X039693Y027255D01*
X039601Y027187D01*
X039512Y027116D01*
X039426Y027040D01*
X039344Y026961D01*
X039265Y026878D01*
X039191Y026791D01*
X039191Y026790D02*
X038641Y026280D01*
X038457Y026096D01*
X038596Y025957D02*
X038791Y026150D01*
X039591Y026890D01*
X038590Y026891D02*
X038608Y026914D01*
X038623Y026940D01*
X038635Y026967D01*
X038642Y026996D01*
X038646Y027025D01*
X038647Y027055D01*
X038643Y027084D01*
X038636Y027113D01*
X038625Y027141D01*
X038611Y027166D01*
X038593Y027190D01*
X038573Y027212D01*
X038550Y027230D01*
X038524Y027246D01*
X038497Y027258D01*
X038469Y027267D01*
X038440Y027272D01*
X038410Y027273D01*
X038381Y027270D01*
X039391Y027990D02*
X039391Y028140D01*
X041091Y027690D02*
X042391Y027690D01*
X042429Y027683D01*
X042468Y027680D01*
X042506Y027681D01*
X042545Y027685D01*
X042583Y027693D01*
X042620Y027704D01*
X042655Y027719D01*
X042689Y027737D01*
X042722Y027758D01*
X042752Y027782D01*
X042780Y027809D01*
X042805Y027839D01*
X042827Y027870D01*
X042846Y027904D01*
X042862Y027939D01*
X042875Y027976D01*
X042884Y028013D01*
X042889Y028051D01*
X042891Y028090D01*
X039391Y026410D02*
X038941Y026020D01*
X038735Y025818D01*
X038491Y025191D02*
X038536Y025151D01*
X038583Y025114D01*
X038633Y025079D01*
X038684Y025047D01*
X038736Y025017D01*
X038790Y024991D01*
X038791Y024690D02*
X038827Y024687D01*
X038863Y024688D01*
X038899Y024692D01*
X038934Y024700D01*
X038969Y024712D01*
X039002Y024727D01*
X039033Y024745D01*
X039063Y024766D01*
X039090Y024790D01*
X039091Y024790D02*
X039431Y025122D01*
X039292Y025261D02*
X039071Y025040D01*
X039071Y025041D02*
X039048Y025021D01*
X039023Y025004D01*
X038996Y024990D01*
X038968Y024979D01*
X038939Y024972D01*
X038909Y024968D01*
X038879Y024969D01*
X038849Y024972D01*
X038819Y024980D01*
X038791Y024991D01*
X038491Y024644D02*
X037691Y024090D01*
X037691Y023690D02*
X036391Y023790D01*
X036091Y024390D01*
X035673Y024843D01*
X035534Y024704D02*
X035301Y024940D01*
X036290Y027090D02*
X036396Y027040D01*
X036499Y026984D01*
X036599Y026923D01*
X036697Y026858D01*
X036790Y026788D01*
X036881Y026713D01*
X036968Y026635D01*
X037050Y026552D01*
X037129Y026465D01*
X037204Y026374D01*
X036090Y025261D02*
X035861Y025500D01*
X035721Y025360D02*
X035951Y025122D01*
X037064Y026235D02*
X037017Y026292D01*
X036967Y026346D01*
X036915Y026398D01*
X036860Y026448D01*
X036803Y026495D01*
X036744Y026540D01*
X036683Y026582D01*
X036621Y026621D01*
X036556Y026657D01*
X036490Y026690D01*
X036891Y027290D02*
X035891Y028140D01*
X038318Y026235D02*
X038434Y026351D01*
X038545Y026472D01*
X038651Y026598D01*
X038751Y026729D01*
X038845Y026863D01*
X038933Y027002D01*
X039015Y027144D01*
X039091Y027290D01*
X038591Y026890D02*
X038542Y026808D01*
X038491Y026729D01*
X038435Y026652D01*
X038376Y026578D01*
X038313Y026507D01*
X038247Y026439D01*
X038178Y026374D01*
X036791Y025390D02*
X036841Y025000D01*
X036491Y024390D02*
X035991Y024790D01*
X035812Y024982D01*
X036721Y026300D02*
X036660Y026351D01*
X036597Y026400D01*
X036531Y026445D01*
X036464Y026488D01*
X036395Y026527D01*
X036323Y026563D01*
X036251Y026596D01*
X036177Y026625D01*
X036101Y026651D01*
X036024Y026673D01*
X035947Y026692D01*
X035869Y026707D01*
X035790Y026718D01*
X035710Y026726D01*
X035631Y026729D01*
X035551Y026730D01*
X034261Y025551D02*
X034201Y025589D01*
X034143Y025631D01*
X034087Y025676D01*
X034034Y025723D01*
X033983Y025774D01*
X033935Y025826D01*
X033889Y025882D01*
X033847Y025939D01*
X033807Y025999D01*
X033771Y026061D01*
X039081Y023080D02*
X039235Y023316D01*
X039378Y023558D01*
X039510Y023807D01*
X039631Y024061D01*
X039741Y024320D01*
X039460Y024600D02*
X039426Y024557D01*
X039394Y024513D01*
X039365Y024466D01*
X039338Y024418D01*
X039315Y024369D01*
X039294Y024318D01*
X039276Y024266D01*
X039262Y024214D01*
X039250Y024160D01*
X039152Y025400D02*
X039203Y025459D01*
X039256Y025515D01*
X039312Y025569D01*
X039370Y025620D01*
X040730Y025301D02*
X040769Y025324D01*
X040810Y025344D01*
X040852Y025361D01*
X040896Y025374D01*
X040940Y025383D01*
X040985Y025388D01*
X041030Y025390D01*
X041076Y025388D01*
X041121Y025382D01*
X041165Y025372D01*
X041208Y025359D01*
X041250Y025341D01*
X041291Y025321D01*
X041291Y027490D02*
X041160Y027487D01*
X041029Y027477D01*
X040899Y027461D01*
X040769Y027439D01*
X040641Y027411D01*
X040515Y027376D01*
X040390Y027336D01*
X040267Y027289D01*
X040147Y027236D01*
X040029Y027178D01*
X039915Y027114D01*
X039803Y027045D01*
X039695Y026970D01*
X039591Y026890D01*
X039091Y027290D02*
X039148Y027384D01*
X039200Y027479D01*
X039248Y027578D01*
X039291Y027678D01*
X039329Y027781D01*
X039362Y027885D01*
X039391Y027990D01*
X033861Y025580D02*
X033702Y025675D01*
X033548Y025778D01*
X033399Y025886D01*
X033254Y026002D01*
X033115Y026123D01*
X032981Y026250D01*
X032561Y026700D02*
X027291Y026690D01*
X027591Y026290D02*
X030591Y026290D01*
X030291Y026090D02*
X027591Y026090D01*
X028091Y025890D02*
X030291Y025890D01*
X030091Y025690D02*
X028191Y025690D01*
X028091Y025890D02*
X028040Y025891D01*
X027990Y025888D01*
X027940Y025881D01*
X027891Y025871D01*
X027843Y025857D01*
X027796Y025839D01*
X027750Y025817D01*
X027707Y025792D01*
X027665Y025764D01*
X027626Y025732D01*
X027590Y025697D01*
X027556Y025660D01*
X027525Y025621D01*
X027497Y025578D01*
X027473Y025534D01*
X027452Y025489D01*
X027435Y025441D01*
X027421Y025393D01*
X027412Y025343D01*
X027406Y025294D01*
X027404Y025243D01*
X027406Y025193D01*
X027412Y025143D01*
X027422Y025094D01*
X027435Y025045D01*
X027453Y024998D01*
X027474Y024952D01*
X027498Y024908D01*
X027526Y024866D01*
X027557Y024827D01*
X027591Y024789D01*
X027791Y024890D02*
X027764Y024923D01*
X027739Y024958D01*
X027718Y024995D01*
X027700Y025034D01*
X027686Y025074D01*
X027675Y025116D01*
X027668Y025158D01*
X027665Y025200D01*
X027666Y025243D01*
X027670Y025286D01*
X027679Y025328D01*
X027691Y025369D01*
X027706Y025408D01*
X027725Y025447D01*
X027748Y025483D01*
X027774Y025517D01*
X027802Y025549D01*
X027833Y025578D01*
X027867Y025604D01*
X027903Y025627D01*
X027941Y025647D01*
X027981Y025664D01*
X028021Y025676D01*
X028063Y025685D01*
X028106Y025691D01*
X028148Y025692D01*
X028191Y025690D01*
X027590Y026090D02*
X027545Y026091D01*
X027500Y026089D01*
X027454Y026083D01*
X027410Y026073D01*
X027367Y026060D01*
X027324Y026044D01*
X027284Y026024D01*
X027244Y026001D01*
X027207Y025975D01*
X027172Y025946D01*
X027140Y025914D01*
X027110Y025880D01*
X027083Y025843D01*
X027060Y025804D01*
X027039Y025764D01*
X027021Y025722D01*
X027008Y025679D01*
X026997Y025635D01*
X026990Y025590D01*
X025890Y025590D02*
X025882Y025655D01*
X025878Y025720D01*
X025877Y025785D01*
X025880Y025851D01*
X025887Y025916D01*
X025898Y025981D01*
X025913Y026044D01*
X025931Y026107D01*
X025952Y026169D01*
X025978Y026230D01*
X026006Y026288D01*
X026038Y026346D01*
X026074Y026401D01*
X026112Y026454D01*
X026153Y026505D01*
X026198Y026553D01*
X026245Y026598D01*
X026294Y026641D01*
X026346Y026681D01*
X026400Y026718D01*
X026456Y026752D01*
X026514Y026782D01*
X026574Y026809D01*
X026635Y026832D01*
X026698Y026852D01*
X026761Y026868D01*
X026825Y026881D01*
X026890Y026890D01*
X025791Y024689D02*
X025661Y024654D01*
X025529Y024625D01*
X025397Y024602D01*
X025263Y024585D01*
X025129Y024573D01*
X024994Y024568D01*
X024859Y024569D01*
X024725Y024576D01*
X024591Y024589D01*
X025091Y024890D02*
X025291Y024890D01*
X025791Y024690D02*
X025840Y024706D01*
X025887Y024726D01*
X025933Y024749D01*
X025978Y024776D01*
X026020Y024806D01*
X026060Y024838D01*
X026097Y024874D01*
X026132Y024912D01*
X026164Y024952D01*
X026193Y024995D01*
X026219Y025040D01*
X026241Y025086D01*
X026260Y025134D01*
X026276Y025184D01*
X026287Y025234D01*
X026296Y025285D01*
X026300Y025336D01*
X026301Y025388D01*
X026298Y025439D01*
X026291Y025490D01*
X027590Y023590D02*
X027518Y023536D01*
X027443Y023485D01*
X027366Y023438D01*
X027287Y023394D01*
X027206Y023353D01*
X027123Y023317D01*
X027039Y023284D01*
X026954Y023255D01*
X026867Y023229D01*
X026779Y023208D01*
X026690Y023190D01*
X027691Y023390D02*
X027645Y023355D01*
X027602Y023318D01*
X027561Y023278D01*
X027523Y023235D01*
X027488Y023189D01*
X027456Y023141D01*
X027428Y023092D01*
X027403Y023040D01*
X027382Y022987D01*
X027364Y022933D01*
X027350Y022877D01*
X027340Y022821D01*
X027333Y022764D01*
X027331Y022706D01*
X027332Y022649D01*
X027338Y022592D01*
X027347Y022536D01*
X027360Y022480D01*
X027377Y022425D01*
X027397Y022371D01*
X027421Y022319D01*
X027449Y022269D01*
X027480Y022221D01*
X027514Y022175D01*
X027551Y022131D01*
X027591Y022090D01*
X028152Y021552D01*
X027891Y018690D02*
X027803Y018600D01*
X027712Y018514D01*
X027616Y018432D01*
X027517Y018356D01*
X027414Y018284D01*
X027307Y018217D01*
X027198Y018155D01*
X027085Y018098D01*
X026970Y018047D01*
X026853Y018002D01*
X026734Y017962D01*
X026613Y017928D01*
X026490Y017900D01*
X026367Y017878D01*
X026242Y017862D01*
X026117Y017851D01*
X025991Y017847D01*
X025865Y017849D01*
X025740Y017857D01*
X025615Y017871D01*
X025491Y017890D01*
X027391Y014990D02*
X027530Y015047D01*
X027666Y015110D01*
X027798Y015180D01*
X027928Y015257D01*
X028053Y015339D01*
X028175Y015427D01*
X028292Y015521D01*
X028405Y015620D01*
X028513Y015724D01*
X028615Y015834D01*
X028713Y015948D01*
X028805Y016067D01*
X028891Y016190D01*
X029341Y015540D02*
X029607Y014865D01*
X030491Y014491D02*
X030545Y014460D01*
X030597Y014425D01*
X030647Y014387D01*
X030695Y014347D01*
X030739Y014303D01*
X030781Y014257D01*
X030821Y014208D01*
X030857Y014157D01*
X030890Y014104D01*
X030919Y014049D01*
X030945Y013992D01*
X030968Y013934D01*
X030987Y013875D01*
X031002Y013814D01*
X031014Y013753D01*
X031022Y013691D01*
X031071Y013160D02*
X031079Y013104D01*
X031092Y013049D01*
X031108Y012994D01*
X031127Y012941D01*
X031150Y012889D01*
X031176Y012839D01*
X031206Y012790D01*
X031238Y012744D01*
X031274Y012700D01*
X031312Y012658D01*
X031353Y012619D01*
X031396Y012582D01*
X031442Y012548D01*
X031490Y012518D01*
X031540Y012490D01*
X030539Y012390D02*
X030489Y012409D01*
X030440Y012431D01*
X030393Y012457D01*
X030348Y012486D01*
X030305Y012518D01*
X030265Y012553D01*
X030227Y012591D01*
X030192Y012632D01*
X030160Y012675D01*
X030131Y012720D01*
X030106Y012767D01*
X030084Y012816D01*
X030066Y012866D01*
X030051Y012918D01*
X030040Y012970D01*
X030033Y013023D01*
X030029Y013077D01*
X030030Y013130D01*
X031491Y014891D02*
X031608Y014790D01*
X031721Y014684D01*
X031828Y014573D01*
X031931Y014458D01*
X032028Y014338D01*
X032119Y014213D01*
X032205Y014085D01*
X032284Y013952D01*
X032358Y013816D01*
X032425Y013677D01*
X032486Y013535D01*
X032540Y013391D01*
X034061Y013710D02*
X033841Y014650D01*
X026557Y009310D02*
X026302Y009664D01*
X026064Y010029D01*
X025844Y010406D01*
X025641Y010792D01*
X025456Y011187D01*
X025290Y011590D01*
X025491Y017890D02*
X025171Y017949D01*
X024848Y017994D01*
X024524Y018022D01*
X024199Y018035D01*
X023873Y018032D01*
X023548Y018014D01*
X023224Y017980D01*
X022902Y017930D01*
X022583Y017865D01*
X022268Y017785D01*
X021956Y017690D01*
X021650Y017580D01*
X021349Y017455D01*
X021055Y017315D01*
X020768Y017162D01*
X020488Y016995D01*
X020217Y016815D01*
X019955Y016622D01*
X019702Y016417D01*
X019459Y016199D01*
X019228Y015971D01*
X019007Y015731D01*
X018799Y015481D01*
X018602Y015221D01*
X018419Y014953D01*
X018248Y014675D01*
X018091Y014390D01*
X018290Y013790D02*
X018243Y013676D01*
X018190Y013564D01*
X018132Y013454D01*
X018069Y013348D01*
X018000Y013244D01*
X017927Y013144D01*
X017850Y013048D01*
X017767Y012955D01*
X017681Y012866D01*
X017590Y012782D01*
X017495Y012702D01*
X017397Y012627D01*
X017295Y012556D01*
X017190Y012491D01*
X015191Y013990D02*
X014691Y014390D01*
X022254Y009245D02*
X022493Y009581D01*
X022717Y009927D01*
X022925Y010283D01*
X023117Y010648D01*
X023292Y011022D01*
X023450Y011403D01*
X023591Y011790D01*
X018291Y013790D02*
X018394Y014047D01*
X018510Y014299D01*
X018637Y014546D01*
X018777Y014786D01*
X018927Y015019D01*
X019088Y015244D01*
X019260Y015462D01*
X019442Y015671D01*
X019634Y015871D01*
X019835Y016062D01*
X020045Y016244D01*
X020263Y016414D01*
X020489Y016575D01*
X020723Y016724D01*
X020963Y016862D01*
X021210Y016989D01*
X021463Y017103D01*
X021720Y017206D01*
X021983Y017296D01*
X022249Y017373D01*
X022519Y017438D01*
X022791Y017490D01*
X027190Y015190D02*
X027351Y015264D01*
X027508Y015345D01*
X027660Y015435D01*
X027808Y015531D01*
X027951Y015635D01*
X028089Y015745D01*
X028222Y015862D01*
X028348Y015985D01*
X028469Y016115D01*
X028583Y016249D01*
X028690Y016390D01*
X029291Y016290D02*
X029248Y016198D01*
X029201Y016109D01*
X029150Y016022D01*
X029095Y015937D01*
X029037Y015855D01*
X028974Y015776D01*
X028909Y015700D01*
X028839Y015626D01*
X028767Y015556D01*
X028691Y015490D01*
X030091Y016690D02*
X030043Y016632D01*
X029998Y016571D01*
X029956Y016508D01*
X029918Y016443D01*
X029883Y016376D01*
X029852Y016307D01*
X029824Y016237D01*
X029801Y016166D01*
X029781Y016093D01*
X029765Y016019D01*
X029752Y015945D01*
X029744Y015870D01*
X029740Y015794D01*
X029739Y015719D01*
X029743Y015644D01*
X029751Y015569D01*
X029762Y015494D01*
X029778Y015420D01*
X029797Y015347D01*
X029820Y015275D01*
X029847Y015205D01*
X029877Y015136D01*
X029912Y015069D01*
X029949Y015003D01*
X029990Y014940D01*
X030035Y014879D01*
X030082Y014820D01*
X030133Y014764D01*
X030186Y014711D01*
X030242Y014661D01*
X030301Y014613D01*
X030362Y014569D01*
X030425Y014528D01*
X030491Y014491D01*
X033090Y011190D02*
X033234Y011208D01*
X033378Y011232D01*
X033520Y011263D01*
X033660Y011299D01*
X033799Y011342D01*
X033936Y011390D01*
X032190Y010990D02*
X032144Y011015D01*
X032097Y011037D01*
X032048Y011055D01*
X031998Y011070D01*
X031947Y011081D01*
X031895Y011088D01*
X031843Y011091D01*
X031790Y011090D01*
X032401Y010100D02*
X032396Y010053D01*
X032387Y010006D01*
X032375Y009960D01*
X032358Y009916D01*
X032339Y009873D01*
X032315Y009832D01*
X032289Y009793D01*
X032259Y009756D01*
X032226Y009721D01*
X032191Y009690D01*
X032491Y010990D02*
X032552Y011025D01*
X032616Y011057D01*
X032680Y011086D01*
X032746Y011112D01*
X032814Y011134D01*
X032882Y011153D01*
X032951Y011169D01*
X033021Y011181D01*
X033091Y011190D01*
X035791Y013020D02*
X036011Y013230D01*
X036071Y013630D01*
X035791Y014290D01*
X035791Y013021D02*
X035735Y012970D01*
X035677Y012921D01*
X035617Y012875D01*
X035555Y012831D01*
X035491Y012791D01*
X039990Y014490D02*
X040068Y014393D01*
X040140Y014293D01*
X040208Y014189D01*
X040271Y014082D01*
X040329Y013972D01*
X040382Y013860D01*
X040429Y013746D01*
X040471Y013629D01*
X040508Y013511D01*
X040539Y013390D01*
X041540Y013491D02*
X041480Y013627D01*
X041414Y013761D01*
X041342Y013891D01*
X041264Y014018D01*
X041180Y014141D01*
X041091Y014260D01*
X040996Y014375D01*
X040896Y014485D01*
X040791Y014591D01*
X041101Y015860D02*
X040891Y019190D01*
X040591Y018790D02*
X040691Y016990D01*
X039991Y017290D02*
X039991Y018090D01*
X038791Y018490D02*
X038491Y017590D01*
X036081Y018820D02*
X036028Y018711D01*
X035981Y018600D01*
X039370Y019470D02*
X039441Y019395D01*
X039507Y019317D01*
X039570Y019235D01*
X039629Y019151D01*
X039684Y019063D01*
X039735Y018974D01*
X039781Y018882D01*
X039824Y018788D01*
X039861Y018692D01*
X039895Y018595D01*
X039923Y018496D01*
X039947Y018396D01*
X039966Y018295D01*
X039981Y018193D01*
X039991Y018090D01*
X039051Y018800D02*
X039055Y018833D01*
X039054Y018865D01*
X039050Y018897D01*
X039042Y018929D01*
X039031Y018959D01*
X039015Y018988D01*
X038997Y019015D01*
X038975Y019039D01*
X038951Y019061D01*
X038951Y019060D02*
X038735Y019275D01*
X038874Y019415D02*
X039101Y019190D01*
X040370Y020421D02*
X040429Y020358D01*
X040485Y020293D01*
X040537Y020226D01*
X040586Y020156D01*
X040632Y020084D01*
X040674Y020009D01*
X040713Y019933D01*
X040748Y019855D01*
X040779Y019776D01*
X040807Y019695D01*
X040831Y019613D01*
X040851Y019530D01*
X040867Y019446D01*
X040879Y019361D01*
X040887Y019276D01*
X040891Y019190D01*
X041501Y019340D02*
X042091Y016390D01*
X036751Y018820D02*
X036669Y018737D01*
X036591Y018650D01*
X038681Y018770D02*
X038706Y018741D01*
X038729Y018710D01*
X038749Y018676D01*
X038764Y018641D01*
X038777Y018604D01*
X038785Y018567D01*
X038790Y018528D01*
X038791Y018490D01*
X041690Y019590D02*
X041659Y019721D01*
X041622Y019849D01*
X041578Y019976D01*
X041529Y020100D01*
X041473Y020222D01*
X041412Y020341D01*
X041345Y020457D01*
X041272Y020569D01*
X041194Y020678D01*
X041111Y020783D01*
X041023Y020884D01*
X040930Y020980D01*
X040931Y020980D02*
X040684Y021224D01*
X040545Y021085D02*
X040791Y020840D01*
X040631Y020720D02*
X040405Y020946D01*
X040266Y020807D02*
X040501Y020570D01*
X041340Y021400D02*
X041389Y021348D01*
X041435Y021294D01*
X041478Y021237D01*
X041518Y021179D01*
X041555Y021118D01*
X041589Y021055D01*
X041619Y020991D01*
X041646Y020925D01*
X041670Y020858D01*
X041690Y020790D01*
X041201Y021260D02*
X040962Y021503D01*
X043991Y022891D02*
X043926Y023031D01*
X043854Y023169D01*
X043776Y023303D01*
X043692Y023433D01*
X043602Y023559D01*
X043506Y023681D01*
X043404Y023798D01*
X043298Y023910D01*
X043186Y024017D01*
X043069Y024119D01*
X042947Y024216D01*
X042821Y024306D01*
X042691Y024391D01*
X043191Y024690D02*
X043591Y024290D01*
X045191Y024890D02*
X045232Y024860D01*
X045271Y024828D01*
X045308Y024793D01*
X045343Y024755D01*
X045375Y024716D01*
X045404Y024674D01*
X045430Y024630D01*
X045453Y024585D01*
X045474Y024538D01*
X045491Y024490D01*
X045191Y024890D02*
X044591Y025290D01*
X041590Y027290D02*
X041439Y027287D01*
X041287Y027278D01*
X041136Y027260D01*
X040986Y027236D01*
X040838Y027204D01*
X040691Y027165D01*
X040546Y027119D01*
X040404Y027066D01*
X040264Y027006D01*
X040128Y026940D01*
X039995Y026867D01*
X039865Y026787D01*
X039740Y026702D01*
X039619Y026610D01*
X039502Y026513D01*
X039390Y026410D01*
X035300Y024940D02*
X035277Y024966D01*
X035256Y024994D01*
X035238Y025023D01*
X035222Y025055D01*
X035210Y025087D01*
X035200Y025121D01*
X035194Y025155D01*
X035190Y025190D01*
X035186Y025236D01*
X035178Y025281D01*
X035166Y025325D01*
X035151Y025369D01*
X035132Y025411D01*
X035110Y025451D01*
X035085Y025489D01*
X035056Y025525D01*
X035025Y025559D01*
X034990Y025590D01*
X034781Y023060D02*
X034837Y023004D01*
X034895Y022950D01*
X034955Y022899D01*
X035018Y022851D01*
X035084Y022806D01*
X035151Y022764D01*
X035220Y022726D01*
X035291Y022690D01*
X034003Y021920D02*
X033741Y021660D01*
X033901Y022431D02*
X033850Y022461D01*
X033796Y022489D01*
X033741Y022513D01*
X033685Y022533D01*
X033628Y022550D01*
X033569Y022564D01*
X033510Y022573D01*
X033450Y022580D01*
X033391Y022582D01*
X033331Y022581D01*
X033271Y022576D01*
X033212Y022567D01*
X033153Y022554D01*
X033095Y022538D01*
X033039Y022519D01*
X032983Y022496D01*
X032930Y022470D01*
X032878Y022440D01*
X032827Y022407D01*
X032779Y022371D01*
X032734Y022332D01*
X032691Y022291D01*
X031291Y023190D02*
X031332Y023259D01*
X031377Y023325D01*
X031424Y023390D01*
X031475Y023452D01*
X031529Y023511D01*
X031585Y023568D01*
X031644Y023622D01*
X031706Y023673D01*
X031770Y023721D01*
X031836Y023766D01*
X031905Y023807D01*
X031975Y023845D01*
X032047Y023880D01*
X032121Y023912D01*
X032196Y023939D01*
X032272Y023964D01*
X032350Y023984D01*
X032428Y024001D01*
X032507Y024013D01*
X032587Y024022D01*
X032666Y024028D01*
X032747Y024029D01*
X032827Y024026D01*
X032906Y024020D01*
X032986Y024010D01*
X033065Y023996D01*
X033143Y023978D01*
X033220Y023956D01*
X033296Y023931D01*
X033370Y023902D01*
X033444Y023870D01*
X033515Y023834D01*
X033585Y023795D01*
X033653Y023752D01*
X033718Y023706D01*
X033782Y023657D01*
X033842Y023605D01*
X033901Y023550D01*
X049591Y024190D02*
X049556Y024841D01*
X049491Y025490D01*
X049291Y024790D02*
X049292Y024853D01*
X049290Y024916D01*
X049283Y024978D01*
X049274Y025040D01*
X049260Y025101D01*
X049243Y025161D01*
X049222Y025220D01*
X049198Y025278D01*
X049170Y025334D01*
X049139Y025389D01*
X049105Y025441D01*
X049068Y025491D01*
X049028Y025539D01*
X048985Y025585D01*
X048939Y025628D01*
X048891Y025668D01*
X048841Y025705D01*
X048789Y025739D01*
X048734Y025770D01*
X048678Y025798D01*
X048620Y025822D01*
X048561Y025843D01*
X048501Y025860D01*
X048440Y025874D01*
X048378Y025883D01*
X048316Y025890D01*
X048253Y025892D01*
X048190Y025891D01*
X051091Y024790D02*
X051691Y024590D01*
X053091Y026690D02*
X053155Y026687D01*
X053219Y026681D01*
X053283Y026672D01*
X053346Y026659D01*
X053408Y026642D01*
X053469Y026622D01*
X053529Y026599D01*
X053587Y026572D01*
X053644Y026542D01*
X053700Y026509D01*
X053753Y026473D01*
X053804Y026434D01*
X053853Y026392D01*
X053899Y026347D01*
X053943Y026300D01*
X053984Y026251D01*
X054023Y026199D01*
X054058Y026146D01*
X054091Y026090D01*
X054140Y026006D01*
X054193Y025923D01*
X054250Y025844D01*
X054311Y025767D01*
X054375Y025693D01*
X054443Y025622D01*
X054514Y025555D01*
X054588Y025491D01*
X054666Y025431D01*
X054746Y025375D01*
X054829Y025323D01*
X054914Y025274D01*
X055001Y025230D01*
X055091Y025190D01*
X056191Y025090D02*
X060391Y026590D01*
X058090Y011991D02*
X058860Y011889D01*
X059633Y011825D01*
X060408Y011799D01*
X061184Y011810D01*
X061958Y011860D01*
X062729Y011947D01*
X063495Y012072D01*
X064254Y012234D01*
X065004Y012433D01*
X065743Y012668D01*
X066470Y012939D01*
X067183Y013246D01*
X067881Y013586D01*
X068560Y013961D01*
X068491Y017590D02*
X068491Y021090D01*
X068491Y025390D01*
X035190Y018590D02*
X035445Y017270D01*
X035756Y015962D01*
X036120Y014668D01*
X036539Y013391D01*
X041600Y014751D02*
X041722Y014636D01*
X041838Y014517D01*
X041948Y014391D01*
X042052Y014261D01*
X042150Y014126D01*
X042242Y013987D01*
X042326Y013843D01*
X042404Y013696D01*
X042475Y013545D01*
X042539Y013391D01*
X045591Y014390D02*
X045651Y014352D01*
X045710Y014311D01*
X045766Y014267D01*
X045820Y014220D01*
X045872Y014171D01*
X045921Y014119D01*
X045968Y014065D01*
X046012Y014009D01*
X046053Y013950D01*
X046091Y013890D01*
X046421Y013720D02*
X046421Y011990D01*
X046191Y012090D02*
X046191Y013490D01*
X046190Y013490D02*
X046191Y013543D01*
X046188Y013595D01*
X046181Y013647D01*
X046170Y013698D01*
X046155Y013748D01*
X046137Y013797D01*
X046115Y013844D01*
X046090Y013890D01*
X046191Y014190D02*
X046227Y014144D01*
X046261Y014097D01*
X046293Y014047D01*
X046321Y013996D01*
X046347Y013943D01*
X046370Y013889D01*
X046390Y013834D01*
X046407Y013777D01*
X046421Y013720D01*
X048291Y012490D02*
X048791Y011990D01*
X040620Y024361D02*
X041163Y024778D01*
X041723Y025173D01*
X042299Y025544D01*
X042890Y025891D01*
X040761Y025570D02*
X040690Y025538D01*
X040621Y025502D01*
X040554Y025462D01*
X040489Y025420D01*
X040426Y025374D01*
X040365Y025326D01*
X040306Y025274D01*
X040251Y025220D01*
X040761Y024220D02*
X040545Y024008D01*
X040684Y023869D02*
X040881Y024070D01*
X039271Y025790D02*
X039203Y025731D01*
X039138Y025669D01*
X039075Y025605D01*
X039014Y025539D01*
X040823Y023730D02*
X041031Y023940D01*
X040962Y023590D02*
X040721Y023350D01*
X039961Y023300D01*
X039361Y022740D01*
X038931Y022440D01*
X039051Y022110D02*
X039521Y022490D01*
X040121Y023040D01*
X040831Y023180D01*
X041101Y023451D01*
X041241Y023312D02*
X040941Y023010D01*
X040251Y022790D01*
X039751Y022370D01*
X039401Y021950D01*
X039051Y022110D02*
X038751Y021910D01*
X038971Y021020D02*
X039291Y020390D01*
X039570Y020111D01*
X039709Y020250D02*
X039951Y020010D01*
X041991Y021190D02*
X041936Y021282D01*
X041876Y021371D01*
X041813Y021458D01*
X041746Y021542D01*
X041675Y021623D01*
X041601Y021700D01*
X041380Y021920D01*
X041519Y022059D02*
X041791Y021790D01*
X042191Y021890D01*
X039371Y025620D02*
X039536Y025753D01*
X039707Y025878D01*
X039883Y025995D01*
X040065Y026104D01*
X040251Y026203D01*
X040442Y026294D01*
X040637Y026377D01*
X040836Y026449D01*
X041038Y026513D01*
X041242Y026567D01*
X041449Y026611D01*
X041658Y026645D01*
X041868Y026670D01*
X042079Y026685D01*
X042291Y026690D01*
X041631Y023430D02*
X041380Y023173D01*
X041891Y023390D02*
X041911Y023347D01*
X041927Y023302D01*
X041940Y023255D01*
X041949Y023208D01*
X041954Y023161D01*
X041956Y023113D01*
X041954Y023065D01*
X041948Y023017D01*
X041938Y022970D01*
X041925Y022924D01*
X041908Y022879D01*
X041888Y022836D01*
X041864Y022794D01*
X041837Y022754D01*
X041807Y022717D01*
X041774Y022682D01*
X041739Y022650D01*
X041701Y022620D01*
X041311Y022830D02*
X041051Y022750D01*
X040741Y022630D01*
X040011Y022100D01*
X044890Y021990D02*
X044895Y022212D01*
X044889Y022434D01*
X044873Y022655D01*
X044846Y022875D01*
X044809Y023094D01*
X044761Y023311D01*
X044703Y023525D01*
X044635Y023736D01*
X044557Y023944D01*
X044469Y024147D01*
X044371Y024346D01*
X044265Y024541D01*
X044149Y024730D01*
X044024Y024913D01*
X043890Y025090D01*
X040730Y025300D02*
X040638Y025236D01*
X040549Y025168D01*
X040463Y025096D01*
X040380Y025020D01*
X039191Y024590D02*
X039142Y024558D01*
X039096Y024524D01*
X039051Y024488D01*
X039007Y024449D01*
X038966Y024408D01*
X038928Y024365D01*
X038891Y024320D01*
X041311Y022830D02*
X041519Y023034D01*
X040406Y024147D02*
X040456Y024204D01*
X040508Y024259D01*
X040563Y024311D01*
X040621Y024360D01*
X041630Y023430D02*
X041648Y023446D01*
X041668Y023459D01*
X041689Y023469D01*
X041712Y023475D01*
X041735Y023479D01*
X041759Y023478D01*
X041782Y023475D01*
X041805Y023468D01*
X041826Y023458D01*
X041846Y023445D01*
X041863Y023429D01*
X041878Y023410D01*
X041891Y023390D01*
X041991Y027090D02*
X041790Y027085D01*
X041589Y027070D01*
X041389Y027046D01*
X041191Y027011D01*
X040995Y026967D01*
X040801Y026914D01*
X040610Y026851D01*
X040422Y026778D01*
X040238Y026697D01*
X040058Y026606D01*
X039883Y026507D01*
X039713Y026400D01*
X039548Y026284D01*
X039389Y026160D01*
X039237Y026029D01*
X039091Y025890D01*
X032791Y027890D02*
X032391Y028140D01*
X032791Y027890D02*
X032855Y027856D01*
X032921Y027827D01*
X032988Y027800D01*
X033056Y027778D01*
X033126Y027759D01*
X033196Y027743D01*
X033267Y027732D01*
X033339Y027724D01*
X033411Y027720D01*
X039431Y025122D02*
X039563Y025254D01*
X039691Y025390D01*
X043591Y024291D02*
X043670Y024225D01*
X043745Y024155D01*
X043817Y024082D01*
X043885Y024005D01*
X043949Y023925D01*
X044010Y023842D01*
X044066Y023757D01*
X044118Y023668D01*
X044165Y023577D01*
X044208Y023484D01*
X044246Y023389D01*
X044280Y023292D01*
X044309Y023193D01*
X044333Y023094D01*
X044352Y022993D01*
X044366Y022891D01*
X044375Y022789D01*
X044379Y022687D01*
X044378Y022584D01*
X044372Y022482D01*
X044361Y022380D01*
X044345Y022278D01*
X044324Y022178D01*
X044298Y022079D01*
X044267Y021981D01*
X044231Y021885D01*
X044191Y021790D01*
X043891Y022090D02*
X043864Y022037D01*
X043839Y021983D01*
X043818Y021927D01*
X043801Y021870D01*
X043787Y021813D01*
X043776Y021754D01*
X043769Y021695D01*
X043766Y021636D01*
X043767Y021577D01*
X043771Y021517D01*
X043778Y021458D01*
X043790Y021400D01*
X043804Y021343D01*
X043823Y021286D01*
X043844Y021231D01*
X043870Y021177D01*
X043898Y021125D01*
X043929Y021074D01*
X043964Y021026D01*
X044001Y020980D01*
X044872Y021394D02*
X044891Y021990D01*
X042891Y025890D02*
X043084Y025992D01*
X043282Y026085D01*
X043483Y026169D01*
X043689Y026244D01*
X043897Y026309D01*
X044109Y026364D01*
X044322Y026409D01*
X044538Y026444D01*
X044755Y026470D01*
X044973Y026485D01*
X045191Y026490D01*
X049591Y027890D02*
X049891Y028140D01*
X049591Y027890D02*
X049514Y027821D01*
X049434Y027756D01*
X049351Y027694D01*
X049265Y027637D01*
X049176Y027583D01*
X049085Y027534D01*
X048992Y027489D01*
X048897Y027449D01*
X048801Y027412D01*
X048702Y027381D01*
X048602Y027354D01*
X048501Y027332D01*
X048400Y027314D01*
X048297Y027301D01*
X048194Y027293D01*
X048091Y027290D01*
X052991Y027790D02*
X053391Y028140D01*
X052991Y027790D02*
X052890Y027706D01*
X052785Y027626D01*
X052677Y027552D01*
X052566Y027482D01*
X052451Y027418D01*
X052333Y027359D01*
X052213Y027306D01*
X052091Y027258D01*
X051966Y027217D01*
X051840Y027181D01*
X051712Y027150D01*
X051583Y027126D01*
X051453Y027108D01*
X051322Y027096D01*
X051191Y027090D01*
X049291Y024790D02*
X049283Y024513D01*
X049288Y024236D01*
X049307Y023959D01*
X049338Y023684D01*
X049382Y023410D01*
X049439Y023139D01*
X049508Y022871D01*
X049590Y022606D01*
X049684Y022345D01*
X049791Y022090D01*
X043490Y021290D02*
X043434Y021466D01*
X043385Y021644D01*
X043345Y021825D01*
X043314Y022007D01*
X043290Y022190D01*
X043891Y022091D02*
X043921Y022138D01*
X043947Y022187D01*
X043971Y022237D01*
X043992Y022289D01*
X044009Y022342D01*
X044023Y022396D01*
X044033Y022451D01*
X044040Y022506D01*
X044044Y022562D01*
X044044Y022618D01*
X044040Y022673D01*
X044033Y022729D01*
X044022Y022783D01*
X044008Y022837D01*
X043991Y022890D01*
X042291Y026890D02*
X042072Y026885D01*
X041854Y026870D01*
X041637Y026844D01*
X041421Y026809D01*
X041207Y026763D01*
X040996Y026708D01*
X040787Y026643D01*
X040582Y026568D01*
X040380Y026483D01*
X040182Y026390D01*
X039989Y026287D01*
X039801Y026175D01*
X039618Y026055D01*
X039441Y025927D01*
X039271Y025790D01*
X034650Y023360D02*
X034688Y023288D01*
X034722Y023214D01*
X034753Y023138D01*
X034780Y023060D01*
X033850Y022710D02*
X033818Y022749D01*
X033784Y022785D01*
X033748Y022819D01*
X033709Y022851D01*
X033668Y022879D01*
X033625Y022905D01*
X033580Y022928D01*
X033534Y022948D01*
X033487Y022964D01*
X033439Y022977D01*
X033390Y022986D01*
X033340Y022992D01*
X033290Y022995D01*
X033240Y022994D01*
X033190Y022990D01*
X036926Y018996D02*
X036751Y018819D01*
X037390Y018400D02*
X037430Y018452D01*
X037472Y018501D01*
X037517Y018548D01*
X037565Y018592D01*
X037614Y018634D01*
X037666Y018674D01*
X037720Y018710D01*
X040630Y020721D02*
X040705Y020644D01*
X040775Y020563D01*
X040841Y020480D01*
X040904Y020393D01*
X040962Y020303D01*
X041016Y020211D01*
X041066Y020116D01*
X041111Y020020D01*
X041152Y019921D01*
X041188Y019820D01*
X041219Y019718D01*
X041245Y019614D01*
X041266Y019509D01*
X041283Y019404D01*
X041294Y019297D01*
X041301Y019191D01*
X040011Y019740D02*
X039971Y019640D01*
X040011Y019741D02*
X040022Y019766D01*
X040031Y019792D01*
X040036Y019819D01*
X040037Y019846D01*
X040035Y019873D01*
X040029Y019900D01*
X040019Y019926D01*
X040006Y019950D01*
X039991Y019973D01*
X039972Y019993D01*
X039951Y020010D01*
X040071Y020160D02*
X039849Y020389D01*
X039988Y020528D02*
X040221Y020290D01*
X041791Y021090D02*
X041754Y021163D01*
X041713Y021235D01*
X041669Y021305D01*
X041622Y021372D01*
X041571Y021437D01*
X041517Y021500D01*
X041461Y021560D01*
X041241Y021781D01*
X041101Y021642D02*
X041341Y021400D01*
X045591Y021390D02*
X045602Y021639D01*
X045601Y021889D01*
X045590Y022139D01*
X045567Y022387D01*
X045533Y022635D01*
X045488Y022880D01*
X045432Y023124D01*
X045365Y023365D01*
X045287Y023602D01*
X045199Y023836D01*
X045100Y024065D01*
X044991Y024290D01*
X043490Y021290D02*
X043536Y021167D01*
X043588Y021046D01*
X043645Y020927D01*
X043708Y020811D01*
X043776Y020699D01*
X043849Y020589D01*
X043927Y020484D01*
X044010Y020382D01*
X044098Y020284D01*
X044190Y020190D01*
X043191Y025290D02*
X043414Y025402D01*
X043643Y025503D01*
X043876Y025593D01*
X044113Y025671D01*
X044354Y025738D01*
X044598Y025792D01*
X044844Y025835D01*
X045092Y025866D01*
X045341Y025884D01*
X045591Y025890D01*
X049591Y024190D02*
X049602Y023999D01*
X049622Y023808D01*
X049651Y023619D01*
X049689Y023431D01*
X049736Y023245D01*
X049791Y023062D01*
X049856Y022882D01*
X049929Y022705D01*
X050010Y022531D01*
X050099Y022362D01*
X050197Y022197D01*
X050302Y022037D01*
X050415Y021882D01*
X050535Y021733D01*
X050661Y021589D01*
X050795Y021452D01*
X050935Y021321D01*
X051081Y021197D01*
X051233Y021081D01*
X051390Y020971D01*
X051553Y020870D01*
X051720Y020776D01*
X051891Y020690D01*
X052691Y015590D02*
X052479Y015491D01*
X052262Y015402D01*
X052041Y015323D01*
X051816Y015255D01*
X051589Y015198D01*
X051359Y015152D01*
X051127Y015117D01*
X050894Y015094D01*
X050659Y015081D01*
X050425Y015080D01*
X050191Y015090D01*
X049191Y014890D02*
X048291Y014990D01*
X049191Y014890D02*
X049241Y014882D01*
X049290Y014871D01*
X049339Y014856D01*
X049386Y014838D01*
X049432Y014816D01*
X049475Y014790D01*
X049517Y014762D01*
X049557Y014730D01*
X049594Y014696D01*
X049628Y014658D01*
X049660Y014619D01*
X049688Y014577D01*
X049714Y014533D01*
X049736Y014487D01*
X049754Y014440D01*
X049769Y014391D01*
X049780Y014342D01*
X049787Y014291D01*
X049791Y014241D01*
X049790Y014190D01*
X043190Y025791D02*
X042679Y025519D01*
X042179Y025225D01*
X041692Y024911D01*
X041219Y024576D01*
X040760Y024221D01*
X044190Y021790D02*
X044174Y021740D01*
X044162Y021689D01*
X044153Y021637D01*
X044148Y021584D01*
X044146Y021532D01*
X044148Y021479D01*
X044154Y021427D01*
X044163Y021376D01*
X044176Y021325D01*
X044192Y021275D01*
X044212Y021226D01*
X044234Y021179D01*
X044261Y021133D01*
X044290Y021089D01*
X043191Y025790D02*
X043388Y025884D01*
X043589Y025968D01*
X043793Y026043D01*
X044001Y026108D01*
X044212Y026163D01*
X044425Y026209D01*
X044640Y026244D01*
X044856Y026270D01*
X045073Y026285D01*
X045291Y026290D01*
X054791Y022190D02*
X055339Y021749D01*
X055690Y019991D02*
X055611Y019961D01*
X055530Y019936D01*
X055448Y019914D01*
X055365Y019896D01*
X055281Y019882D01*
X055197Y019871D01*
X055113Y019865D01*
X055028Y019862D01*
X054943Y019863D01*
X054858Y019869D01*
X054774Y019878D01*
X054690Y019891D01*
X055691Y019990D02*
X055798Y020049D01*
X055909Y020103D01*
X056021Y020152D01*
X056136Y020195D01*
X056253Y020232D01*
X056371Y020264D01*
X056491Y020290D01*
X058301Y012350D02*
X058662Y012283D01*
X059026Y012230D01*
X059391Y012190D01*
X064091Y018491D02*
X063795Y018741D01*
X063488Y018976D01*
X063170Y019198D01*
X062842Y019404D01*
X062504Y019594D01*
X062158Y019769D01*
X061805Y019927D01*
X061444Y020068D01*
X061077Y020192D01*
X060705Y020299D01*
X060328Y020388D01*
X059947Y020460D01*
X059564Y020513D01*
X059178Y020549D01*
X058791Y020566D01*
X058404Y020565D01*
X058017Y020546D01*
X057631Y020509D01*
X057248Y020454D01*
X056867Y020381D01*
X056491Y020291D01*
X054791Y027191D02*
X055021Y027415D01*
X055262Y027629D01*
X055513Y027831D01*
X055773Y028020D01*
X056042Y028198D01*
X056319Y028362D01*
X056603Y028513D01*
X056895Y028650D01*
X057192Y028773D01*
X057495Y028882D01*
X057803Y028976D01*
X058115Y029056D01*
X058430Y029120D01*
X058748Y029170D01*
X059069Y029204D01*
X059390Y029224D01*
X059712Y029228D01*
X060034Y029216D01*
X060355Y029189D01*
X060674Y029148D01*
X060991Y029091D01*
X049790Y022090D02*
X050076Y021483D01*
X050390Y020889D01*
X052890Y016191D02*
X052701Y016073D01*
X052507Y015964D01*
X052307Y015864D01*
X052103Y015774D01*
X051895Y015694D01*
X051684Y015623D01*
X051469Y015563D01*
X051252Y015513D01*
X051033Y015473D01*
X050812Y015444D01*
X050590Y015425D01*
X050367Y015416D01*
X050144Y015419D01*
X049921Y015431D01*
X049700Y015455D01*
X049479Y015488D01*
X049261Y015532D01*
X049045Y015587D01*
X048831Y015651D01*
X048621Y015726D01*
X048415Y015810D01*
X048213Y015904D01*
X048015Y016007D01*
X047823Y016120D01*
X047636Y016242D01*
X047455Y016372D01*
X047281Y016511D01*
X045491Y014790D02*
X045395Y014852D01*
X045303Y014918D01*
X045214Y014989D01*
X045129Y015064D01*
X045047Y015143D01*
X044969Y015225D01*
X044895Y015312D01*
X044825Y015401D01*
X044760Y015494D01*
X044699Y015590D01*
X044642Y015689D01*
X044591Y015790D01*
X038901Y017210D02*
X038916Y017609D01*
X038946Y018007D01*
X038991Y018404D01*
X039051Y018800D01*
X041501Y019340D02*
X041487Y019452D01*
X041468Y019563D01*
X041445Y019673D01*
X041416Y019782D01*
X041382Y019890D01*
X041343Y019996D01*
X041300Y020100D01*
X041252Y020202D01*
X041199Y020302D01*
X041141Y020399D01*
X041079Y020494D01*
X041013Y020585D01*
X040943Y020673D01*
X040869Y020758D01*
X040790Y020840D01*
X040371Y020420D02*
X040127Y020667D01*
X041200Y021260D02*
X041248Y021209D01*
X041292Y021155D01*
X041333Y021099D01*
X041372Y021041D01*
X041407Y020981D01*
X041438Y020919D01*
X041466Y020855D01*
X041490Y020790D01*
X039431Y019971D02*
X039171Y020230D01*
X039292Y019832D02*
X039531Y019590D01*
X040071Y020160D02*
X040112Y020120D01*
X040150Y020078D01*
X040185Y020034D01*
X040218Y019987D01*
X040247Y019938D01*
X040273Y019888D01*
X040296Y019835D01*
X040316Y019782D01*
X040331Y019727D01*
X040344Y019672D01*
X040353Y019616D01*
X040358Y019559D01*
X040359Y019502D01*
X040357Y019445D01*
X040351Y019389D01*
X040341Y019332D01*
X040328Y019277D01*
X040311Y019223D01*
X040291Y019170D01*
X039371Y019470D02*
X039153Y019693D01*
X039014Y019554D02*
X039241Y019320D01*
X040220Y020290D02*
X040273Y020234D01*
X040322Y020175D01*
X040369Y020113D01*
X040412Y020049D01*
X040452Y019983D01*
X040489Y019916D01*
X040522Y019846D01*
X040552Y019775D01*
X040578Y019702D01*
X040600Y019628D01*
X040618Y019553D01*
X040633Y019477D01*
X040644Y019401D01*
X040651Y019324D01*
X040654Y019247D01*
X040653Y019170D01*
X040648Y019093D01*
X040639Y019016D01*
X040627Y018940D01*
X040611Y018865D01*
X040590Y018790D01*
X041090Y019190D02*
X041085Y019286D01*
X041076Y019381D01*
X041062Y019476D01*
X041044Y019571D01*
X041021Y019664D01*
X040994Y019756D01*
X040962Y019847D01*
X040927Y019936D01*
X040887Y020023D01*
X040843Y020109D01*
X040795Y020192D01*
X040743Y020273D01*
X040688Y020351D01*
X040629Y020427D01*
X040566Y020500D01*
X040500Y020570D01*
X039171Y020230D02*
X039133Y020258D01*
X039093Y020283D01*
X039051Y020304D01*
X039008Y020323D01*
X038963Y020338D01*
X038917Y020349D01*
X038871Y020357D01*
X038824Y020362D01*
X038777Y020363D01*
X038730Y020360D01*
X038481Y020810D02*
X038440Y020818D01*
X038399Y020821D01*
X038358Y020822D01*
X038317Y020818D01*
X038277Y020810D01*
X038237Y020799D01*
X038199Y020784D01*
X038162Y020765D01*
X038127Y020743D01*
X038094Y020718D01*
X038064Y020690D01*
X038037Y020659D01*
X038013Y020625D01*
X037991Y020590D01*
X035673Y020250D02*
X035451Y020030D01*
X035291Y020150D02*
X035534Y020389D01*
X035600Y027110D02*
X035264Y027216D01*
X034924Y027307D01*
X034580Y027382D01*
X034233Y027440D01*
X033883Y027483D01*
X033532Y027510D01*
X033180Y027520D01*
X035291Y020150D02*
X034935Y019815D01*
X034564Y019495D01*
X034180Y019191D01*
X033784Y018905D01*
X033375Y018635D01*
X032600Y020840D02*
X032532Y020861D01*
X032462Y020878D01*
X032391Y020891D01*
X032320Y020901D01*
X032249Y020907D01*
X032177Y020909D01*
X032105Y020907D01*
X032033Y020902D01*
X031962Y020892D01*
X031892Y020879D01*
X031822Y020862D01*
X031753Y020842D01*
X031685Y020818D01*
X031619Y020790D01*
X031555Y020759D01*
X031492Y020724D01*
X031431Y020687D01*
X031372Y020646D01*
X031315Y020602D01*
X031261Y020555D01*
X031209Y020505D01*
X031160Y020452D01*
X031114Y020397D01*
X031071Y020340D01*
X031031Y020280D01*
X034911Y024491D02*
X034693Y024696D01*
X034465Y024892D01*
X034228Y025076D01*
X033983Y025248D01*
X033729Y025408D01*
X033468Y025556D01*
X033201Y025691D01*
X032927Y025813D01*
X032647Y025921D01*
X032363Y026016D01*
X032074Y026098D01*
X031782Y026165D01*
X031487Y026218D01*
X031189Y026257D01*
X030890Y026281D01*
X030591Y026291D01*
X027591Y026290D02*
X027537Y026295D01*
X027482Y026296D01*
X027428Y026293D01*
X027374Y026287D01*
X027321Y026277D01*
X027268Y026263D01*
X027216Y026246D01*
X027166Y026225D01*
X027117Y026201D01*
X027070Y026174D01*
X027025Y026144D01*
X026982Y026110D01*
X026941Y026074D01*
X026903Y026035D01*
X026868Y025994D01*
X026835Y025951D01*
X026806Y025905D01*
X026779Y025857D01*
X026756Y025808D01*
X026736Y025757D01*
X026720Y025705D01*
X026707Y025652D01*
X026698Y025599D01*
X026693Y025545D01*
X026691Y025490D01*
X026290Y025490D02*
X026282Y025552D01*
X026277Y025615D01*
X026276Y025679D01*
X026279Y025742D01*
X026286Y025805D01*
X026297Y025868D01*
X026312Y025929D01*
X026330Y025990D01*
X026352Y026049D01*
X026378Y026107D01*
X026407Y026163D01*
X026440Y026218D01*
X026475Y026270D01*
X026515Y026320D01*
X026557Y026367D01*
X026601Y026412D01*
X026649Y026454D01*
X026699Y026493D01*
X026751Y026528D01*
X026806Y026561D01*
X026862Y026590D01*
X026920Y026615D01*
X026980Y026637D01*
X027040Y026655D01*
X027102Y026670D01*
X027164Y026680D01*
X027227Y026687D01*
X027291Y026690D01*
X026990Y025590D02*
X026993Y025516D01*
X026992Y025441D01*
X026987Y025367D01*
X026978Y025293D01*
X026966Y025220D01*
X026951Y025147D01*
X026931Y025075D01*
X026909Y025004D01*
X026883Y024934D01*
X026853Y024866D01*
X026820Y024799D01*
X026784Y024734D01*
X026745Y024670D01*
X026702Y024609D01*
X026657Y024550D01*
X026609Y024493D01*
X026558Y024438D01*
X026505Y024386D01*
X026449Y024337D01*
X026391Y024291D01*
X027590Y024790D02*
X027631Y024756D01*
X027669Y024719D01*
X027705Y024680D01*
X027738Y024638D01*
X027767Y024594D01*
X027794Y024548D01*
X027817Y024500D01*
X027837Y024450D01*
X027854Y024400D01*
X027866Y024348D01*
X027876Y024296D01*
X027881Y024243D01*
X027883Y024190D01*
X027881Y024137D01*
X027876Y024084D01*
X027866Y024032D01*
X027854Y023980D01*
X027837Y023930D01*
X027817Y023880D01*
X027794Y023832D01*
X027767Y023786D01*
X027738Y023742D01*
X027705Y023700D01*
X027669Y023661D01*
X027631Y023624D01*
X027590Y023590D01*
X027691Y023390D02*
X027740Y023427D01*
X027787Y023467D01*
X027831Y023510D01*
X027872Y023555D01*
X027911Y023603D01*
X027946Y023654D01*
X027978Y023706D01*
X028006Y023761D01*
X028031Y023817D01*
X028052Y023875D01*
X028070Y023934D01*
X028084Y023994D01*
X028094Y024055D01*
X028100Y024116D01*
X028102Y024177D01*
X028100Y024239D01*
X028094Y024300D01*
X028085Y024361D01*
X028071Y024421D01*
X028054Y024480D01*
X028033Y024538D01*
X028008Y024594D01*
X027980Y024649D01*
X027949Y024702D01*
X027914Y024752D01*
X027876Y024801D01*
X027834Y024847D01*
X027791Y024890D01*
X025891Y025590D02*
X025896Y025543D01*
X025898Y025495D01*
X025896Y025448D01*
X025890Y025400D01*
X025881Y025354D01*
X025868Y025308D01*
X025851Y025263D01*
X025831Y025220D01*
X025808Y025179D01*
X025781Y025139D01*
X025752Y025102D01*
X025720Y025067D01*
X025685Y025035D01*
X025647Y025005D01*
X025608Y024979D01*
X025566Y024956D01*
X025523Y024936D01*
X025478Y024920D01*
X025432Y024907D01*
X025386Y024897D01*
X025339Y024892D01*
X025291Y024890D01*
X024491Y025090D02*
X024152Y025552D01*
X024491Y025090D02*
X024519Y025055D01*
X024550Y025022D01*
X024583Y024992D01*
X024619Y024965D01*
X024657Y024940D01*
X024696Y024919D01*
X024738Y024902D01*
X024781Y024887D01*
X024824Y024877D01*
X024869Y024870D01*
X024913Y024866D01*
X024958Y024867D01*
X025003Y024871D01*
X025048Y024878D01*
X025091Y024890D01*
X025491Y024290D02*
X025564Y024305D01*
X025637Y024324D01*
X025709Y024346D01*
X025780Y024372D01*
X025849Y024402D01*
X025917Y024435D01*
X025983Y024471D01*
X026047Y024511D01*
X026109Y024554D01*
X026168Y024600D01*
X026226Y024649D01*
X026280Y024701D01*
X026332Y024755D01*
X026381Y024813D01*
X026427Y024872D01*
X026470Y024934D01*
X026510Y024998D01*
X026546Y025064D01*
X026579Y025132D01*
X026609Y025201D01*
X026635Y025272D01*
X026657Y025344D01*
X026676Y025417D01*
X026691Y025490D01*
X025691Y027790D02*
X025391Y028140D01*
X025690Y027790D02*
X025741Y027734D01*
X025794Y027681D01*
X025849Y027631D01*
X025908Y027584D01*
X025968Y027540D01*
X026031Y027499D01*
X026096Y027462D01*
X026163Y027428D01*
X026231Y027397D01*
X026301Y027370D01*
X026372Y027347D01*
X026444Y027327D01*
X026518Y027311D01*
X026592Y027299D01*
X026666Y027291D01*
X026741Y027287D01*
X026816Y027286D01*
X026891Y027290D01*
X022991Y027089D02*
X022931Y027087D01*
X022871Y027088D01*
X022811Y027093D01*
X022751Y027102D01*
X022693Y027115D01*
X022635Y027131D01*
X022578Y027150D01*
X022523Y027173D01*
X022469Y027200D01*
X022417Y027229D01*
X022366Y027262D01*
X022318Y027298D01*
X022272Y027337D01*
X022229Y027379D01*
X022189Y027423D01*
X022151Y027469D01*
X022116Y027518D01*
X022084Y027569D01*
X022056Y027622D01*
X022030Y027677D01*
X022009Y027733D01*
X021990Y027790D01*
X021991Y027790D02*
X021891Y028140D01*
X031391Y020090D02*
X031091Y019690D01*
X034630Y024220D02*
X034423Y024410D01*
X034208Y024590D01*
X033984Y024760D01*
X033752Y024919D01*
X033514Y025067D01*
X033268Y025203D01*
X033017Y025328D01*
X032760Y025441D01*
X032497Y025542D01*
X032231Y025631D01*
X031960Y025707D01*
X031687Y025770D01*
X031410Y025820D01*
X031132Y025857D01*
X030852Y025881D01*
X030571Y025892D01*
X030291Y025890D01*
X037991Y020590D02*
X037816Y020324D01*
X037629Y020067D01*
X037430Y019819D01*
X037221Y019579D01*
X037001Y019350D01*
X032651Y021049D02*
X032578Y021072D01*
X032504Y021092D01*
X032429Y021107D01*
X032353Y021119D01*
X032277Y021127D01*
X032201Y021131D01*
X032124Y021132D01*
X032048Y021128D01*
X031972Y021121D01*
X031896Y021110D01*
X031821Y021095D01*
X031747Y021077D01*
X031674Y021055D01*
X031602Y021029D01*
X031531Y021000D01*
X031462Y020967D01*
X031394Y020931D01*
X031329Y020891D01*
X031265Y020849D01*
X031204Y020803D01*
X031145Y020754D01*
X031089Y020702D01*
X031035Y020648D01*
X030984Y020591D01*
X030936Y020531D01*
X030891Y020469D01*
X034770Y024350D02*
X034558Y024549D01*
X034337Y024738D01*
X034107Y024916D01*
X033869Y025082D01*
X033623Y025237D01*
X033370Y025381D01*
X033111Y025511D01*
X032845Y025630D01*
X032574Y025735D01*
X032298Y025827D01*
X032019Y025906D01*
X031735Y025971D01*
X031449Y026022D01*
X031161Y026060D01*
X030871Y026084D01*
X030581Y026094D01*
X030290Y026090D01*
X031991Y022390D02*
X031980Y022450D01*
X031973Y022511D01*
X031970Y022571D01*
X031971Y022632D01*
X031975Y022693D01*
X031984Y022753D01*
X031996Y022813D01*
X032012Y022871D01*
X032031Y022929D01*
X032054Y022985D01*
X032081Y023040D01*
X032111Y023093D01*
X032144Y023144D01*
X032180Y023193D01*
X032219Y023239D01*
X032261Y023283D01*
X032306Y023324D01*
X032354Y023363D01*
X032403Y023398D01*
X032455Y023430D01*
X032508Y023459D01*
X032564Y023484D01*
X032620Y023506D01*
X032678Y023524D01*
X032738Y023539D01*
X032797Y023549D01*
X032858Y023557D01*
X032919Y023560D01*
X032979Y023559D01*
X033040Y023555D01*
X033100Y023547D01*
X033160Y023535D01*
X033219Y023519D01*
X033276Y023500D01*
X033333Y023477D01*
X033388Y023451D01*
X033441Y023421D01*
X033492Y023388D01*
X033541Y023352D01*
X033587Y023313D01*
X033631Y023271D01*
X033900Y021540D02*
X033852Y021494D01*
X033801Y021451D01*
X033748Y021412D01*
X033692Y021375D01*
X033635Y021341D01*
X033576Y021311D01*
X033515Y021284D01*
X033453Y021261D01*
X033389Y021241D01*
X033325Y021225D01*
X033259Y021213D01*
X033193Y021204D01*
X033127Y021199D01*
X033061Y021198D01*
X032994Y021201D01*
X032928Y021207D01*
X032862Y021217D01*
X032797Y021231D01*
X032733Y021249D01*
X032670Y021270D01*
X035861Y025500D02*
X035658Y025676D01*
X035447Y025842D01*
X035227Y025997D01*
X035001Y026141D01*
X034768Y026274D01*
X034528Y026396D01*
X034283Y026506D01*
X034033Y026603D01*
X033778Y026688D01*
X033520Y026761D01*
X033258Y026821D01*
X032994Y026867D01*
X032727Y026901D01*
X032459Y026922D01*
X032191Y026930D01*
X031091Y023390D02*
X031142Y023467D01*
X031197Y023541D01*
X031255Y023613D01*
X031316Y023682D01*
X031381Y023747D01*
X031449Y023810D01*
X031520Y023869D01*
X031594Y023924D01*
X031670Y023976D01*
X031749Y024024D01*
X031830Y024068D01*
X031914Y024108D01*
X031999Y024144D01*
X032085Y024175D01*
X032173Y024203D01*
X032263Y024226D01*
X032353Y024244D01*
X032444Y024258D01*
X032536Y024268D01*
X032628Y024273D01*
X032721Y024274D01*
X032813Y024270D01*
X032905Y024261D01*
X032996Y024248D01*
X033087Y024231D01*
X033177Y024209D01*
X033265Y024183D01*
X033352Y024153D01*
X033438Y024118D01*
X033521Y024079D01*
X033603Y024036D01*
X033683Y023989D01*
X033760Y023938D01*
X033834Y023884D01*
X033906Y023826D01*
X033975Y023764D01*
X034041Y023700D01*
X033750Y023410D02*
X033695Y023459D01*
X033637Y023506D01*
X033577Y023549D01*
X033514Y023590D01*
X033450Y023626D01*
X033383Y023660D01*
X033315Y023690D01*
X033246Y023716D01*
X033175Y023739D01*
X033104Y023758D01*
X033031Y023774D01*
X032958Y023785D01*
X032884Y023793D01*
X032809Y023797D01*
X032735Y023796D01*
X032661Y023793D01*
X032587Y023785D01*
X032514Y023773D01*
X032441Y023758D01*
X032369Y023738D01*
X032299Y023715D01*
X032229Y023689D01*
X032162Y023659D01*
X032095Y023625D01*
X032031Y023588D01*
X031969Y023547D01*
X031909Y023504D01*
X031851Y023457D01*
X031795Y023408D01*
X031743Y023355D01*
X031693Y023300D01*
X031646Y023242D01*
X031602Y023182D01*
X031562Y023120D01*
X031524Y023056D01*
X031491Y022990D01*
X035800Y025810D02*
X035949Y025679D01*
X036092Y025542D01*
X036229Y025400D01*
X033741Y021660D02*
X033697Y021620D01*
X033651Y021582D01*
X033602Y021547D01*
X033551Y021516D01*
X033498Y021488D01*
X033444Y021463D01*
X033388Y021443D01*
X033331Y021425D01*
X033272Y021412D01*
X033214Y021402D01*
X033154Y021397D01*
X033094Y021395D01*
X033035Y021397D01*
X032975Y021403D01*
X032916Y021413D01*
X032858Y021427D01*
X032801Y021444D01*
X032745Y021466D01*
X032691Y021490D01*
X035721Y025361D02*
X035546Y025516D01*
X035364Y025662D01*
X035176Y025801D01*
X034982Y025930D01*
X034781Y026050D01*
X034576Y026161D01*
X034365Y026262D01*
X034150Y026353D01*
X033931Y026434D01*
X033709Y026505D01*
X033483Y026565D01*
X033255Y026615D01*
X033025Y026654D01*
X032793Y026683D01*
X032560Y026701D01*
X034011Y021370D02*
X033960Y021321D01*
X033907Y021276D01*
X033851Y021233D01*
X033794Y021193D01*
X033734Y021157D01*
X033672Y021123D01*
X033609Y021093D01*
X033544Y021066D01*
X033478Y021043D01*
X033411Y021024D01*
X033342Y021008D01*
X033273Y020995D01*
X033204Y020986D01*
X033134Y020981D01*
X033064Y020980D01*
X032994Y020982D01*
X032924Y020989D01*
X032855Y020998D01*
X032786Y021012D01*
X032718Y021029D01*
X032651Y021050D01*
X036369Y025540D02*
X036188Y025727D01*
X035999Y025906D01*
X035802Y026076D01*
X035597Y026236D01*
X035385Y026386D01*
X035166Y026526D01*
X034940Y026656D01*
X034709Y026774D01*
X034472Y026882D01*
X034230Y026978D01*
X033985Y027063D01*
X033735Y027136D01*
X033482Y027197D01*
X033227Y027246D01*
X032969Y027283D01*
X032710Y027308D01*
X032450Y027320D01*
X034161Y021241D02*
X034106Y021186D01*
X034049Y021135D01*
X033989Y021086D01*
X033927Y021041D01*
X033862Y020998D01*
X033795Y020960D01*
X033727Y020924D01*
X033657Y020892D01*
X033585Y020864D01*
X033512Y020839D01*
X033438Y020818D01*
X033363Y020800D01*
X033287Y020787D01*
X033210Y020777D01*
X033134Y020772D01*
X033056Y020770D01*
X032979Y020772D01*
X032903Y020778D01*
X032826Y020788D01*
X032750Y020802D01*
X032675Y020819D01*
X032601Y020841D01*
X032690Y021490D02*
X032621Y021522D01*
X032550Y021550D01*
X032478Y021574D01*
X032404Y021595D01*
X032330Y021612D01*
X032255Y021625D01*
X032179Y021634D01*
X032103Y021640D01*
X032026Y021641D01*
X031950Y021638D01*
X031874Y021632D01*
X031798Y021622D01*
X031723Y021608D01*
X031649Y021590D01*
X031576Y021568D01*
X031504Y021542D01*
X031434Y021513D01*
X031365Y021481D01*
X031298Y021444D01*
X031232Y021405D01*
X031169Y021362D01*
X031108Y021316D01*
X031050Y021267D01*
X030994Y021215D01*
X030941Y021160D01*
X030891Y021102D01*
X030844Y021042D01*
X030800Y020980D01*
X032300Y027120D02*
X032555Y027115D01*
X032809Y027097D01*
X033062Y027068D01*
X033313Y027026D01*
X033562Y026972D01*
X033808Y026906D01*
X034050Y026828D01*
X034289Y026739D01*
X034522Y026638D01*
X034751Y026526D01*
X034974Y026404D01*
X035191Y026270D01*
X035401Y026127D01*
X035605Y025973D01*
X035800Y025810D01*
X033590Y021790D02*
X033552Y021755D01*
X033512Y021724D01*
X033470Y021696D01*
X033425Y021671D01*
X033379Y021650D01*
X033331Y021632D01*
X033282Y021618D01*
X033232Y021608D01*
X033182Y021601D01*
X033131Y021599D01*
X033080Y021601D01*
X033029Y021606D01*
X032979Y021615D01*
X032930Y021628D01*
X032882Y021645D01*
X032835Y021666D01*
X032790Y021690D01*
X032671Y021270D02*
X032597Y021295D01*
X032522Y021317D01*
X032446Y021335D01*
X032369Y021349D01*
X032291Y021359D01*
X032213Y021366D01*
X032135Y021369D01*
X032057Y021368D01*
X031979Y021363D01*
X031902Y021354D01*
X031824Y021342D01*
X031748Y021326D01*
X031672Y021306D01*
X031598Y021283D01*
X031525Y021255D01*
X031453Y021225D01*
X031382Y021191D01*
X031314Y021153D01*
X031247Y021112D01*
X031183Y021068D01*
X031120Y021021D01*
X031060Y020971D01*
X031003Y020918D01*
X030948Y020862D01*
X030896Y020804D01*
X030847Y020743D01*
X030801Y020680D01*
X031291Y020291D02*
X031329Y020340D01*
X031369Y020387D01*
X031413Y020431D01*
X031459Y020472D01*
X031507Y020511D01*
X031558Y020547D01*
X031611Y020580D01*
X031666Y020610D01*
X031722Y020636D01*
X031780Y020659D01*
X031839Y020679D01*
X031899Y020694D01*
X031959Y020707D01*
X032021Y020716D01*
X032083Y020721D01*
X032145Y020722D01*
X032207Y020720D01*
X032269Y020714D01*
X032330Y020704D01*
X032391Y020691D01*
X032291Y020490D02*
X032234Y020498D01*
X032176Y020501D01*
X032118Y020502D01*
X032060Y020498D01*
X032002Y020491D01*
X031946Y020480D01*
X031890Y020465D01*
X031835Y020447D01*
X031781Y020425D01*
X031729Y020400D01*
X031678Y020371D01*
X031630Y020339D01*
X031584Y020305D01*
X031540Y020267D01*
X031498Y020226D01*
X031460Y020183D01*
X031424Y020138D01*
X031391Y020090D01*
X034501Y024070D02*
X034274Y024269D01*
X034038Y024456D01*
X033793Y024631D01*
X033540Y024794D01*
X033279Y024945D01*
X033011Y025082D01*
X032737Y025207D01*
X032456Y025317D01*
X032171Y025414D01*
X031882Y025497D01*
X031588Y025566D01*
X031292Y025620D01*
X030993Y025660D01*
X030693Y025684D01*
X030392Y025695D01*
X030091Y025690D01*
X028190Y018690D02*
X028104Y018585D01*
X028014Y018485D01*
X027918Y018388D01*
X027818Y018297D01*
X027715Y018210D01*
X027607Y018128D01*
X027495Y018051D01*
X027380Y017980D01*
X027261Y017914D01*
X027140Y017854D01*
X027016Y017799D01*
X026890Y017750D01*
X026761Y017708D01*
X026631Y017671D01*
X026499Y017641D01*
X026366Y017616D01*
X026231Y017598D01*
X026096Y017587D01*
X025961Y017581D01*
X025826Y017582D01*
X025690Y017590D01*
X026391Y016091D02*
X026547Y016154D01*
X026700Y016225D01*
X026850Y016303D01*
X026996Y016388D01*
X027138Y016480D01*
X027275Y016578D01*
X027408Y016682D01*
X027535Y016793D01*
X027658Y016909D01*
X027775Y017031D01*
X027886Y017158D01*
X027991Y017291D01*
X028690Y016790D02*
X028554Y016613D01*
X028410Y016443D01*
X028258Y016279D01*
X028098Y016122D01*
X027931Y015974D01*
X027757Y015833D01*
X027577Y015701D01*
X027391Y015577D01*
X027199Y015462D01*
X027002Y015357D01*
X026800Y015261D01*
X023491Y022390D02*
X023105Y022297D01*
X022725Y022185D01*
X022350Y022055D01*
X021982Y021907D01*
X021622Y021742D01*
X021270Y021559D01*
X020928Y021359D01*
X020596Y021142D01*
X020274Y020910D01*
X019965Y020663D01*
X019667Y020400D01*
X019383Y020124D01*
X019113Y019834D01*
X018857Y019531D01*
X018616Y019216D01*
X018391Y018890D01*
X014190Y012290D02*
X013841Y012396D01*
X013498Y012519D01*
X013160Y012658D01*
X012830Y012813D01*
X012507Y012983D01*
X012192Y013167D01*
X011887Y013367D01*
X011591Y013580D01*
X011306Y013808D01*
X011031Y014048D01*
X010768Y014301D01*
X010517Y014566D01*
X010279Y014842D01*
X010055Y015130D01*
X009844Y015427D01*
X009647Y015735D01*
X009465Y016051D01*
X009298Y016375D01*
X009146Y016707D01*
X009010Y017045D01*
X008890Y017390D01*
X011191Y017990D02*
X011891Y018690D01*
X021899Y011774D02*
X022255Y012173D01*
X022591Y012590D01*
X024191Y013590D02*
X021999Y010774D01*
X022591Y008890D02*
X022640Y008841D01*
X022692Y008794D01*
X022746Y008751D01*
X022802Y008710D01*
X022861Y008673D01*
X022921Y008639D01*
X022983Y008608D01*
X023047Y008580D01*
X023112Y008556D01*
X023179Y008536D01*
X023246Y008519D01*
X023314Y008506D01*
X023383Y008496D01*
X023452Y008490D01*
X023521Y008488D01*
X023591Y008490D01*
X029591Y008490D01*
X028811Y008680D02*
X025571Y008680D01*
X024321Y008790D01*
X025161Y009316D02*
X025291Y009090D01*
X025311Y009059D01*
X025334Y009029D01*
X025359Y009002D01*
X025387Y008977D01*
X025417Y008955D01*
X025449Y008935D01*
X025483Y008919D01*
X025518Y008906D01*
X025554Y008896D01*
X025591Y008890D01*
X030220Y015220D02*
X030511Y015012D01*
X030791Y014790D01*
X027191Y014590D02*
X027049Y014523D01*
X026912Y014448D01*
X026777Y014367D01*
X026647Y014280D01*
X026522Y014186D01*
X026401Y014086D01*
X026285Y013981D01*
X026174Y013870D01*
X026069Y013753D01*
X025970Y013632D01*
X025877Y013506D01*
X025790Y013376D01*
X025709Y013241D01*
X025635Y013103D01*
X025568Y012962D01*
X025508Y012817D01*
X025455Y012670D01*
X025409Y012520D01*
X025370Y012368D01*
X025339Y012214D01*
X025316Y012059D01*
X025300Y011903D01*
X025291Y011747D01*
X025291Y011590D01*
X026191Y011445D02*
X026199Y011484D01*
X026212Y011522D01*
X026227Y011559D01*
X026246Y011595D01*
X026268Y011628D01*
X026293Y011660D01*
X026321Y011689D01*
X026352Y011715D01*
X026384Y011738D01*
X026419Y011759D01*
X026455Y011776D01*
X026493Y011790D01*
X026531Y011801D01*
X026571Y011807D01*
X026611Y011811D01*
X026991Y011444D02*
X027861Y011440D01*
X024891Y012190D02*
X024945Y012377D01*
X025008Y012561D01*
X025080Y012742D01*
X025160Y012920D01*
X025248Y013093D01*
X025344Y013262D01*
X025449Y013427D01*
X025560Y013586D01*
X025680Y013740D01*
X025806Y013889D01*
X025939Y014031D01*
X026079Y014167D01*
X026224Y014296D01*
X026376Y014418D01*
X026533Y014533D01*
X026696Y014640D01*
X026863Y014739D01*
X027035Y014831D01*
X027211Y014915D01*
X027391Y014990D01*
X027290Y010890D02*
X027258Y010862D01*
X027225Y010836D01*
X027189Y010812D01*
X027152Y010791D01*
X027113Y010773D01*
X027073Y010758D01*
X027032Y010745D01*
X026990Y010736D01*
X027291Y010890D02*
X027328Y010923D01*
X027368Y010954D01*
X027410Y010982D01*
X027453Y011007D01*
X027499Y011028D01*
X027545Y011047D01*
X027593Y011062D01*
X027642Y011074D01*
X027691Y011083D01*
X027741Y011088D01*
X027791Y011090D01*
X028811Y008680D02*
X028879Y008682D01*
X028946Y008688D01*
X029013Y008698D01*
X029079Y008711D01*
X029144Y008729D01*
X029208Y008750D01*
X029271Y008775D01*
X029332Y008803D01*
X029392Y008835D01*
X029449Y008871D01*
X029505Y008909D01*
X029558Y008951D01*
X029608Y008996D01*
X029656Y009044D01*
X029701Y009094D01*
X029743Y009147D01*
X029782Y009202D01*
X029817Y009260D01*
X029849Y009319D01*
X029878Y009380D01*
X029591Y008490D02*
X029661Y008492D01*
X029730Y008497D01*
X029800Y008506D01*
X029868Y008519D01*
X029936Y008536D01*
X030003Y008555D01*
X030069Y008579D01*
X030133Y008606D01*
X030196Y008636D01*
X030258Y008669D01*
X030317Y008706D01*
X030375Y008745D01*
X030430Y008788D01*
X030483Y008833D01*
X030534Y008881D01*
X030582Y008932D01*
X030627Y008985D01*
X030669Y009041D01*
X030709Y009099D01*
X030745Y009158D01*
X030778Y009220D01*
X030808Y009283D01*
X030835Y009347D01*
X030858Y009413D01*
X030878Y009480D01*
X027190Y015190D02*
X026951Y015080D01*
X026717Y014959D01*
X026489Y014827D01*
X026268Y014684D01*
X026053Y014531D01*
X025846Y014368D01*
X025647Y014196D01*
X025456Y014014D01*
X025274Y013824D01*
X025102Y013625D01*
X024938Y013419D01*
X024785Y013204D01*
X024642Y012983D01*
X024509Y012756D01*
X024388Y012522D01*
X024277Y012283D01*
X024178Y012039D01*
X024091Y011790D01*
X023591Y011790D02*
X023684Y012044D01*
X023788Y012293D01*
X023904Y012538D01*
X024031Y012777D01*
X024169Y013009D01*
X024318Y013235D01*
X024477Y013454D01*
X024646Y013665D01*
X024825Y013867D01*
X025014Y014062D01*
X025211Y014247D01*
X025416Y014423D01*
X025630Y014589D01*
X025851Y014744D01*
X026079Y014890D01*
X026314Y015024D01*
X026555Y015148D01*
X026801Y015260D01*
X027991Y014991D02*
X028173Y015105D01*
X028351Y015227D01*
X028523Y015355D01*
X028691Y015491D01*
X038031Y011450D02*
X038877Y010480D01*
X039877Y010380D02*
X039881Y010445D01*
X039880Y010510D01*
X039876Y010576D01*
X039868Y010640D01*
X039856Y010705D01*
X039841Y010768D01*
X039821Y010831D01*
X039798Y010892D01*
X039772Y010951D01*
X039742Y011009D01*
X039708Y011066D01*
X039671Y011120D01*
X039632Y011171D01*
X039589Y011221D01*
X039543Y011267D01*
X039494Y011311D01*
X039444Y011352D01*
X039390Y011390D01*
X039351Y010141D02*
X039350Y010110D01*
X039353Y010080D01*
X039359Y010050D01*
X039369Y010021D01*
X039382Y009994D01*
X039399Y009968D01*
X039418Y009945D01*
X039440Y009924D01*
X039465Y009906D01*
X039491Y009891D01*
X039490Y009890D02*
X039535Y009866D01*
X039578Y009838D01*
X039619Y009808D01*
X039657Y009775D01*
X039694Y009739D01*
X039727Y009700D01*
X039758Y009660D01*
X039786Y009617D01*
X039811Y009573D01*
X039832Y009526D01*
X039850Y009479D01*
X039865Y009430D01*
X039876Y009380D01*
X037745Y008670D02*
X037741Y008190D01*
X032941Y008190D02*
X032946Y008670D01*
X026591Y015391D02*
X026316Y015264D01*
X026047Y015125D01*
X025785Y014973D01*
X025530Y014809D01*
X025284Y014633D01*
X025046Y014446D01*
X024817Y014247D01*
X024598Y014038D01*
X024389Y013819D01*
X024191Y013591D01*
X014690Y014390D02*
X014650Y014425D01*
X014612Y014463D01*
X014576Y014503D01*
X014544Y014545D01*
X014514Y014590D01*
X014488Y014637D01*
X014465Y014686D01*
X014446Y014736D01*
X014430Y014787D01*
X014418Y014839D01*
X014409Y014892D01*
X014404Y014945D01*
X014403Y014999D01*
X014406Y015053D01*
X014412Y015106D01*
X014422Y015159D01*
X014436Y015210D01*
X014453Y015261D01*
X014474Y015311D01*
X014498Y015358D01*
X014526Y015404D01*
X014557Y015448D01*
X014590Y015490D01*
X014190Y012290D02*
X014343Y012254D01*
X014498Y012225D01*
X014653Y012204D01*
X014810Y012190D01*
X014967Y012184D01*
X015124Y012186D01*
X015281Y012195D01*
X015438Y012212D01*
X015593Y012236D01*
X015747Y012268D01*
X015899Y012307D01*
X016049Y012354D01*
X016197Y012408D01*
X016342Y012468D01*
X016484Y012536D01*
X016622Y012611D01*
X016757Y012692D01*
X016887Y012779D01*
X017013Y012873D01*
X017135Y012973D01*
X017251Y013078D01*
X017363Y013189D01*
X017469Y013306D01*
X017569Y013427D01*
X017663Y013553D01*
X017751Y013683D01*
X017832Y013818D01*
X017907Y013956D01*
X017975Y014097D01*
X018036Y014242D01*
X018090Y014390D01*
X022254Y009244D02*
X022591Y008890D01*
X025161Y009316D02*
X025167Y009391D01*
X025170Y009467D01*
X025169Y009542D01*
X025164Y009617D01*
X025155Y009692D01*
X025142Y009766D01*
X025126Y009840D01*
X025106Y009913D01*
X025082Y009984D01*
X025055Y010054D01*
X025024Y010123D01*
X024990Y010190D01*
X023732Y009292D02*
X023746Y009246D01*
X023763Y009200D01*
X023783Y009156D01*
X023806Y009113D01*
X023832Y009073D01*
X023862Y009034D01*
X023893Y008997D01*
X023928Y008963D01*
X023965Y008932D01*
X024004Y008903D01*
X024045Y008877D01*
X024088Y008854D01*
X024132Y008835D01*
X024178Y008818D01*
X024225Y008805D01*
X024273Y008796D01*
X024321Y008790D01*
X026557Y009311D02*
X027877Y009380D01*
X028291Y008870D02*
X028338Y008872D01*
X028385Y008878D01*
X028431Y008887D01*
X028477Y008900D01*
X028521Y008917D01*
X028564Y008937D01*
X028605Y008961D01*
X028643Y008988D01*
X028680Y009017D01*
X028714Y009050D01*
X028745Y009086D01*
X028774Y009123D01*
X028799Y009163D01*
X028821Y009205D01*
X028840Y009248D01*
X028855Y009293D01*
X028866Y009339D01*
X028874Y009386D01*
X028878Y009433D01*
X028878Y009480D01*
X028291Y008870D02*
X027261Y008870D01*
X016291Y020290D02*
X015715Y020174D01*
X015143Y020033D01*
X014579Y019868D01*
X014022Y019679D01*
X013474Y019467D01*
X012935Y019230D01*
X012407Y018971D01*
X011891Y018690D01*
X007991Y019790D02*
X006923Y023470D01*
X006091Y026040D01*
X008445Y023190D02*
X010191Y024090D01*
X015091Y027290D02*
X015991Y026890D01*
X018391Y018890D02*
X017698Y018139D01*
X016970Y017421D01*
X016208Y016740D01*
X015415Y016096D01*
X014591Y015490D01*
X026591Y015390D02*
X026805Y015489D01*
X027014Y015597D01*
X027217Y015716D01*
X027414Y015845D01*
X027605Y015983D01*
X027789Y016130D01*
X027966Y016286D01*
X028135Y016451D01*
X028295Y016623D01*
X028447Y016803D01*
X028591Y016990D01*
X027991Y017690D02*
X027879Y017536D01*
X027760Y017387D01*
X027634Y017243D01*
X027501Y017106D01*
X027361Y016976D01*
X027216Y016853D01*
X027065Y016736D01*
X026908Y016627D01*
X026746Y016526D01*
X026580Y016432D01*
X026409Y016347D01*
X026234Y016270D01*
X026056Y016201D01*
X025875Y016142D01*
X025691Y016090D01*
X026690Y015689D02*
X026882Y015787D01*
X027069Y015893D01*
X027252Y016007D01*
X027429Y016129D01*
X027600Y016260D01*
X027765Y016397D01*
X027924Y016542D01*
X028077Y016694D01*
X028222Y016853D01*
X028360Y017018D01*
X028490Y017189D01*
X028090Y018191D02*
X027986Y018043D01*
X027874Y017901D01*
X027757Y017765D01*
X027632Y017634D01*
X027502Y017509D01*
X027366Y017391D01*
X027224Y017279D01*
X027077Y017175D01*
X026925Y017077D01*
X026769Y016987D01*
X026608Y016904D01*
X026444Y016830D01*
X026277Y016763D01*
X026106Y016704D01*
X025933Y016654D01*
X025757Y016612D01*
X025580Y016578D01*
X025401Y016553D01*
X026590Y015889D02*
X026782Y015987D01*
X026969Y016093D01*
X027152Y016207D01*
X027329Y016329D01*
X027500Y016460D01*
X027665Y016597D01*
X027824Y016742D01*
X027977Y016894D01*
X028122Y017053D01*
X028260Y017218D01*
X028390Y017389D01*
X043391Y011410D02*
X043877Y010380D01*
X045361Y010160D02*
X045391Y010560D01*
X045491Y010990D01*
X045504Y011035D01*
X045520Y011078D01*
X045540Y011121D01*
X045562Y011162D01*
X045587Y011201D01*
X045615Y011238D01*
X045646Y011274D01*
X045679Y011307D01*
X045714Y011337D01*
X045752Y011365D01*
X045791Y011390D01*
X044170Y011190D02*
X044135Y011248D01*
X044102Y011308D01*
X044073Y011369D01*
X044047Y011433D01*
X044025Y011497D01*
X044007Y011563D01*
X043992Y011629D01*
X043981Y011697D01*
X043974Y011764D01*
X043970Y011833D01*
X043971Y011901D01*
X043975Y011969D01*
X043983Y012037D01*
X043995Y012104D01*
X044010Y012170D01*
X046421Y011990D02*
X046415Y011857D01*
X046404Y011725D01*
X046386Y011593D01*
X046361Y011463D01*
X046331Y011334D01*
X046295Y011206D01*
X046252Y011080D01*
X046204Y010956D01*
X046150Y010835D01*
X046090Y010717D01*
X046024Y010601D01*
X045953Y010489D01*
X045877Y010380D01*
X044877Y009480D02*
X044824Y009520D01*
X044774Y009563D01*
X044726Y009609D01*
X044681Y009657D01*
X044638Y009708D01*
X044599Y009761D01*
X044562Y009816D01*
X044528Y009873D01*
X044498Y009932D01*
X044471Y009993D01*
X044447Y010054D01*
X044427Y010117D01*
X044410Y010181D01*
X044397Y010246D01*
X044387Y010312D01*
X044381Y010378D01*
X044379Y010444D01*
X044380Y010510D01*
X045361Y010160D02*
X045357Y010107D01*
X045358Y010054D01*
X045362Y010001D01*
X045370Y009948D01*
X045382Y009896D01*
X045397Y009845D01*
X045416Y009795D01*
X045439Y009747D01*
X045465Y009700D01*
X045495Y009656D01*
X045527Y009614D01*
X045563Y009574D01*
X045601Y009537D01*
X045642Y009503D01*
X045685Y009472D01*
X045731Y009444D01*
X045778Y009419D01*
X045827Y009398D01*
X045877Y009381D01*
X049212Y008941D02*
X049294Y008872D01*
X049380Y008807D01*
X049469Y008746D01*
X049560Y008690D01*
X049655Y008638D01*
X049751Y008591D01*
X049850Y008549D01*
X049951Y008511D01*
X050054Y008479D01*
X050158Y008451D01*
X050263Y008428D01*
X050369Y008411D01*
X050476Y008399D01*
X050583Y008392D01*
X050691Y008390D01*
X041031Y023940D02*
X041730Y024423D01*
X042450Y024874D01*
X043191Y025290D01*
X046890Y016491D02*
X047059Y016335D01*
X047234Y016187D01*
X047416Y016048D01*
X047604Y015917D01*
X047797Y015795D01*
X047997Y015682D01*
X048201Y015578D01*
X048410Y015483D01*
X048623Y015399D01*
X048839Y015324D01*
X049059Y015259D01*
X049282Y015205D01*
X049507Y015161D01*
X049733Y015127D01*
X049961Y015104D01*
X050190Y015091D01*
X050990Y011691D02*
X051079Y011682D01*
X051168Y011678D01*
X051258Y011678D01*
X051347Y011682D01*
X051436Y011691D01*
X052145Y011690D02*
X052797Y011690D01*
X053584Y011316D02*
X054291Y010836D01*
X054290Y010835D02*
X054303Y010808D01*
X054320Y010782D01*
X054339Y010759D01*
X054361Y010738D01*
X054386Y010720D01*
X054412Y010705D01*
X054440Y010694D01*
X054470Y010685D01*
X054500Y010681D01*
X054530Y010680D01*
X054561Y010683D01*
X054590Y010689D01*
X054991Y010190D02*
X054991Y009990D01*
X054991Y010190D02*
X054982Y010237D01*
X054969Y010283D01*
X054953Y010328D01*
X054934Y010372D01*
X054912Y010414D01*
X054886Y010455D01*
X054858Y010493D01*
X054826Y010530D01*
X054792Y010564D01*
X054756Y010595D01*
X054717Y010623D01*
X054677Y010649D01*
X054634Y010671D01*
X054590Y010690D01*
X054991Y009990D02*
X054977Y009935D01*
X054960Y009882D01*
X054939Y009829D01*
X054916Y009778D01*
X054889Y009728D01*
X054859Y009680D01*
X054826Y009634D01*
X054791Y009590D01*
X053691Y008990D02*
X053169Y008941D01*
X052590Y008690D02*
X052539Y008647D01*
X052485Y008607D01*
X052429Y008570D01*
X052371Y008536D01*
X052311Y008505D01*
X052249Y008478D01*
X052187Y008454D01*
X052122Y008434D01*
X052057Y008418D01*
X051991Y008405D01*
X051925Y008397D01*
X051858Y008391D01*
X051790Y008390D01*
X052590Y008690D02*
X052635Y008728D01*
X052682Y008763D01*
X052731Y008795D01*
X052781Y008824D01*
X052833Y008850D01*
X052887Y008873D01*
X052942Y008893D01*
X052997Y008910D01*
X053054Y008924D01*
X053112Y008934D01*
X053169Y008942D01*
X053690Y008990D02*
X053765Y008999D01*
X053840Y009011D01*
X053914Y009027D01*
X053987Y009047D01*
X054060Y009070D01*
X054131Y009096D01*
X054200Y009126D01*
X054268Y009159D01*
X054335Y009195D01*
X054400Y009235D01*
X054462Y009277D01*
X054523Y009323D01*
X054582Y009371D01*
X054638Y009422D01*
X054691Y009475D01*
X054742Y009532D01*
X054790Y009590D01*
X054291Y011544D02*
X054311Y012070D01*
X053584Y012064D01*
X050991Y011690D02*
X050920Y011715D01*
X050850Y011743D01*
X050783Y011774D01*
X050717Y011810D01*
X050653Y011848D01*
X050591Y011890D01*
X052690Y015590D02*
X052768Y015662D01*
X052849Y015730D01*
X052933Y015794D01*
X053020Y015854D01*
X053109Y015910D01*
X053201Y015962D01*
X053296Y016009D01*
X053392Y016052D01*
X053491Y016091D01*
X053391Y009990D02*
X053070Y010009D01*
X052751Y010043D01*
X052434Y010091D01*
X052119Y010155D01*
X051808Y010233D01*
X051500Y010325D01*
X051198Y010432D01*
X050901Y010553D01*
X050609Y010688D01*
X050325Y010837D01*
X050047Y010998D01*
X049778Y011173D01*
X049517Y011359D01*
X049265Y011558D01*
X049022Y011769D01*
X048790Y011990D01*
X046190Y012090D02*
X046188Y012034D01*
X046182Y011978D01*
X046173Y011923D01*
X046159Y011868D01*
X046142Y011815D01*
X046121Y011762D01*
X046097Y011712D01*
X046069Y011663D01*
X046037Y011616D01*
X046003Y011572D01*
X045966Y011530D01*
X045926Y011490D01*
X045883Y011454D01*
X045838Y011421D01*
X045790Y011390D01*
X053491Y016090D02*
X053565Y016117D01*
X053641Y016141D01*
X053717Y016162D01*
X053795Y016178D01*
X053873Y016191D01*
X053952Y016200D01*
X054031Y016206D01*
X054110Y016207D01*
X054190Y016205D01*
X054269Y016198D01*
X054348Y016188D01*
X054426Y016175D01*
X054503Y016157D01*
X054579Y016136D01*
X054655Y016111D01*
X054729Y016083D01*
X054801Y016051D01*
X054872Y016015D01*
X054942Y015976D01*
X055009Y015934D01*
X055074Y015889D01*
X055137Y015840D01*
X055197Y015789D01*
X055255Y015735D01*
X055310Y015678D01*
X055363Y015618D01*
X055412Y015556D01*
X055459Y015492D01*
X055502Y015425D01*
X055542Y015357D01*
X055579Y015286D01*
X055612Y015214D01*
X055641Y015141D01*
X055668Y015066D01*
X055690Y014990D01*
X056090Y014890D02*
X056088Y014964D01*
X056082Y015038D01*
X056073Y015111D01*
X056060Y015185D01*
X056043Y015257D01*
X056023Y015328D01*
X056000Y015399D01*
X055973Y015468D01*
X055943Y015536D01*
X055909Y015602D01*
X055873Y015666D01*
X055833Y015729D01*
X055790Y015790D01*
X056090Y016490D02*
X056059Y016543D01*
X056026Y016594D01*
X055989Y016644D01*
X055949Y016691D01*
X055907Y016736D01*
X055862Y016778D01*
X055815Y016817D01*
X055765Y016854D01*
X055714Y016887D01*
X055660Y016918D01*
X055605Y016945D01*
X055548Y016969D01*
X055490Y016989D01*
X056091Y016490D02*
X057491Y015290D01*
X060491Y013936D01*
X058301Y012351D02*
X058183Y012366D01*
X058065Y012388D01*
X057949Y012415D01*
X057834Y012448D01*
X057721Y012486D01*
X057610Y012529D01*
X057501Y012578D01*
X057395Y012632D01*
X057291Y012691D01*
X057190Y012755D01*
X057093Y012824D01*
X056998Y012897D01*
X056908Y012975D01*
X056821Y013057D01*
X056739Y013144D01*
X056660Y013234D01*
X056587Y013327D01*
X056517Y013424D01*
X056453Y013525D01*
X056393Y013628D01*
X056338Y013734D01*
X056289Y013843D01*
X056245Y013954D01*
X056206Y014067D01*
X056173Y014181D01*
X056145Y014297D01*
X056123Y014415D01*
X056106Y014533D01*
X056095Y014652D01*
X056090Y014771D01*
X056091Y014890D01*
X055790Y015790D02*
X055723Y015869D01*
X055652Y015945D01*
X055578Y016018D01*
X055500Y016087D01*
X055418Y016152D01*
X055334Y016213D01*
X055247Y016270D01*
X055157Y016322D01*
X055065Y016370D01*
X054970Y016414D01*
X054873Y016453D01*
X054775Y016487D01*
X054675Y016516D01*
X054574Y016540D01*
X054471Y016559D01*
X054368Y016574D01*
X054265Y016583D01*
X054161Y016587D01*
X054056Y016586D01*
X053952Y016580D01*
X053849Y016569D01*
X053746Y016552D01*
X053644Y016531D01*
X053543Y016505D01*
X053444Y016474D01*
X053346Y016438D01*
X053251Y016397D01*
X053157Y016352D01*
X053065Y016302D01*
X052976Y016248D01*
X052890Y016190D01*
X052589Y016749D02*
X053936Y017090D01*
X055690Y014990D02*
X055685Y014854D01*
X055685Y014718D01*
X055692Y014582D01*
X055706Y014447D01*
X055726Y014312D01*
X055753Y014179D01*
X055786Y014047D01*
X055825Y013916D01*
X055870Y013788D01*
X055922Y013662D01*
X055979Y013539D01*
X056042Y013418D01*
X056111Y013301D01*
X056186Y013187D01*
X056265Y013077D01*
X056350Y012971D01*
X056440Y012869D01*
X056535Y012771D01*
X056634Y012678D01*
X056738Y012590D01*
X056846Y012507D01*
X056957Y012429D01*
X057073Y012357D01*
X057191Y012290D01*
X057313Y012229D01*
X057437Y012174D01*
X057564Y012124D01*
X057693Y012081D01*
X057824Y012045D01*
X057956Y012014D01*
X058090Y011990D01*
X043090Y025490D02*
X042335Y025047D01*
X041598Y024573D01*
X040880Y024070D01*
X036891Y015190D02*
X037030Y014756D01*
X037184Y014328D01*
X037354Y013906D01*
X037540Y013490D01*
X014691Y010890D02*
X014404Y010728D01*
X014124Y010553D01*
X013854Y010364D01*
X013592Y010164D01*
X013341Y009951D01*
X013099Y009727D01*
X012868Y009492D01*
X012648Y009246D01*
X012440Y008990D01*
X008891Y017390D02*
X008591Y018290D01*
X022591Y012590D02*
X022981Y013012D01*
X023389Y013417D01*
X023815Y013803D01*
X024258Y014170D01*
X024716Y014516D01*
X025190Y014842D01*
X025677Y015147D01*
X026178Y015430D01*
X026691Y015690D01*
X028090Y018190D02*
X028691Y019048D01*
X029325Y019882D01*
X029990Y020691D01*
X050091Y025190D02*
X050419Y025043D01*
X050752Y024910D01*
X051091Y024790D01*
X053091Y024590D02*
X053179Y024358D01*
X053277Y024130D01*
X053386Y023907D01*
X053506Y023689D01*
X053635Y023477D01*
X053773Y023271D01*
X053922Y023072D01*
X054079Y022880D01*
X054245Y022695D01*
X054419Y022519D01*
X054601Y022350D01*
X054791Y022190D01*
X064091Y018490D02*
X064491Y017936D01*
X068490Y025390D02*
X068497Y025580D01*
X068512Y025769D01*
X068537Y025958D01*
X068571Y026145D01*
X068615Y026330D01*
X068667Y026513D01*
X068728Y026693D01*
X068798Y026870D01*
X068877Y027043D01*
X068963Y027212D01*
X069058Y027377D01*
X069161Y027537D01*
X069272Y027691D01*
X069390Y027840D01*
X064391Y030590D02*
X063991Y030190D01*
X063929Y030088D01*
X063862Y029989D01*
X063790Y029893D01*
X063714Y029801D01*
X063633Y029713D01*
X063548Y029629D01*
X063459Y029548D01*
X063367Y029473D01*
X063271Y029401D01*
X063172Y029335D01*
X063069Y029273D01*
X062964Y029216D01*
X062856Y029164D01*
X062746Y029118D01*
X062634Y029077D01*
X062520Y029041D01*
X062404Y029011D01*
X062287Y028986D01*
X062169Y028967D01*
X062050Y028954D01*
X061931Y028946D01*
X061811Y028944D01*
X061692Y028948D01*
X061573Y028957D01*
X061454Y028973D01*
X061336Y028994D01*
X061220Y029020D01*
X061104Y029052D01*
X060991Y029090D01*
X069490Y015187D02*
X068559Y014673D01*
X067604Y014204D01*
X066628Y013782D01*
X065633Y013407D01*
X064621Y013080D01*
X063594Y012802D01*
X062555Y012574D01*
X061507Y012396D01*
X060451Y012268D01*
X059390Y012191D01*
X029291Y020190D02*
X028729Y019449D01*
X028191Y018690D01*
X038875Y025678D02*
X039091Y025890D01*
X035990Y022390D02*
X035638Y022535D01*
X035290Y022690D01*
X051590Y026890D02*
X052128Y026880D01*
X052665Y026894D01*
X053201Y026932D01*
X053734Y026994D01*
X054265Y027080D01*
X054790Y027190D01*
X055090Y025190D02*
X055456Y025142D01*
X055823Y025109D01*
X056190Y025090D01*
X054691Y019890D02*
X053988Y020028D01*
X053291Y020190D01*
X038791Y024690D02*
X038491Y024645D01*
X033591Y020490D02*
X032891Y020590D01*
X031290Y023189D02*
X030671Y022159D01*
X030004Y021158D01*
X029290Y020189D01*
X035140Y019160D02*
X035951Y019971D01*
X017190Y012489D02*
X014690Y010889D01*
X023490Y022390D02*
X024543Y022708D01*
X025611Y022975D01*
X026690Y023190D01*
X031090Y023391D02*
X029536Y021009D01*
X027890Y018691D01*
X053390Y009990D02*
X053645Y009977D01*
X053900Y009956D01*
X054153Y009926D01*
X030890Y021400D02*
X029872Y020204D01*
X028905Y018966D01*
X027990Y017690D01*
X025691Y016090D02*
X024933Y015888D01*
X024183Y015654D01*
X023443Y015391D01*
X022715Y015097D01*
X021999Y014774D01*
X035991Y018290D02*
X036780Y017392D01*
X037530Y016461D01*
X038241Y015499D01*
X038911Y014509D01*
X039539Y013491D01*
X026591Y015890D02*
X025766Y015464D01*
X024963Y015000D01*
X024183Y014497D01*
X023428Y013958D01*
X022699Y013383D01*
X021999Y012774D01*
X021898Y013775D02*
X022753Y014317D01*
X023632Y014821D01*
X024532Y015285D01*
X025452Y015708D01*
X026390Y016090D01*
X040760Y025571D02*
X041736Y025772D01*
X031291Y020290D02*
X030791Y019590D01*
X027260Y008869D02*
X025590Y008889D01*
X024591Y024591D02*
X021491Y024891D01*
X035670Y020800D02*
X036490Y021590D01*
X050691Y008391D02*
X051791Y008391D01*
X038540Y013390D02*
X037166Y015878D01*
X035711Y018320D01*
X047190Y019191D02*
X045490Y024491D01*
D30*
X037691Y027890D02*
X037691Y028590D01*
D31*
X026391Y024290D02*
X026308Y024210D01*
X026221Y024134D01*
X026132Y024062D01*
X026039Y023994D01*
X025943Y023930D01*
X025844Y023871D01*
X025742Y023816D01*
X025638Y023766D01*
X025532Y023721D01*
X025424Y023681D01*
X025315Y023646D01*
X025203Y023616D01*
X025091Y023590D01*
X023090Y023590D02*
X022939Y023499D01*
X022783Y023415D01*
X022624Y023339D01*
X022461Y023271D01*
X022295Y023211D01*
X022126Y023160D01*
X021954Y023116D01*
X021781Y023082D01*
X021606Y023055D01*
X021431Y023037D01*
X021254Y023028D01*
X021078Y023028D01*
X020901Y023036D01*
X020725Y023053D01*
X020550Y023078D01*
X020377Y023112D01*
X020206Y023155D01*
X020036Y023206D01*
X019870Y023265D01*
X019707Y023332D01*
X019547Y023407D01*
X019391Y023490D01*
X013490Y026290D02*
X013256Y026241D01*
X013024Y026180D01*
X012795Y026108D01*
X012570Y026026D01*
X012349Y025933D01*
X012133Y025829D01*
X011922Y025716D01*
X011716Y025592D01*
X011517Y025459D01*
X011324Y025317D01*
X011138Y025166D01*
X010959Y025006D01*
X010788Y024838D01*
X010626Y024662D01*
X010471Y024478D01*
X010326Y024287D01*
X010190Y024090D01*
X007736Y023190D02*
X006923Y023470D01*
X012190Y022290D02*
X012273Y022245D01*
X012358Y022205D01*
X012445Y022170D01*
X012533Y022138D01*
X012623Y022111D01*
X012714Y022088D01*
X012806Y022069D01*
X012899Y022055D01*
X012993Y022046D01*
X013087Y022041D01*
X013181Y022040D01*
X013274Y022045D01*
X013368Y022053D01*
X013461Y022066D01*
X013553Y022084D01*
X013644Y022106D01*
X013735Y022133D01*
X013823Y022164D01*
X013910Y022199D01*
X013996Y022238D01*
X014079Y022281D01*
X014160Y022329D01*
X014239Y022380D01*
X014315Y022435D01*
X014389Y022494D01*
X014459Y022556D01*
X014527Y022621D01*
X014591Y022690D01*
X014590Y022690D02*
X014719Y022827D01*
X014853Y022958D01*
X014994Y023082D01*
X015141Y023199D01*
X015294Y023309D01*
X015451Y023412D01*
X015613Y023506D01*
X015780Y023593D01*
X015950Y023672D01*
X016125Y023742D01*
X016302Y023804D01*
X016482Y023857D01*
X016665Y023901D01*
X016849Y023936D01*
X017035Y023963D01*
X017222Y023980D01*
X017410Y023988D01*
X017598Y023987D01*
X017785Y023978D01*
X017972Y023959D01*
X018158Y023931D01*
X018342Y023894D01*
X018524Y023848D01*
X018704Y023793D01*
X018881Y023730D01*
X019054Y023658D01*
X019224Y023578D01*
X019390Y023490D01*
X012190Y022290D02*
X012061Y022366D01*
X011936Y022448D01*
X011814Y022536D01*
X011697Y022629D01*
X011584Y022728D01*
X011475Y022831D01*
X011371Y022939D01*
X011272Y023052D01*
X011179Y023169D01*
X011090Y023290D01*
X013491Y026290D02*
X015091Y026290D01*
X020945Y017990D02*
X021039Y018020D01*
X021131Y018054D01*
X021221Y018093D01*
X021310Y018136D01*
X021396Y018182D01*
X021481Y018233D01*
X021562Y018288D01*
X021641Y018346D01*
X021718Y018408D01*
X021791Y018474D01*
X021861Y018543D01*
X021928Y018615D01*
X021991Y018690D01*
X023991Y018890D02*
X024591Y018390D01*
X023991Y018890D02*
X023932Y018937D01*
X023872Y018980D01*
X023808Y019020D01*
X023743Y019056D01*
X023676Y019089D01*
X023608Y019118D01*
X023538Y019144D01*
X023466Y019166D01*
X023394Y019184D01*
X023321Y019198D01*
X023247Y019208D01*
X023172Y019215D01*
X023098Y019217D01*
X023023Y019215D01*
X022949Y019210D01*
X022875Y019201D01*
X022801Y019187D01*
X022729Y019170D01*
X022657Y019149D01*
X022587Y019124D01*
X022518Y019096D01*
X022450Y019064D01*
X022385Y019028D01*
X022321Y018989D01*
X022260Y018947D01*
X022201Y018902D01*
X022144Y018853D01*
X022090Y018802D01*
X022039Y018747D01*
X021990Y018690D01*
X020236Y017990D02*
X019691Y018090D01*
X023091Y023590D02*
X023272Y023699D01*
X023457Y023800D01*
X023647Y023891D01*
X023842Y023974D01*
X024040Y024047D01*
X024241Y024111D01*
X024445Y024165D01*
X024651Y024210D01*
X024860Y024245D01*
X025069Y024270D01*
X025280Y024285D01*
X025491Y024290D01*
X021490Y024889D02*
X021034Y024917D01*
X020579Y024967D01*
X020127Y025038D01*
X019679Y025131D01*
X019236Y025245D01*
X018799Y025381D01*
X018369Y025537D01*
X017947Y025714D01*
X017534Y025911D01*
X017131Y026127D01*
X016738Y026363D01*
X016358Y026617D01*
X015990Y026889D01*
X016291Y020290D02*
X016895Y020412D01*
X017493Y020560D01*
X018084Y020735D01*
X018666Y020936D01*
X019239Y021162D01*
X019802Y021413D01*
X020353Y021690D01*
X020891Y021990D01*
X020891Y021989D02*
X021455Y022303D01*
X022033Y022589D01*
X022624Y022847D01*
X023227Y023077D01*
X023840Y023277D01*
X024461Y023448D01*
X025091Y023589D01*
X054645Y017090D02*
X055191Y017690D01*
X065491Y017936D02*
X066936Y017990D01*
X067645Y017990D02*
X068191Y016890D01*
X068316Y016651D01*
X068453Y016419D01*
X068601Y016193D01*
X068759Y015975D01*
X068928Y015765D01*
X069106Y015563D01*
X069294Y015370D01*
X069491Y015185D01*
X068491Y021090D02*
X067545Y021090D01*
X066836Y021090D02*
X065991Y021090D01*
X065495Y021182D01*
X014745Y008990D02*
X014691Y008190D01*
X014036Y008990D02*
X012441Y008990D01*
M02*
