G75*
G70*
%OFA0B0*%
%FSLAX24Y24*%
%IPPOS*%
%LPD*%
%AMOC8*
5,1,8,0,0,1.08239X$1,22.5*
%
%ADD10R,0.0315X0.0472*%
%ADD11R,0.0276X0.0354*%
%ADD12R,0.0591X0.0098*%
%ADD13R,0.0394X0.0197*%
%ADD14R,0.0472X0.0315*%
%ADD15R,0.0276X0.0236*%
%ADD16R,0.0354X0.0276*%
D10*
X014036Y008990D03*
X014745Y008990D03*
X021545Y009244D03*
X022254Y009244D03*
X023024Y009292D03*
X023732Y009292D03*
X024453Y009316D03*
X025161Y009316D03*
X025849Y009311D03*
X026557Y009311D03*
X031551Y011520D03*
X032260Y011520D03*
X033936Y011390D03*
X034645Y011390D03*
X034898Y008672D03*
X034190Y008672D03*
X033655Y008670D03*
X032946Y008670D03*
X035883Y008679D03*
X036591Y008679D03*
X037036Y008670D03*
X037745Y008670D03*
X049336Y012890D03*
X050045Y012890D03*
X051436Y011690D03*
X052145Y011690D03*
X053936Y017090D03*
X054645Y017090D03*
X066836Y021090D03*
X067545Y021090D03*
X067645Y017990D03*
X066936Y017990D03*
G36*
X042097Y026250D02*
X042367Y026407D01*
X042603Y026000D01*
X042333Y025843D01*
X042097Y026250D01*
G37*
G36*
X041484Y025896D02*
X041754Y026053D01*
X041990Y025646D01*
X041720Y025489D01*
X041484Y025896D01*
G37*
G36*
X040956Y026309D02*
X041250Y026416D01*
X041412Y025973D01*
X041118Y025866D01*
X040956Y026309D01*
G37*
G36*
X040290Y026067D02*
X040584Y026174D01*
X040746Y025731D01*
X040452Y025624D01*
X040290Y026067D01*
G37*
G36*
X033320Y018358D02*
X033098Y018580D01*
X033430Y018912D01*
X033652Y018690D01*
X033320Y018358D01*
G37*
G36*
X033821Y017857D02*
X033599Y018079D01*
X033931Y018411D01*
X034153Y018189D01*
X033821Y017857D01*
G37*
G36*
X029967Y015345D02*
X030237Y015502D01*
X030473Y015095D01*
X030203Y014938D01*
X029967Y015345D01*
G37*
G36*
X029354Y014990D02*
X029624Y015147D01*
X029860Y014740D01*
X029590Y014583D01*
X029354Y014990D01*
G37*
X020945Y017990D03*
X020236Y017990D03*
X008445Y023190D03*
X007736Y023190D03*
D11*
G36*
X031698Y017611D02*
X031893Y017806D01*
X032142Y017557D01*
X031947Y017362D01*
X031698Y017611D01*
G37*
G36*
X032060Y017972D02*
X032255Y018167D01*
X032504Y017918D01*
X032309Y017723D01*
X032060Y017972D01*
G37*
G36*
X032751Y017281D02*
X032946Y017476D01*
X033195Y017227D01*
X033000Y017032D01*
X032751Y017281D01*
G37*
G36*
X032390Y016919D02*
X032585Y017114D01*
X032834Y016865D01*
X032639Y016670D01*
X032390Y016919D01*
G37*
X058018Y009190D03*
X058963Y009190D03*
D12*
G36*
X038145Y019101D02*
X038561Y018685D01*
X038491Y018615D01*
X038075Y019031D01*
X038145Y019101D01*
G37*
G36*
X038284Y019240D02*
X038700Y018824D01*
X038630Y018754D01*
X038214Y019170D01*
X038284Y019240D01*
G37*
G36*
X038423Y019379D02*
X038839Y018963D01*
X038769Y018893D01*
X038353Y019309D01*
X038423Y019379D01*
G37*
G36*
X038562Y019518D02*
X038978Y019102D01*
X038908Y019032D01*
X038492Y019448D01*
X038562Y019518D01*
G37*
G36*
X038701Y019658D02*
X039117Y019242D01*
X039047Y019172D01*
X038631Y019588D01*
X038701Y019658D01*
G37*
G36*
X038841Y019797D02*
X039257Y019381D01*
X039187Y019311D01*
X038771Y019727D01*
X038841Y019797D01*
G37*
G36*
X038980Y019936D02*
X039396Y019520D01*
X039326Y019450D01*
X038910Y019866D01*
X038980Y019936D01*
G37*
G36*
X039119Y020075D02*
X039535Y019659D01*
X039465Y019589D01*
X039049Y020005D01*
X039119Y020075D01*
G37*
G36*
X039258Y020214D02*
X039674Y019798D01*
X039604Y019728D01*
X039188Y020144D01*
X039258Y020214D01*
G37*
G36*
X039397Y020354D02*
X039813Y019938D01*
X039743Y019868D01*
X039327Y020284D01*
X039397Y020354D01*
G37*
G36*
X039536Y020493D02*
X039952Y020077D01*
X039882Y020007D01*
X039466Y020423D01*
X039536Y020493D01*
G37*
G36*
X039676Y020632D02*
X040092Y020216D01*
X040022Y020146D01*
X039606Y020562D01*
X039676Y020632D01*
G37*
G36*
X039815Y020771D02*
X040231Y020355D01*
X040161Y020285D01*
X039745Y020701D01*
X039815Y020771D01*
G37*
G36*
X039954Y020910D02*
X040370Y020494D01*
X040300Y020424D01*
X039884Y020840D01*
X039954Y020910D01*
G37*
G36*
X040093Y021050D02*
X040509Y020634D01*
X040439Y020564D01*
X040023Y020980D01*
X040093Y021050D01*
G37*
G36*
X040232Y021189D02*
X040648Y020773D01*
X040578Y020703D01*
X040162Y021119D01*
X040232Y021189D01*
G37*
G36*
X040372Y021328D02*
X040788Y020912D01*
X040718Y020842D01*
X040302Y021258D01*
X040372Y021328D01*
G37*
G36*
X040511Y021467D02*
X040927Y021051D01*
X040857Y020981D01*
X040441Y021397D01*
X040511Y021467D01*
G37*
G36*
X040650Y021606D02*
X041066Y021190D01*
X040996Y021120D01*
X040580Y021536D01*
X040650Y021606D01*
G37*
G36*
X040789Y021746D02*
X041205Y021330D01*
X041135Y021260D01*
X040719Y021676D01*
X040789Y021746D01*
G37*
G36*
X040928Y021885D02*
X041344Y021469D01*
X041274Y021399D01*
X040858Y021815D01*
X040928Y021885D01*
G37*
G36*
X041068Y022024D02*
X041484Y021608D01*
X041414Y021538D01*
X040998Y021954D01*
X041068Y022024D01*
G37*
G36*
X041207Y022163D02*
X041623Y021747D01*
X041553Y021677D01*
X041137Y022093D01*
X041207Y022163D01*
G37*
G36*
X041346Y022302D02*
X041762Y021886D01*
X041692Y021816D01*
X041276Y022232D01*
X041346Y022302D01*
G37*
G36*
X041276Y022861D02*
X041692Y023277D01*
X041762Y023207D01*
X041346Y022791D01*
X041276Y022861D01*
G37*
G36*
X041137Y023000D02*
X041553Y023416D01*
X041623Y023346D01*
X041207Y022930D01*
X041137Y023000D01*
G37*
G36*
X040998Y023139D02*
X041414Y023555D01*
X041484Y023485D01*
X041068Y023069D01*
X040998Y023139D01*
G37*
G36*
X040858Y023278D02*
X041274Y023694D01*
X041344Y023624D01*
X040928Y023208D01*
X040858Y023278D01*
G37*
G36*
X040719Y023417D02*
X041135Y023833D01*
X041205Y023763D01*
X040789Y023347D01*
X040719Y023417D01*
G37*
G36*
X040580Y023557D02*
X040996Y023973D01*
X041066Y023903D01*
X040650Y023487D01*
X040580Y023557D01*
G37*
G36*
X040441Y023696D02*
X040857Y024112D01*
X040927Y024042D01*
X040511Y023626D01*
X040441Y023696D01*
G37*
G36*
X040302Y023835D02*
X040718Y024251D01*
X040788Y024181D01*
X040372Y023765D01*
X040302Y023835D01*
G37*
G36*
X040162Y023974D02*
X040578Y024390D01*
X040648Y024320D01*
X040232Y023904D01*
X040162Y023974D01*
G37*
G36*
X040023Y024113D02*
X040439Y024529D01*
X040509Y024459D01*
X040093Y024043D01*
X040023Y024113D01*
G37*
G36*
X039884Y024253D02*
X040300Y024669D01*
X040370Y024599D01*
X039954Y024183D01*
X039884Y024253D01*
G37*
G36*
X039745Y024392D02*
X040161Y024808D01*
X040231Y024738D01*
X039815Y024322D01*
X039745Y024392D01*
G37*
G36*
X039606Y024531D02*
X040022Y024947D01*
X040092Y024877D01*
X039676Y024461D01*
X039606Y024531D01*
G37*
G36*
X039466Y024670D02*
X039882Y025086D01*
X039952Y025016D01*
X039536Y024600D01*
X039466Y024670D01*
G37*
G36*
X039327Y024809D02*
X039743Y025225D01*
X039813Y025155D01*
X039397Y024739D01*
X039327Y024809D01*
G37*
G36*
X039188Y024949D02*
X039604Y025365D01*
X039674Y025295D01*
X039258Y024879D01*
X039188Y024949D01*
G37*
G36*
X039049Y025088D02*
X039465Y025504D01*
X039535Y025434D01*
X039119Y025018D01*
X039049Y025088D01*
G37*
G36*
X038910Y025227D02*
X039326Y025643D01*
X039396Y025573D01*
X038980Y025157D01*
X038910Y025227D01*
G37*
G36*
X038771Y025366D02*
X039187Y025782D01*
X039257Y025712D01*
X038841Y025296D01*
X038771Y025366D01*
G37*
G36*
X038631Y025505D02*
X039047Y025921D01*
X039117Y025851D01*
X038701Y025435D01*
X038631Y025505D01*
G37*
G36*
X038492Y025645D02*
X038908Y026061D01*
X038978Y025991D01*
X038562Y025575D01*
X038492Y025645D01*
G37*
G36*
X038353Y025784D02*
X038769Y026200D01*
X038839Y026130D01*
X038423Y025714D01*
X038353Y025784D01*
G37*
G36*
X038214Y025923D02*
X038630Y026339D01*
X038700Y026269D01*
X038284Y025853D01*
X038214Y025923D01*
G37*
G36*
X038075Y026062D02*
X038491Y026478D01*
X038561Y026408D01*
X038145Y025992D01*
X038075Y026062D01*
G37*
G36*
X037935Y026201D02*
X038351Y026617D01*
X038421Y026547D01*
X038005Y026131D01*
X037935Y026201D01*
G37*
G36*
X037377Y026131D02*
X036961Y026547D01*
X037031Y026617D01*
X037447Y026201D01*
X037377Y026131D01*
G37*
G36*
X037238Y025992D02*
X036822Y026408D01*
X036892Y026478D01*
X037308Y026062D01*
X037238Y025992D01*
G37*
G36*
X037099Y025853D02*
X036683Y026269D01*
X036753Y026339D01*
X037169Y025923D01*
X037099Y025853D01*
G37*
G36*
X036959Y025714D02*
X036543Y026130D01*
X036613Y026200D01*
X037029Y025784D01*
X036959Y025714D01*
G37*
G36*
X036820Y025575D02*
X036404Y025991D01*
X036474Y026061D01*
X036890Y025645D01*
X036820Y025575D01*
G37*
G36*
X036681Y025435D02*
X036265Y025851D01*
X036335Y025921D01*
X036751Y025505D01*
X036681Y025435D01*
G37*
G36*
X036542Y025296D02*
X036126Y025712D01*
X036196Y025782D01*
X036612Y025366D01*
X036542Y025296D01*
G37*
G36*
X036403Y025157D02*
X035987Y025573D01*
X036057Y025643D01*
X036473Y025227D01*
X036403Y025157D01*
G37*
G36*
X036263Y025018D02*
X035847Y025434D01*
X035917Y025504D01*
X036333Y025088D01*
X036263Y025018D01*
G37*
G36*
X036124Y024879D02*
X035708Y025295D01*
X035778Y025365D01*
X036194Y024949D01*
X036124Y024879D01*
G37*
G36*
X035985Y024739D02*
X035569Y025155D01*
X035639Y025225D01*
X036055Y024809D01*
X035985Y024739D01*
G37*
G36*
X035846Y024600D02*
X035430Y025016D01*
X035500Y025086D01*
X035916Y024670D01*
X035846Y024600D01*
G37*
G36*
X035707Y024461D02*
X035291Y024877D01*
X035361Y024947D01*
X035777Y024531D01*
X035707Y024461D01*
G37*
G36*
X035567Y024322D02*
X035151Y024738D01*
X035221Y024808D01*
X035637Y024392D01*
X035567Y024322D01*
G37*
G36*
X035428Y024183D02*
X035012Y024599D01*
X035082Y024669D01*
X035498Y024253D01*
X035428Y024183D01*
G37*
G36*
X035289Y024043D02*
X034873Y024459D01*
X034943Y024529D01*
X035359Y024113D01*
X035289Y024043D01*
G37*
G36*
X035150Y023904D02*
X034734Y024320D01*
X034804Y024390D01*
X035220Y023974D01*
X035150Y023904D01*
G37*
G36*
X035011Y023765D02*
X034595Y024181D01*
X034665Y024251D01*
X035081Y023835D01*
X035011Y023765D01*
G37*
G36*
X034872Y023626D02*
X034456Y024042D01*
X034526Y024112D01*
X034942Y023696D01*
X034872Y023626D01*
G37*
G36*
X034732Y023487D02*
X034316Y023903D01*
X034386Y023973D01*
X034802Y023557D01*
X034732Y023487D01*
G37*
G36*
X034593Y023347D02*
X034177Y023763D01*
X034247Y023833D01*
X034663Y023417D01*
X034593Y023347D01*
G37*
G36*
X034454Y023208D02*
X034038Y023624D01*
X034108Y023694D01*
X034524Y023278D01*
X034454Y023208D01*
G37*
G36*
X034315Y023069D02*
X033899Y023485D01*
X033969Y023555D01*
X034385Y023139D01*
X034315Y023069D01*
G37*
G36*
X034176Y022930D02*
X033760Y023346D01*
X033830Y023416D01*
X034246Y023000D01*
X034176Y022930D01*
G37*
G36*
X034036Y022791D02*
X033620Y023207D01*
X033690Y023277D01*
X034106Y022861D01*
X034036Y022791D01*
G37*
G36*
X034106Y022232D02*
X033690Y021816D01*
X033620Y021886D01*
X034036Y022302D01*
X034106Y022232D01*
G37*
G36*
X034246Y022093D02*
X033830Y021677D01*
X033760Y021747D01*
X034176Y022163D01*
X034246Y022093D01*
G37*
G36*
X034385Y021954D02*
X033969Y021538D01*
X033899Y021608D01*
X034315Y022024D01*
X034385Y021954D01*
G37*
G36*
X034524Y021815D02*
X034108Y021399D01*
X034038Y021469D01*
X034454Y021885D01*
X034524Y021815D01*
G37*
G36*
X034663Y021676D02*
X034247Y021260D01*
X034177Y021330D01*
X034593Y021746D01*
X034663Y021676D01*
G37*
G36*
X034802Y021536D02*
X034386Y021120D01*
X034316Y021190D01*
X034732Y021606D01*
X034802Y021536D01*
G37*
G36*
X034942Y021397D02*
X034526Y020981D01*
X034456Y021051D01*
X034872Y021467D01*
X034942Y021397D01*
G37*
G36*
X035081Y021258D02*
X034665Y020842D01*
X034595Y020912D01*
X035011Y021328D01*
X035081Y021258D01*
G37*
G36*
X035220Y021119D02*
X034804Y020703D01*
X034734Y020773D01*
X035150Y021189D01*
X035220Y021119D01*
G37*
G36*
X035359Y020980D02*
X034943Y020564D01*
X034873Y020634D01*
X035289Y021050D01*
X035359Y020980D01*
G37*
G36*
X035498Y020840D02*
X035082Y020424D01*
X035012Y020494D01*
X035428Y020910D01*
X035498Y020840D01*
G37*
G36*
X035637Y020701D02*
X035221Y020285D01*
X035151Y020355D01*
X035567Y020771D01*
X035637Y020701D01*
G37*
G36*
X035777Y020562D02*
X035361Y020146D01*
X035291Y020216D01*
X035707Y020632D01*
X035777Y020562D01*
G37*
G36*
X035916Y020423D02*
X035500Y020007D01*
X035430Y020077D01*
X035846Y020493D01*
X035916Y020423D01*
G37*
G36*
X036055Y020284D02*
X035639Y019868D01*
X035569Y019938D01*
X035985Y020354D01*
X036055Y020284D01*
G37*
G36*
X036194Y020144D02*
X035778Y019728D01*
X035708Y019798D01*
X036124Y020214D01*
X036194Y020144D01*
G37*
G36*
X036333Y020005D02*
X035917Y019589D01*
X035847Y019659D01*
X036263Y020075D01*
X036333Y020005D01*
G37*
G36*
X036473Y019866D02*
X036057Y019450D01*
X035987Y019520D01*
X036403Y019936D01*
X036473Y019866D01*
G37*
G36*
X036612Y019727D02*
X036196Y019311D01*
X036126Y019381D01*
X036542Y019797D01*
X036612Y019727D01*
G37*
G36*
X036751Y019588D02*
X036335Y019172D01*
X036265Y019242D01*
X036681Y019658D01*
X036751Y019588D01*
G37*
G36*
X036890Y019448D02*
X036474Y019032D01*
X036404Y019102D01*
X036820Y019518D01*
X036890Y019448D01*
G37*
G36*
X037029Y019309D02*
X036613Y018893D01*
X036543Y018963D01*
X036959Y019379D01*
X037029Y019309D01*
G37*
G36*
X037169Y019170D02*
X036753Y018754D01*
X036683Y018824D01*
X037099Y019240D01*
X037169Y019170D01*
G37*
G36*
X037308Y019031D02*
X036892Y018615D01*
X036822Y018685D01*
X037238Y019101D01*
X037308Y019031D01*
G37*
G36*
X037447Y018892D02*
X037031Y018476D01*
X036961Y018546D01*
X037377Y018962D01*
X037447Y018892D01*
G37*
G36*
X038005Y018962D02*
X038421Y018546D01*
X038351Y018476D01*
X037935Y018892D01*
X038005Y018962D01*
G37*
D13*
X050691Y014512D03*
X050691Y014008D03*
X050691Y013504D03*
X050691Y013000D03*
X052651Y013000D03*
X052651Y013504D03*
X052651Y014008D03*
X052651Y014512D03*
D14*
X018991Y008636D03*
X018991Y009344D03*
X026191Y010736D03*
X026991Y010736D03*
X026991Y011444D03*
X026191Y011444D03*
X053549Y014077D03*
X053549Y014786D03*
X054291Y011544D03*
X054291Y010836D03*
D15*
X053584Y011316D03*
X052797Y011690D03*
X053584Y012064D03*
D16*
X055091Y012218D03*
X055091Y013163D03*
M02*
