G75*
G70*
%OFA0B0*%
%FSLAX24Y24*%
%IPPOS*%
%LPD*%
%AMOC8*
5,1,8,0,0,1.08239X$1,22.5*
%
%ADD10R,0.0395X0.0552*%
%ADD11R,0.0477X0.0477*%
%ADD12C,0.0980*%
%ADD13C,0.0780*%
%ADD14C,0.0820*%
%ADD15R,0.0674X0.0674*%
%ADD16R,0.0789X0.0789*%
%ADD17R,0.0820X0.0820*%
%ADD18C,0.1380*%
%ADD19C,0.0476*%
%ADD20OC8,0.0476*%
D10*
X032104Y024729D03*
X032813Y024729D03*
D11*
G36*
X030764Y017819D02*
X030428Y018155D01*
X030764Y018491D01*
X031100Y018155D01*
X030764Y017819D01*
G37*
G36*
X032123Y016461D02*
X031787Y016797D01*
X032123Y017133D01*
X032459Y016797D01*
X032123Y016461D01*
G37*
D12*
X024152Y017127D03*
X018152Y017127D03*
X013691Y015815D03*
X007691Y015815D03*
X007691Y010565D03*
X013691Y010565D03*
X018152Y022377D03*
X024152Y022377D03*
X046239Y022274D03*
X052239Y022274D03*
X052239Y017024D03*
X056545Y015815D03*
X062545Y015815D03*
X062545Y010565D03*
X056545Y010565D03*
X046239Y017024D03*
D13*
X009691Y009190D03*
X010691Y009190D03*
X011691Y009190D03*
X006691Y012190D03*
X006691Y013190D03*
X006691Y014190D03*
X009441Y016190D03*
X011941Y016190D03*
X011941Y018190D03*
X009441Y018190D03*
X019902Y016752D03*
X022402Y016752D03*
X022402Y014752D03*
X019902Y014752D03*
X025152Y018752D03*
X025152Y019752D03*
X025152Y020752D03*
X022152Y023752D03*
X021152Y023752D03*
X020152Y023752D03*
X047989Y016649D03*
X050489Y016649D03*
X050489Y014649D03*
X047989Y014649D03*
X053239Y018649D03*
X053239Y019649D03*
X053239Y020649D03*
X058295Y018190D03*
X060795Y018190D03*
X060795Y016190D03*
X058295Y016190D03*
X055545Y014190D03*
X055545Y013190D03*
X055545Y012190D03*
X058545Y009190D03*
X059545Y009190D03*
X060545Y009190D03*
X050239Y023649D03*
X049239Y023649D03*
X048239Y023649D03*
D14*
X048491Y025940D03*
X047491Y025840D03*
X046491Y025940D03*
X044991Y025940D03*
X043991Y025840D03*
X042991Y025940D03*
X041491Y025940D03*
X040491Y025840D03*
X039491Y025940D03*
X037991Y025940D03*
X036991Y025840D03*
X035991Y025940D03*
X034491Y025940D03*
X033491Y025840D03*
X032491Y025940D03*
X030991Y025940D03*
X029991Y025840D03*
X028991Y025940D03*
X027491Y025940D03*
X026491Y025840D03*
X025491Y025940D03*
X023991Y025940D03*
X022991Y025840D03*
X021991Y025940D03*
X020491Y025940D03*
X019491Y025840D03*
X018491Y025940D03*
X016991Y025940D03*
X015991Y025840D03*
X014991Y025940D03*
X013555Y025911D03*
X013655Y024911D03*
X013555Y023911D03*
X026899Y022574D03*
X027821Y022640D03*
X028961Y022640D03*
X026799Y021574D03*
X026899Y020574D03*
X026799Y019574D03*
X026899Y018574D03*
X027039Y013490D03*
X028039Y013390D03*
X029039Y013490D03*
X030039Y013390D03*
X031039Y013490D03*
X032039Y013390D03*
X033039Y013490D03*
X034039Y013390D03*
X035039Y013490D03*
X036039Y013390D03*
X037039Y013490D03*
X038039Y013390D03*
X039039Y013490D03*
X040039Y013390D03*
X041039Y013490D03*
X042039Y013390D03*
X042039Y012390D03*
X041039Y012490D03*
X040039Y012390D03*
X039039Y012490D03*
X038039Y012390D03*
X037039Y012490D03*
X036039Y012390D03*
X035039Y012490D03*
X034039Y012390D03*
X032039Y012390D03*
X031039Y012490D03*
X030039Y012390D03*
X029039Y012490D03*
X028039Y012390D03*
X027039Y012490D03*
X026039Y012390D03*
X025039Y012490D03*
X024039Y012390D03*
X024039Y013390D03*
X025039Y013490D03*
X026039Y013390D03*
X026377Y010480D03*
X027377Y010380D03*
X028377Y010480D03*
X029377Y010380D03*
X030377Y010480D03*
X031377Y010380D03*
X032377Y010480D03*
X033377Y010380D03*
X034377Y010480D03*
X034377Y009480D03*
X035377Y009380D03*
X036377Y009480D03*
X037377Y009380D03*
X038377Y009480D03*
X039377Y009380D03*
X040377Y009480D03*
X041377Y009380D03*
X042377Y009480D03*
X043377Y009380D03*
X044377Y009480D03*
X044377Y010480D03*
X043377Y010380D03*
X042377Y010480D03*
X041377Y010380D03*
X040377Y010480D03*
X039377Y010380D03*
X038377Y010480D03*
X037377Y010380D03*
X036377Y010480D03*
X033377Y009380D03*
X032377Y009480D03*
X031377Y009380D03*
X030377Y009480D03*
X029377Y009380D03*
X028377Y009480D03*
X027377Y009380D03*
X026377Y009480D03*
X043590Y018694D03*
X043490Y019694D03*
X043590Y020694D03*
X043490Y021694D03*
X043590Y022694D03*
X043490Y023694D03*
X049991Y025940D03*
X050991Y025840D03*
X051991Y025940D03*
X053491Y025940D03*
X054491Y025840D03*
X055491Y025940D03*
X056984Y025929D03*
X056884Y024929D03*
X056984Y023929D03*
D15*
X048403Y011686D03*
X047285Y011686D03*
D16*
X047754Y009826D03*
X048738Y008841D03*
X046769Y008841D03*
X051512Y008841D03*
X053480Y008841D03*
X052496Y009826D03*
D17*
X043039Y012490D03*
X043039Y013490D03*
X025377Y010380D03*
X025377Y009380D03*
D18*
X017986Y011863D03*
X014203Y020673D03*
X052356Y012454D03*
X056213Y020670D03*
D19*
X033320Y024588D03*
D20*
X032721Y023120D03*
X032201Y023210D03*
X034009Y022691D03*
X034754Y022328D03*
X035041Y022740D03*
X035586Y022564D03*
X036343Y022656D03*
X037080Y021785D03*
X036691Y021390D03*
X036240Y021672D03*
X037842Y021038D03*
X037009Y020025D03*
X036478Y019785D03*
X035545Y020092D03*
X036053Y020521D03*
X034557Y019855D03*
X034306Y019347D03*
X033852Y019934D03*
X033336Y020249D03*
X034341Y021070D03*
X034521Y021630D03*
X033841Y021650D03*
X033117Y021647D03*
X030551Y022952D03*
X029981Y023130D03*
X030427Y023826D03*
X028478Y023293D03*
X028391Y021810D03*
X028881Y021550D03*
X028997Y019045D03*
X028211Y016919D03*
X028586Y016540D03*
X028980Y016175D03*
X028217Y016084D03*
X027664Y015882D03*
X027050Y015610D03*
X026580Y015285D03*
X027347Y015145D03*
X025826Y014977D03*
X025170Y014944D03*
X025884Y016433D03*
X026533Y016442D03*
X027102Y016433D03*
X027671Y016412D03*
X030336Y016369D03*
X032491Y014290D03*
X033961Y014530D03*
X036741Y015980D03*
X036121Y016430D03*
X036141Y017020D03*
X035591Y016970D03*
X035136Y018142D03*
X035620Y019206D03*
X037551Y018410D03*
X038648Y016789D03*
X038391Y015690D03*
X037491Y015690D03*
X039291Y015790D03*
X040191Y015860D03*
X041091Y015890D03*
X042201Y016920D03*
X044191Y017490D03*
X045991Y017890D03*
X044797Y019186D03*
X041939Y019611D03*
X040131Y020580D03*
X040081Y021180D03*
X042789Y022572D03*
X040330Y023340D03*
X039697Y022790D03*
X035860Y024777D03*
X034542Y023203D03*
X045427Y020918D03*
X046291Y020690D03*
X050491Y017890D03*
X054591Y016890D03*
X060091Y015490D03*
X060391Y013290D03*
X048741Y015580D03*
X041791Y011410D03*
X040721Y011400D03*
X039551Y011480D03*
X038591Y011490D03*
X037611Y011460D03*
X036791Y011490D03*
X035921Y011430D03*
X035091Y011410D03*
X032941Y011860D03*
X028852Y008832D03*
X027907Y008832D03*
X024291Y009490D03*
X023498Y009501D03*
X022734Y009458D03*
X022423Y010265D03*
X023143Y010328D03*
X020820Y010603D03*
X023191Y012290D03*
X023191Y012990D03*
X019791Y013590D03*
X017691Y015090D03*
X015891Y012890D03*
X016091Y009890D03*
X032891Y008790D03*
X021291Y022190D03*
X021769Y022566D03*
X023035Y023201D03*
M02*
