G75*
G70*
%OFA0B0*%
%FSLAX24Y24*%
%IPPOS*%
%LPD*%
%AMOC8*
5,1,8,0,0,1.08239X$1,22.5*
%
%ADD10R,0.0395X0.0552*%
%ADD11R,0.0477X0.0477*%
%ADD12R,0.0356X0.0434*%
%ADD13C,0.0980*%
%ADD14C,0.0780*%
%ADD15C,0.0820*%
%ADD16R,0.0674X0.0674*%
%ADD17R,0.0789X0.0789*%
%ADD18R,0.0820X0.0820*%
%ADD19C,0.1380*%
%ADD20R,0.0671X0.0178*%
%ADD21R,0.0474X0.0277*%
%ADD22R,0.0552X0.0395*%
%ADD23R,0.0356X0.0316*%
%ADD24C,0.0476*%
D10*
X019045Y009244D03*
X019754Y009244D03*
X020524Y009292D03*
X021232Y009292D03*
X021953Y009316D03*
X022661Y009316D03*
X023349Y009311D03*
X024057Y009311D03*
X029051Y011400D03*
X029760Y011400D03*
X030446Y008670D03*
X031155Y008670D03*
X031690Y008672D03*
X032398Y008672D03*
X033383Y008679D03*
X034091Y008679D03*
X034536Y008670D03*
X035245Y008670D03*
G36*
X026799Y015005D02*
X027139Y015202D01*
X027415Y014725D01*
X027075Y014528D01*
X026799Y015005D01*
G37*
G36*
X027412Y015360D02*
X027752Y015557D01*
X028028Y015080D01*
X027688Y014883D01*
X027412Y015360D01*
G37*
G36*
X031321Y017800D02*
X031042Y018079D01*
X031431Y018468D01*
X031710Y018189D01*
X031321Y017800D01*
G37*
G36*
X030820Y018301D02*
X030541Y018580D01*
X030930Y018969D01*
X031209Y018690D01*
X030820Y018301D01*
G37*
G36*
X037739Y026090D02*
X038108Y026225D01*
X038297Y025708D01*
X037928Y025573D01*
X037739Y026090D01*
G37*
G36*
X038405Y026332D02*
X038774Y026467D01*
X038963Y025950D01*
X038594Y025815D01*
X038405Y026332D01*
G37*
G36*
X038929Y025911D02*
X039269Y026108D01*
X039545Y025631D01*
X039205Y025434D01*
X038929Y025911D01*
G37*
G36*
X039542Y026265D02*
X039882Y026462D01*
X040158Y025985D01*
X039818Y025788D01*
X039542Y026265D01*
G37*
G36*
X051278Y014325D02*
X051557Y014604D01*
X051946Y014215D01*
X051667Y013936D01*
X051278Y014325D01*
G37*
G36*
X050777Y013824D02*
X051056Y014103D01*
X051445Y013714D01*
X051166Y013435D01*
X050777Y013824D01*
G37*
X047745Y012990D03*
X047036Y012990D03*
X049136Y011690D03*
X049845Y011690D03*
X051736Y011190D03*
X052445Y011190D03*
D11*
G36*
X031323Y017061D02*
X030987Y017397D01*
X031323Y017733D01*
X031659Y017397D01*
X031323Y017061D01*
G37*
G36*
X029964Y018419D02*
X029628Y018755D01*
X029964Y019091D01*
X030300Y018755D01*
X029964Y018419D01*
G37*
D12*
G36*
X029503Y017972D02*
X029755Y018224D01*
X030061Y017918D01*
X029809Y017666D01*
X029503Y017972D01*
G37*
G36*
X029141Y017611D02*
X029393Y017863D01*
X029699Y017557D01*
X029447Y017305D01*
X029141Y017611D01*
G37*
G36*
X029833Y016919D02*
X030085Y017171D01*
X030391Y016865D01*
X030139Y016613D01*
X029833Y016919D01*
G37*
G36*
X030194Y017281D02*
X030446Y017533D01*
X030752Y017227D01*
X030500Y016975D01*
X030194Y017281D01*
G37*
D13*
X024652Y018927D03*
X018652Y018927D03*
X014191Y016615D03*
X008191Y016615D03*
X008566Y021290D03*
X013816Y021290D03*
X018652Y024177D03*
X013816Y027290D03*
X008566Y027290D03*
X024652Y024177D03*
X045839Y024374D03*
X051839Y024374D03*
X056666Y027290D03*
X061916Y027290D03*
X061916Y021290D03*
X056666Y021290D03*
X051839Y019124D03*
X056766Y016936D03*
X062016Y016936D03*
X062016Y010936D03*
X056766Y010936D03*
X045839Y019124D03*
X014191Y011365D03*
X008191Y011365D03*
D14*
X009941Y010990D03*
X012441Y010990D03*
X012441Y008990D03*
X009941Y008990D03*
X015191Y012990D03*
X015191Y013990D03*
X015191Y014990D03*
X020402Y016552D03*
X022902Y016552D03*
X022902Y018552D03*
X020402Y018552D03*
X025652Y020552D03*
X025652Y021552D03*
X025652Y022552D03*
X022652Y025552D03*
X021652Y025552D03*
X020652Y025552D03*
X015191Y025290D03*
X015191Y024290D03*
X015191Y023290D03*
X012191Y020290D03*
X011191Y020290D03*
X010191Y020290D03*
X010191Y017990D03*
X011191Y017990D03*
X012191Y017990D03*
X008191Y023040D03*
X006191Y023040D03*
X006191Y025540D03*
X008191Y025540D03*
X047839Y025749D03*
X048839Y025749D03*
X049839Y025749D03*
X055291Y025290D03*
X055291Y024290D03*
X055291Y023290D03*
X052839Y022749D03*
X052839Y021749D03*
X052839Y020749D03*
X050089Y018749D03*
X047589Y018749D03*
X047589Y016749D03*
X050089Y016749D03*
X055391Y014936D03*
X055391Y013936D03*
X055391Y012936D03*
X062391Y012686D03*
X064391Y012686D03*
X064391Y015186D03*
X062391Y015186D03*
X060391Y017936D03*
X059391Y017936D03*
X058391Y017936D03*
X062291Y023040D03*
X064291Y023040D03*
X064291Y025540D03*
X062291Y025540D03*
X060291Y028290D03*
X059291Y028290D03*
X058291Y028290D03*
D15*
X051891Y028240D03*
X050891Y028140D03*
X049891Y028240D03*
X048391Y028240D03*
X047391Y028140D03*
X046391Y028240D03*
X044891Y028240D03*
X043891Y028140D03*
X042891Y028240D03*
X041391Y028240D03*
X040391Y028140D03*
X039391Y028240D03*
X037891Y028240D03*
X036891Y028140D03*
X035891Y028240D03*
X034391Y028240D03*
X033391Y028140D03*
X032391Y028240D03*
X030891Y028240D03*
X029891Y028140D03*
X028891Y028240D03*
X027391Y028240D03*
X026391Y028140D03*
X025391Y028240D03*
X023891Y028240D03*
X022891Y028140D03*
X021891Y028240D03*
X020391Y028240D03*
X019391Y028140D03*
X018391Y028240D03*
X042372Y021394D03*
X043027Y020632D03*
X043519Y019756D03*
X044174Y018994D03*
X044666Y018117D03*
X045321Y017356D03*
X042039Y013390D03*
X041039Y013490D03*
X040039Y013390D03*
X039039Y013490D03*
X038039Y013390D03*
X037039Y013490D03*
X036039Y013390D03*
X035039Y013490D03*
X034039Y013390D03*
X033039Y013490D03*
X032039Y013390D03*
X031039Y013490D03*
X030039Y013390D03*
X029039Y013490D03*
X028039Y013390D03*
X027039Y013490D03*
X026039Y013390D03*
X025039Y013490D03*
X024039Y013390D03*
X024039Y012390D03*
X025039Y012490D03*
X026039Y012390D03*
X027039Y012490D03*
X028039Y012390D03*
X029039Y012490D03*
X030039Y012390D03*
X031039Y012490D03*
X032039Y012390D03*
X034039Y012390D03*
X035039Y012490D03*
X036039Y012390D03*
X037039Y012490D03*
X038039Y012390D03*
X039039Y012490D03*
X040039Y012390D03*
X041039Y012490D03*
X042039Y012390D03*
X042377Y010480D03*
X043377Y010380D03*
X044377Y010480D03*
X044377Y009480D03*
X043377Y009380D03*
X042377Y009480D03*
X041377Y009380D03*
X040377Y009480D03*
X039377Y009380D03*
X038377Y009480D03*
X037377Y009380D03*
X036377Y009480D03*
X035377Y009380D03*
X034377Y009480D03*
X033377Y009380D03*
X032377Y009480D03*
X031377Y009380D03*
X030377Y009480D03*
X029377Y009380D03*
X028377Y009480D03*
X027377Y009380D03*
X026377Y009480D03*
X026377Y010480D03*
X027377Y010380D03*
X028377Y010480D03*
X029377Y010380D03*
X030377Y010480D03*
X031377Y010380D03*
X032377Y010480D03*
X033377Y010380D03*
X034377Y010480D03*
X036377Y010480D03*
X037377Y010380D03*
X038377Y010480D03*
X039377Y010380D03*
X040377Y010480D03*
X041377Y010380D03*
X019299Y010674D03*
X018241Y010520D03*
X018241Y011660D03*
X019199Y011674D03*
X019299Y012674D03*
X019199Y013674D03*
X019299Y014674D03*
D16*
X051985Y012986D03*
X053103Y012986D03*
D17*
X051654Y009926D03*
X052638Y008941D03*
X050669Y008941D03*
X048680Y008941D03*
X047696Y009926D03*
X046712Y008941D03*
D18*
X043039Y012490D03*
X043039Y013490D03*
X025377Y010380D03*
X025377Y009380D03*
D19*
X006803Y009373D03*
X015403Y019173D03*
X017386Y026263D03*
X053313Y026370D03*
X055013Y019070D03*
X063656Y009254D03*
D20*
G36*
X038707Y022219D02*
X039179Y021747D01*
X039053Y021621D01*
X038581Y022093D01*
X038707Y022219D01*
G37*
G36*
X038846Y022358D02*
X039318Y021886D01*
X039192Y021760D01*
X038720Y022232D01*
X038846Y022358D01*
G37*
G36*
X038720Y022861D02*
X039192Y023333D01*
X039318Y023207D01*
X038846Y022735D01*
X038720Y022861D01*
G37*
G36*
X038581Y023000D02*
X039053Y023472D01*
X039179Y023346D01*
X038707Y022874D01*
X038581Y023000D01*
G37*
G36*
X038442Y023139D02*
X038914Y023611D01*
X039040Y023485D01*
X038568Y023013D01*
X038442Y023139D01*
G37*
G36*
X038302Y023278D02*
X038774Y023750D01*
X038900Y023624D01*
X038428Y023152D01*
X038302Y023278D01*
G37*
G36*
X038163Y023417D02*
X038635Y023889D01*
X038761Y023763D01*
X038289Y023291D01*
X038163Y023417D01*
G37*
G36*
X038024Y023557D02*
X038496Y024029D01*
X038622Y023903D01*
X038150Y023431D01*
X038024Y023557D01*
G37*
G36*
X037885Y023696D02*
X038357Y024168D01*
X038483Y024042D01*
X038011Y023570D01*
X037885Y023696D01*
G37*
G36*
X037746Y023835D02*
X038218Y024307D01*
X038344Y024181D01*
X037872Y023709D01*
X037746Y023835D01*
G37*
G36*
X037606Y023974D02*
X038078Y024446D01*
X038204Y024320D01*
X037732Y023848D01*
X037606Y023974D01*
G37*
G36*
X037467Y024113D02*
X037939Y024585D01*
X038065Y024459D01*
X037593Y023987D01*
X037467Y024113D01*
G37*
G36*
X037328Y024253D02*
X037800Y024725D01*
X037926Y024599D01*
X037454Y024127D01*
X037328Y024253D01*
G37*
G36*
X037189Y024392D02*
X037661Y024864D01*
X037787Y024738D01*
X037315Y024266D01*
X037189Y024392D01*
G37*
G36*
X037050Y024531D02*
X037522Y025003D01*
X037648Y024877D01*
X037176Y024405D01*
X037050Y024531D01*
G37*
G36*
X036910Y024670D02*
X037382Y025142D01*
X037508Y025016D01*
X037036Y024544D01*
X036910Y024670D01*
G37*
G36*
X036771Y024809D02*
X037243Y025281D01*
X037369Y025155D01*
X036897Y024683D01*
X036771Y024809D01*
G37*
G36*
X036632Y024949D02*
X037104Y025421D01*
X037230Y025295D01*
X036758Y024823D01*
X036632Y024949D01*
G37*
G36*
X036493Y025088D02*
X036965Y025560D01*
X037091Y025434D01*
X036619Y024962D01*
X036493Y025088D01*
G37*
G36*
X036354Y025227D02*
X036826Y025699D01*
X036952Y025573D01*
X036480Y025101D01*
X036354Y025227D01*
G37*
G36*
X036215Y025366D02*
X036687Y025838D01*
X036813Y025712D01*
X036341Y025240D01*
X036215Y025366D01*
G37*
G36*
X036075Y025505D02*
X036547Y025977D01*
X036673Y025851D01*
X036201Y025379D01*
X036075Y025505D01*
G37*
G36*
X035936Y025645D02*
X036408Y026117D01*
X036534Y025991D01*
X036062Y025519D01*
X035936Y025645D01*
G37*
G36*
X035797Y025784D02*
X036269Y026256D01*
X036395Y026130D01*
X035923Y025658D01*
X035797Y025784D01*
G37*
G36*
X035658Y025923D02*
X036130Y026395D01*
X036256Y026269D01*
X035784Y025797D01*
X035658Y025923D01*
G37*
G36*
X035519Y026062D02*
X035991Y026534D01*
X036117Y026408D01*
X035645Y025936D01*
X035519Y026062D01*
G37*
G36*
X035379Y026201D02*
X035851Y026673D01*
X035977Y026547D01*
X035505Y026075D01*
X035379Y026201D01*
G37*
G36*
X034877Y026075D02*
X034405Y026547D01*
X034531Y026673D01*
X035003Y026201D01*
X034877Y026075D01*
G37*
G36*
X034738Y025936D02*
X034266Y026408D01*
X034392Y026534D01*
X034864Y026062D01*
X034738Y025936D01*
G37*
G36*
X034599Y025797D02*
X034127Y026269D01*
X034253Y026395D01*
X034725Y025923D01*
X034599Y025797D01*
G37*
G36*
X034459Y025658D02*
X033987Y026130D01*
X034113Y026256D01*
X034585Y025784D01*
X034459Y025658D01*
G37*
G36*
X034320Y025519D02*
X033848Y025991D01*
X033974Y026117D01*
X034446Y025645D01*
X034320Y025519D01*
G37*
G36*
X034181Y025379D02*
X033709Y025851D01*
X033835Y025977D01*
X034307Y025505D01*
X034181Y025379D01*
G37*
G36*
X034042Y025240D02*
X033570Y025712D01*
X033696Y025838D01*
X034168Y025366D01*
X034042Y025240D01*
G37*
G36*
X033903Y025101D02*
X033431Y025573D01*
X033557Y025699D01*
X034029Y025227D01*
X033903Y025101D01*
G37*
G36*
X033763Y024962D02*
X033291Y025434D01*
X033417Y025560D01*
X033889Y025088D01*
X033763Y024962D01*
G37*
G36*
X033624Y024823D02*
X033152Y025295D01*
X033278Y025421D01*
X033750Y024949D01*
X033624Y024823D01*
G37*
G36*
X033485Y024683D02*
X033013Y025155D01*
X033139Y025281D01*
X033611Y024809D01*
X033485Y024683D01*
G37*
G36*
X033346Y024544D02*
X032874Y025016D01*
X033000Y025142D01*
X033472Y024670D01*
X033346Y024544D01*
G37*
G36*
X033207Y024405D02*
X032735Y024877D01*
X032861Y025003D01*
X033333Y024531D01*
X033207Y024405D01*
G37*
G36*
X033067Y024266D02*
X032595Y024738D01*
X032721Y024864D01*
X033193Y024392D01*
X033067Y024266D01*
G37*
G36*
X032928Y024127D02*
X032456Y024599D01*
X032582Y024725D01*
X033054Y024253D01*
X032928Y024127D01*
G37*
G36*
X032789Y023987D02*
X032317Y024459D01*
X032443Y024585D01*
X032915Y024113D01*
X032789Y023987D01*
G37*
G36*
X032650Y023848D02*
X032178Y024320D01*
X032304Y024446D01*
X032776Y023974D01*
X032650Y023848D01*
G37*
G36*
X032511Y023709D02*
X032039Y024181D01*
X032165Y024307D01*
X032637Y023835D01*
X032511Y023709D01*
G37*
G36*
X032372Y023570D02*
X031900Y024042D01*
X032026Y024168D01*
X032498Y023696D01*
X032372Y023570D01*
G37*
G36*
X032232Y023431D02*
X031760Y023903D01*
X031886Y024029D01*
X032358Y023557D01*
X032232Y023431D01*
G37*
G36*
X032093Y023291D02*
X031621Y023763D01*
X031747Y023889D01*
X032219Y023417D01*
X032093Y023291D01*
G37*
G36*
X031954Y023152D02*
X031482Y023624D01*
X031608Y023750D01*
X032080Y023278D01*
X031954Y023152D01*
G37*
G36*
X031815Y023013D02*
X031343Y023485D01*
X031469Y023611D01*
X031941Y023139D01*
X031815Y023013D01*
G37*
G36*
X031676Y022874D02*
X031204Y023346D01*
X031330Y023472D01*
X031802Y023000D01*
X031676Y022874D01*
G37*
G36*
X031536Y022735D02*
X031064Y023207D01*
X031190Y023333D01*
X031662Y022861D01*
X031536Y022735D01*
G37*
G36*
X031662Y022232D02*
X031190Y021760D01*
X031064Y021886D01*
X031536Y022358D01*
X031662Y022232D01*
G37*
G36*
X031802Y022093D02*
X031330Y021621D01*
X031204Y021747D01*
X031676Y022219D01*
X031802Y022093D01*
G37*
G36*
X031941Y021954D02*
X031469Y021482D01*
X031343Y021608D01*
X031815Y022080D01*
X031941Y021954D01*
G37*
G36*
X032080Y021815D02*
X031608Y021343D01*
X031482Y021469D01*
X031954Y021941D01*
X032080Y021815D01*
G37*
G36*
X032219Y021676D02*
X031747Y021204D01*
X031621Y021330D01*
X032093Y021802D01*
X032219Y021676D01*
G37*
G36*
X032358Y021536D02*
X031886Y021064D01*
X031760Y021190D01*
X032232Y021662D01*
X032358Y021536D01*
G37*
G36*
X032498Y021397D02*
X032026Y020925D01*
X031900Y021051D01*
X032372Y021523D01*
X032498Y021397D01*
G37*
G36*
X032637Y021258D02*
X032165Y020786D01*
X032039Y020912D01*
X032511Y021384D01*
X032637Y021258D01*
G37*
G36*
X032776Y021119D02*
X032304Y020647D01*
X032178Y020773D01*
X032650Y021245D01*
X032776Y021119D01*
G37*
G36*
X032915Y020980D02*
X032443Y020508D01*
X032317Y020634D01*
X032789Y021106D01*
X032915Y020980D01*
G37*
G36*
X033054Y020840D02*
X032582Y020368D01*
X032456Y020494D01*
X032928Y020966D01*
X033054Y020840D01*
G37*
G36*
X033193Y020701D02*
X032721Y020229D01*
X032595Y020355D01*
X033067Y020827D01*
X033193Y020701D01*
G37*
G36*
X033333Y020562D02*
X032861Y020090D01*
X032735Y020216D01*
X033207Y020688D01*
X033333Y020562D01*
G37*
G36*
X033472Y020423D02*
X033000Y019951D01*
X032874Y020077D01*
X033346Y020549D01*
X033472Y020423D01*
G37*
G36*
X033611Y020284D02*
X033139Y019812D01*
X033013Y019938D01*
X033485Y020410D01*
X033611Y020284D01*
G37*
G36*
X033750Y020144D02*
X033278Y019672D01*
X033152Y019798D01*
X033624Y020270D01*
X033750Y020144D01*
G37*
G36*
X033889Y020005D02*
X033417Y019533D01*
X033291Y019659D01*
X033763Y020131D01*
X033889Y020005D01*
G37*
G36*
X034029Y019866D02*
X033557Y019394D01*
X033431Y019520D01*
X033903Y019992D01*
X034029Y019866D01*
G37*
G36*
X034168Y019727D02*
X033696Y019255D01*
X033570Y019381D01*
X034042Y019853D01*
X034168Y019727D01*
G37*
G36*
X034307Y019588D02*
X033835Y019116D01*
X033709Y019242D01*
X034181Y019714D01*
X034307Y019588D01*
G37*
G36*
X034446Y019448D02*
X033974Y018976D01*
X033848Y019102D01*
X034320Y019574D01*
X034446Y019448D01*
G37*
G36*
X034585Y019309D02*
X034113Y018837D01*
X033987Y018963D01*
X034459Y019435D01*
X034585Y019309D01*
G37*
G36*
X034725Y019170D02*
X034253Y018698D01*
X034127Y018824D01*
X034599Y019296D01*
X034725Y019170D01*
G37*
G36*
X034864Y019031D02*
X034392Y018559D01*
X034266Y018685D01*
X034738Y019157D01*
X034864Y019031D01*
G37*
G36*
X035003Y018892D02*
X034531Y018420D01*
X034405Y018546D01*
X034877Y019018D01*
X035003Y018892D01*
G37*
G36*
X035505Y019018D02*
X035977Y018546D01*
X035851Y018420D01*
X035379Y018892D01*
X035505Y019018D01*
G37*
G36*
X035645Y019157D02*
X036117Y018685D01*
X035991Y018559D01*
X035519Y019031D01*
X035645Y019157D01*
G37*
G36*
X035784Y019296D02*
X036256Y018824D01*
X036130Y018698D01*
X035658Y019170D01*
X035784Y019296D01*
G37*
G36*
X035923Y019435D02*
X036395Y018963D01*
X036269Y018837D01*
X035797Y019309D01*
X035923Y019435D01*
G37*
G36*
X036062Y019574D02*
X036534Y019102D01*
X036408Y018976D01*
X035936Y019448D01*
X036062Y019574D01*
G37*
G36*
X036201Y019714D02*
X036673Y019242D01*
X036547Y019116D01*
X036075Y019588D01*
X036201Y019714D01*
G37*
G36*
X036341Y019853D02*
X036813Y019381D01*
X036687Y019255D01*
X036215Y019727D01*
X036341Y019853D01*
G37*
G36*
X036480Y019992D02*
X036952Y019520D01*
X036826Y019394D01*
X036354Y019866D01*
X036480Y019992D01*
G37*
G36*
X036619Y020131D02*
X037091Y019659D01*
X036965Y019533D01*
X036493Y020005D01*
X036619Y020131D01*
G37*
G36*
X036758Y020270D02*
X037230Y019798D01*
X037104Y019672D01*
X036632Y020144D01*
X036758Y020270D01*
G37*
G36*
X036897Y020410D02*
X037369Y019938D01*
X037243Y019812D01*
X036771Y020284D01*
X036897Y020410D01*
G37*
G36*
X037036Y020549D02*
X037508Y020077D01*
X037382Y019951D01*
X036910Y020423D01*
X037036Y020549D01*
G37*
G36*
X037176Y020688D02*
X037648Y020216D01*
X037522Y020090D01*
X037050Y020562D01*
X037176Y020688D01*
G37*
G36*
X037315Y020827D02*
X037787Y020355D01*
X037661Y020229D01*
X037189Y020701D01*
X037315Y020827D01*
G37*
G36*
X037454Y020966D02*
X037926Y020494D01*
X037800Y020368D01*
X037328Y020840D01*
X037454Y020966D01*
G37*
G36*
X037593Y021106D02*
X038065Y020634D01*
X037939Y020508D01*
X037467Y020980D01*
X037593Y021106D01*
G37*
G36*
X037732Y021245D02*
X038204Y020773D01*
X038078Y020647D01*
X037606Y021119D01*
X037732Y021245D01*
G37*
G36*
X037872Y021384D02*
X038344Y020912D01*
X038218Y020786D01*
X037746Y021258D01*
X037872Y021384D01*
G37*
G36*
X038011Y021523D02*
X038483Y021051D01*
X038357Y020925D01*
X037885Y021397D01*
X038011Y021523D01*
G37*
G36*
X038150Y021662D02*
X038622Y021190D01*
X038496Y021064D01*
X038024Y021536D01*
X038150Y021662D01*
G37*
G36*
X038289Y021802D02*
X038761Y021330D01*
X038635Y021204D01*
X038163Y021676D01*
X038289Y021802D01*
G37*
G36*
X038428Y021941D02*
X038900Y021469D01*
X038774Y021343D01*
X038302Y021815D01*
X038428Y021941D01*
G37*
G36*
X038568Y022080D02*
X039040Y021608D01*
X038914Y021482D01*
X038442Y021954D01*
X038568Y022080D01*
G37*
D21*
X048191Y014512D03*
X048191Y014008D03*
X048191Y013504D03*
X048191Y013000D03*
X050151Y013000D03*
X050151Y013504D03*
X050151Y014008D03*
X050151Y014512D03*
D22*
X016491Y008636D03*
X016491Y009344D03*
D23*
X050297Y011690D03*
X051084Y011316D03*
X051084Y012064D03*
D24*
X052011Y012070D03*
X052491Y010190D03*
X048091Y011890D03*
X046591Y012990D03*
X045791Y012490D03*
X045291Y013490D03*
X044291Y013490D03*
X047291Y014190D03*
X045791Y014990D03*
X043391Y015590D03*
X041491Y014890D03*
X040491Y014990D03*
X039391Y015090D03*
X038991Y014290D03*
X038011Y014380D03*
X037091Y014290D03*
X036161Y014230D03*
X035091Y014390D03*
X034191Y014390D03*
X033291Y014290D03*
X031341Y014650D03*
X028891Y014290D03*
X027521Y014420D03*
X026591Y014740D03*
X026841Y015540D03*
X027891Y015790D03*
X028191Y016390D03*
X027591Y016690D03*
X028291Y016990D03*
X027891Y017390D03*
X027981Y018070D03*
X029291Y016790D03*
X032641Y019160D03*
X031931Y019900D03*
X033691Y020690D03*
X033991Y021590D03*
X033491Y022390D03*
X032591Y023290D03*
X033891Y023790D03*
X033991Y024390D03*
X034341Y025000D03*
X034791Y025390D03*
X035991Y025190D03*
X035991Y024644D03*
X036391Y024320D03*
X036581Y023080D03*
X036431Y022440D03*
X035631Y022660D03*
X036251Y021910D03*
X036901Y021950D03*
X037511Y022100D03*
X038071Y022050D03*
X039691Y021890D03*
X040791Y022190D03*
X042491Y024290D03*
X042091Y025290D03*
X041391Y025090D03*
X040691Y024690D03*
X040191Y024390D03*
X038791Y025320D03*
X038311Y024940D03*
X040511Y026350D03*
X035881Y027270D03*
X034391Y027290D03*
X033051Y026730D03*
X033591Y026290D03*
X030691Y022990D03*
X029491Y022390D03*
X030191Y022290D03*
X035981Y020810D03*
X036231Y020360D03*
X036471Y021020D03*
X037471Y019640D03*
X037791Y019170D03*
X036791Y017690D03*
X037491Y017290D03*
X038191Y016990D03*
X038891Y016690D03*
X037891Y016290D03*
X037091Y016690D03*
X036401Y017210D03*
X035991Y017590D03*
X035391Y018390D03*
X034891Y018400D03*
X035111Y019140D03*
X041391Y018490D03*
X042691Y018090D03*
X038601Y015860D03*
X033191Y012490D03*
X034791Y011590D03*
X035531Y011450D03*
X036671Y011550D03*
X037891Y011490D03*
X038951Y011500D03*
X039921Y011480D03*
X040891Y011410D03*
X042021Y011430D03*
X045291Y009490D03*
X045891Y011190D03*
X051991Y014690D03*
X050151Y014934D03*
X050791Y020190D03*
X049391Y020690D03*
X049191Y024590D03*
X050591Y024590D03*
X063391Y015590D03*
X063461Y013960D03*
X030991Y011390D03*
X028391Y011390D03*
X023191Y009890D03*
X021991Y009890D03*
X020591Y009890D03*
X019591Y009790D03*
X016491Y009890D03*
X008591Y018290D03*
X007991Y019790D03*
M02*
