%
M48
M72
T01C0.0197
T02C0.0236
T03C0.0350
T04C0.0354
T05C0.0394
T06C0.0400
T07C0.0472
T08C0.0550
T09C0.1300
%
T01
X31323Y17397
X29964Y18755
T02
X27981Y18070
X27891Y17390
X28291Y16990
X27591Y16690
X28191Y16390
X29291Y16790
X27891Y15790
X26841Y15540
X26591Y14740
X27521Y14420
X28891Y14290
X31341Y14650
X33291Y14290
X34191Y14390
X35091Y14390
X36161Y14230
X37091Y14290
X38011Y14380
X38991Y14290
X39391Y15090
X38601Y15860
X37891Y16290
X37091Y16690
X36401Y17210
X35991Y17590
X36791Y17690
X37491Y17290
X38191Y16990
X38891Y16690
X40491Y14990
X41491Y14890
X43391Y15590
X45791Y14990
X47291Y14190
X46591Y12990
X45791Y12490
X45291Y13490
X44291Y13490
X48091Y11890
X45891Y11190
X45291Y9490
X42021Y11430
X40891Y11410
X39921Y11480
X38951Y11500
X37891Y11490
X36671Y11550
X35531Y11450
X34791Y11590
X33191Y12490
X30991Y11390
X28391Y11390
X23191Y9890
X21991Y9890
X20591Y9890
X19591Y9790
X16491Y9890
X8591Y18290
X7991Y19790
X29491Y22390
X30191Y22290
X30691Y22990
X32591Y23290
X33491Y22390
X33991Y21590
X33691Y20690
X31931Y19900
X32641Y19160
X34891Y18400
X35391Y18390
X35111Y19140
X36231Y20360
X35981Y20810
X36471Y21020
X36251Y21910
X36901Y21950
X37511Y22100
X38071Y22050
X36431Y22440
X35631Y22660
X36581Y23080
X36391Y24320
X35991Y24644
X35991Y25190
X34791Y25390
X34341Y25000
X33991Y24390
X33891Y23790
X33591Y26290
X33051Y26730
X34391Y27290
X35881Y27270
X38791Y25320
X38311Y24940
X40191Y24390
X40691Y24690
X41391Y25090
X42091Y25290
X42491Y24290
X40791Y22190
X39691Y21890
X37471Y19640
X37791Y19170
X41391Y18490
X42691Y18090
X49391Y20690
X50791Y20190
X50591Y24590
X49191Y24590
X40511Y26350
X50151Y14934
X51991Y14690
X52011Y12070
X52491Y10190
X63461Y13960
X63391Y15590
T03
X60391Y17936
X59391Y17936
X58391Y17936
X55391Y14936
X55391Y13936
X55391Y12936
X52839Y20749
X52839Y21749
X52839Y22749
X55291Y23290
X55291Y24290
X55291Y25290
X49839Y25749
X48839Y25749
X47839Y25749
X58291Y28290
X59291Y28290
X60291Y28290
X25652Y22552
X25652Y21552
X25652Y20552
X22652Y25552
X21652Y25552
X20652Y25552
X15191Y25290
X15191Y24290
X15191Y23290
X12191Y20290
X11191Y20290
X10191Y20290
X10191Y17990
X11191Y17990
X12191Y17990
X15191Y14990
X15191Y13990
X15191Y12990
T04
X9941Y8990
X12441Y8990
X12441Y10990
X9941Y10990
X20402Y16552
X22902Y16552
X22902Y18552
X20402Y18552
X8191Y23040
X6191Y23040
X6191Y25540
X8191Y25540
X47589Y18749
X50089Y18749
X50089Y16749
X47589Y16749
X62391Y15186
X64391Y15186
X64391Y12686
X62391Y12686
X62291Y23040
X64291Y23040
X64291Y25540
X62291Y25540
T05
X53103Y12986
X51985Y12986
T06
X44377Y10480
X43377Y10380
X42377Y10480
X41377Y10380
X40377Y10480
X39377Y10380
X38377Y10480
X37377Y10380
X36377Y10480
X36377Y9480
X37377Y9380
X38377Y9480
X39377Y9380
X40377Y9480
X41377Y9380
X42377Y9480
X43377Y9380
X44377Y9480
X43039Y12490
X42039Y12390
X41039Y12490
X40039Y12390
X39039Y12490
X38039Y12390
X37039Y12490
X36039Y12390
X35039Y12490
X34039Y12390
X34039Y13390
X33039Y13490
X32039Y13390
X31039Y13490
X30039Y13390
X29039Y13490
X28039Y13390
X27039Y13490
X26039Y13390
X25039Y13490
X24039Y13390
X24039Y12390
X25039Y12490
X26039Y12390
X27039Y12490
X28039Y12390
X29039Y12490
X30039Y12390
X31039Y12490
X32039Y12390
X35039Y13490
X36039Y13390
X37039Y13490
X38039Y13390
X39039Y13490
X40039Y13390
X41039Y13490
X42039Y13390
X43039Y13490
X45321Y17356
X44666Y18117
X44174Y18994
X43519Y19756
X43027Y20632
X42372Y21394
X42891Y28240
X43891Y28140
X44891Y28240
X46391Y28240
X47391Y28140
X48391Y28240
X49891Y28240
X50891Y28140
X51891Y28240
X41391Y28240
X40391Y28140
X39391Y28240
X37891Y28240
X36891Y28140
X35891Y28240
X34391Y28240
X33391Y28140
X32391Y28240
X30891Y28240
X29891Y28140
X28891Y28240
X27391Y28240
X26391Y28140
X25391Y28240
X23891Y28240
X22891Y28140
X21891Y28240
X20391Y28240
X19391Y28140
X18391Y28240
X19299Y14674
X19199Y13674
X19299Y12674
X19199Y11674
X18241Y11660
X18241Y10520
X19299Y10674
X25377Y10380
X26377Y10480
X27377Y10380
X28377Y10480
X29377Y10380
X30377Y10480
X31377Y10380
X32377Y10480
X33377Y10380
X34377Y10480
X34377Y9480
X35377Y9380
X33377Y9380
X32377Y9480
X31377Y9380
X30377Y9480
X29377Y9380
X28377Y9480
X27377Y9380
X26377Y9480
X25377Y9380
T07
X46712Y8941
X47696Y9926
X48680Y8941
X50669Y8941
X51654Y9926
X52638Y8941
T08
X56766Y10936
X62016Y10936
X62016Y16936
X56766Y16936
X51839Y19124
X56666Y21290
X61916Y21290
X51839Y24374
X56666Y27290
X61916Y27290
X45839Y24374
X45839Y19124
X24652Y18927
X18652Y18927
X14191Y16615
X8191Y16615
X8566Y21290
X13816Y21290
X18652Y24177
X13816Y27290
X8566Y27290
X24652Y24177
X14191Y11365
X8191Y11365
T09
X6803Y9373
X15403Y19173
X17386Y26263
X53313Y26370
X55013Y19070
X63656Y9254
M30
