G75*
G70*
%OFA0B0*%
%FSLAX24Y24*%
%IPPOS*%
%LPD*%
%AMOC8*
5,1,8,0,0,1.08239X$1,22.5*
%
%ADD10R,0.0395X0.0552*%
%ADD11R,0.0477X0.0477*%
%ADD12R,0.0356X0.0434*%
%ADD13C,0.0980*%
%ADD14C,0.0780*%
%ADD15C,0.0820*%
%ADD16R,0.0789X0.0789*%
%ADD17OC8,0.0820*%
%ADD18C,0.1380*%
%ADD19R,0.0671X0.0178*%
%ADD20R,0.0474X0.0277*%
%ADD21R,0.0552X0.0395*%
%ADD22R,0.0356X0.0316*%
%ADD23R,0.0434X0.0356*%
D10*
X014036Y008990D03*
X014745Y008990D03*
X021545Y009244D03*
X022254Y009244D03*
X023024Y009292D03*
X023732Y009292D03*
X024453Y009316D03*
X025161Y009316D03*
X025849Y009311D03*
X026557Y009311D03*
X031551Y011520D03*
X032260Y011520D03*
X033936Y011390D03*
X034645Y011390D03*
X034898Y008672D03*
X034190Y008672D03*
X033655Y008670D03*
X032946Y008670D03*
X035883Y008679D03*
X036591Y008679D03*
X037036Y008670D03*
X037745Y008670D03*
X049336Y012890D03*
X050045Y012890D03*
X051436Y011690D03*
X052145Y011690D03*
X053936Y017090D03*
X054645Y017090D03*
X066836Y021090D03*
X067545Y021090D03*
X067645Y017990D03*
X066936Y017990D03*
G36*
X042042Y026265D02*
X042382Y026462D01*
X042658Y025985D01*
X042318Y025788D01*
X042042Y026265D01*
G37*
G36*
X041429Y025911D02*
X041769Y026108D01*
X042045Y025631D01*
X041705Y025434D01*
X041429Y025911D01*
G37*
G36*
X040905Y026332D02*
X041274Y026467D01*
X041463Y025950D01*
X041094Y025815D01*
X040905Y026332D01*
G37*
G36*
X040239Y026090D02*
X040608Y026225D01*
X040797Y025708D01*
X040428Y025573D01*
X040239Y026090D01*
G37*
G36*
X033320Y018301D02*
X033041Y018580D01*
X033430Y018969D01*
X033709Y018690D01*
X033320Y018301D01*
G37*
G36*
X033821Y017800D02*
X033542Y018079D01*
X033931Y018468D01*
X034210Y018189D01*
X033821Y017800D01*
G37*
G36*
X029912Y015360D02*
X030252Y015557D01*
X030528Y015080D01*
X030188Y014883D01*
X029912Y015360D01*
G37*
G36*
X029299Y015005D02*
X029639Y015202D01*
X029915Y014725D01*
X029575Y014528D01*
X029299Y015005D01*
G37*
X020945Y017990D03*
X020236Y017990D03*
X008445Y023190D03*
X007736Y023190D03*
D11*
G36*
X032464Y018419D02*
X032128Y018755D01*
X032464Y019091D01*
X032800Y018755D01*
X032464Y018419D01*
G37*
G36*
X033823Y017061D02*
X033487Y017397D01*
X033823Y017733D01*
X034159Y017397D01*
X033823Y017061D01*
G37*
D12*
G36*
X032694Y017281D02*
X032946Y017533D01*
X033252Y017227D01*
X033000Y016975D01*
X032694Y017281D01*
G37*
G36*
X032003Y017972D02*
X032255Y018224D01*
X032561Y017918D01*
X032309Y017666D01*
X032003Y017972D01*
G37*
G36*
X031641Y017611D02*
X031893Y017863D01*
X032199Y017557D01*
X031947Y017305D01*
X031641Y017611D01*
G37*
G36*
X032333Y016919D02*
X032585Y017171D01*
X032891Y016865D01*
X032639Y016613D01*
X032333Y016919D01*
G37*
X058018Y009190D03*
X058963Y009190D03*
D13*
X061866Y010936D03*
X067116Y010936D03*
X067116Y016936D03*
X061866Y016936D03*
X054339Y019124D03*
X048339Y019124D03*
X048339Y024374D03*
X054339Y024374D03*
X061766Y023590D03*
X067016Y023590D03*
X067016Y029590D03*
X061766Y029590D03*
X027152Y024177D03*
X021152Y024177D03*
X013716Y024290D03*
X008466Y024290D03*
X021152Y018927D03*
X027152Y018927D03*
X014191Y016615D03*
X008191Y016615D03*
X008191Y011365D03*
X014191Y011365D03*
X013716Y030290D03*
X008466Y030290D03*
D14*
X008091Y028540D03*
X006091Y028540D03*
X006091Y026040D03*
X008091Y026040D03*
X010091Y023290D03*
X011091Y023290D03*
X012091Y023290D03*
X015091Y026290D03*
X015091Y027290D03*
X015091Y028290D03*
X023152Y025552D03*
X024152Y025552D03*
X025152Y025552D03*
X028152Y022552D03*
X028152Y021552D03*
X028152Y020552D03*
X025402Y018552D03*
X022902Y018552D03*
X022902Y016552D03*
X025402Y016552D03*
X015191Y014990D03*
X015191Y013990D03*
X015191Y012990D03*
X012441Y010990D03*
X009941Y010990D03*
X009941Y008990D03*
X012441Y008990D03*
X012191Y017990D03*
X011191Y017990D03*
X010191Y017990D03*
X050089Y018749D03*
X052589Y018749D03*
X052589Y016749D03*
X050089Y016749D03*
X055339Y020749D03*
X055339Y021749D03*
X055339Y022749D03*
X060391Y025590D03*
X060391Y026590D03*
X060391Y027590D03*
X063391Y030590D03*
X064391Y030590D03*
X065391Y030590D03*
X067391Y027840D03*
X069391Y027840D03*
X069391Y025340D03*
X067391Y025340D03*
X052339Y025749D03*
X051339Y025749D03*
X050339Y025749D03*
X063491Y017936D03*
X064491Y017936D03*
X065491Y017936D03*
X067491Y015186D03*
X069491Y015186D03*
X069491Y012686D03*
X067491Y012686D03*
X060491Y012936D03*
X060491Y013936D03*
X060491Y014936D03*
D15*
X054891Y015060D03*
X054891Y013920D03*
X057321Y010890D03*
X058461Y010890D03*
X059991Y009560D03*
X059991Y008420D03*
X046877Y009480D03*
X045877Y009380D03*
X044877Y009480D03*
X043877Y009380D03*
X042877Y009480D03*
X041877Y009380D03*
X040877Y009480D03*
X039877Y009380D03*
X038877Y009480D03*
X037877Y009380D03*
X036877Y009480D03*
X035877Y009380D03*
X034877Y009480D03*
X033877Y009380D03*
X032877Y009480D03*
X031877Y009380D03*
X030877Y009480D03*
X029877Y009380D03*
X028877Y009480D03*
X028877Y010480D03*
X029877Y010380D03*
X030877Y010480D03*
X031877Y010380D03*
X032877Y010480D03*
X033877Y010380D03*
X034877Y010480D03*
X035877Y010380D03*
X036877Y010480D03*
X038877Y010480D03*
X039877Y010380D03*
X040877Y010480D03*
X041877Y010380D03*
X042877Y010480D03*
X043877Y010380D03*
X044877Y010480D03*
X045877Y010380D03*
X046877Y010480D03*
X044539Y012390D03*
X043539Y012490D03*
X042539Y012390D03*
X041539Y012490D03*
X040539Y012390D03*
X039539Y012490D03*
X038539Y012390D03*
X037539Y012490D03*
X036539Y012390D03*
X036539Y013390D03*
X035539Y013490D03*
X034539Y013390D03*
X033539Y013490D03*
X032539Y013390D03*
X031539Y013490D03*
X030539Y013390D03*
X029539Y013490D03*
X028539Y013390D03*
X027539Y013490D03*
X026539Y013390D03*
X026539Y012390D03*
X027539Y012490D03*
X028539Y012390D03*
X029539Y012490D03*
X030539Y012390D03*
X031539Y012490D03*
X032539Y012390D03*
X033539Y012490D03*
X034539Y012390D03*
X037539Y013490D03*
X038539Y013390D03*
X039539Y013490D03*
X040539Y013390D03*
X041539Y013490D03*
X042539Y013390D03*
X043539Y013490D03*
X044539Y013390D03*
X047821Y017356D03*
X047166Y018117D03*
X046674Y018994D03*
X046019Y019756D03*
X045527Y020632D03*
X044872Y021394D03*
X045391Y028240D03*
X046391Y028140D03*
X047391Y028240D03*
X048891Y028240D03*
X049891Y028140D03*
X050891Y028240D03*
X052391Y028240D03*
X053391Y028140D03*
X054391Y028240D03*
X043891Y028240D03*
X042891Y028140D03*
X041891Y028240D03*
X040391Y028240D03*
X039391Y028140D03*
X038391Y028240D03*
X036891Y028240D03*
X035891Y028140D03*
X034891Y028240D03*
X033391Y028240D03*
X032391Y028140D03*
X031391Y028240D03*
X029891Y028240D03*
X028891Y028140D03*
X027891Y028240D03*
X026391Y028240D03*
X025391Y028140D03*
X024391Y028240D03*
X022891Y028240D03*
X021891Y028140D03*
X020891Y028240D03*
X021999Y014774D03*
X020841Y014090D03*
X021899Y013774D03*
X020741Y013090D03*
X021999Y012774D03*
X020841Y012090D03*
X021899Y011774D03*
X020741Y011090D03*
X021999Y010774D03*
X020841Y010090D03*
D16*
X049212Y008941D03*
X050196Y009926D03*
X051180Y008941D03*
X053169Y008941D03*
X054154Y009926D03*
X055138Y008941D03*
D17*
X045539Y012490D03*
X045539Y013490D03*
X027877Y010380D03*
X027877Y009380D03*
D18*
X006803Y009373D03*
X016903Y021773D03*
X006586Y030563D03*
X059013Y021570D03*
X068713Y030170D03*
X068756Y009254D03*
D19*
G36*
X041207Y022219D02*
X041679Y021747D01*
X041553Y021621D01*
X041081Y022093D01*
X041207Y022219D01*
G37*
G36*
X041346Y022358D02*
X041818Y021886D01*
X041692Y021760D01*
X041220Y022232D01*
X041346Y022358D01*
G37*
G36*
X041220Y022861D02*
X041692Y023333D01*
X041818Y023207D01*
X041346Y022735D01*
X041220Y022861D01*
G37*
G36*
X041081Y023000D02*
X041553Y023472D01*
X041679Y023346D01*
X041207Y022874D01*
X041081Y023000D01*
G37*
G36*
X040942Y023139D02*
X041414Y023611D01*
X041540Y023485D01*
X041068Y023013D01*
X040942Y023139D01*
G37*
G36*
X040802Y023278D02*
X041274Y023750D01*
X041400Y023624D01*
X040928Y023152D01*
X040802Y023278D01*
G37*
G36*
X040663Y023417D02*
X041135Y023889D01*
X041261Y023763D01*
X040789Y023291D01*
X040663Y023417D01*
G37*
G36*
X040524Y023557D02*
X040996Y024029D01*
X041122Y023903D01*
X040650Y023431D01*
X040524Y023557D01*
G37*
G36*
X040385Y023696D02*
X040857Y024168D01*
X040983Y024042D01*
X040511Y023570D01*
X040385Y023696D01*
G37*
G36*
X040246Y023835D02*
X040718Y024307D01*
X040844Y024181D01*
X040372Y023709D01*
X040246Y023835D01*
G37*
G36*
X040106Y023974D02*
X040578Y024446D01*
X040704Y024320D01*
X040232Y023848D01*
X040106Y023974D01*
G37*
G36*
X039967Y024113D02*
X040439Y024585D01*
X040565Y024459D01*
X040093Y023987D01*
X039967Y024113D01*
G37*
G36*
X039828Y024253D02*
X040300Y024725D01*
X040426Y024599D01*
X039954Y024127D01*
X039828Y024253D01*
G37*
G36*
X039689Y024392D02*
X040161Y024864D01*
X040287Y024738D01*
X039815Y024266D01*
X039689Y024392D01*
G37*
G36*
X039550Y024531D02*
X040022Y025003D01*
X040148Y024877D01*
X039676Y024405D01*
X039550Y024531D01*
G37*
G36*
X039410Y024670D02*
X039882Y025142D01*
X040008Y025016D01*
X039536Y024544D01*
X039410Y024670D01*
G37*
G36*
X039271Y024809D02*
X039743Y025281D01*
X039869Y025155D01*
X039397Y024683D01*
X039271Y024809D01*
G37*
G36*
X039132Y024949D02*
X039604Y025421D01*
X039730Y025295D01*
X039258Y024823D01*
X039132Y024949D01*
G37*
G36*
X038993Y025088D02*
X039465Y025560D01*
X039591Y025434D01*
X039119Y024962D01*
X038993Y025088D01*
G37*
G36*
X038854Y025227D02*
X039326Y025699D01*
X039452Y025573D01*
X038980Y025101D01*
X038854Y025227D01*
G37*
G36*
X038715Y025366D02*
X039187Y025838D01*
X039313Y025712D01*
X038841Y025240D01*
X038715Y025366D01*
G37*
G36*
X038575Y025505D02*
X039047Y025977D01*
X039173Y025851D01*
X038701Y025379D01*
X038575Y025505D01*
G37*
G36*
X038436Y025645D02*
X038908Y026117D01*
X039034Y025991D01*
X038562Y025519D01*
X038436Y025645D01*
G37*
G36*
X038297Y025784D02*
X038769Y026256D01*
X038895Y026130D01*
X038423Y025658D01*
X038297Y025784D01*
G37*
G36*
X038158Y025923D02*
X038630Y026395D01*
X038756Y026269D01*
X038284Y025797D01*
X038158Y025923D01*
G37*
G36*
X038019Y026062D02*
X038491Y026534D01*
X038617Y026408D01*
X038145Y025936D01*
X038019Y026062D01*
G37*
G36*
X037879Y026201D02*
X038351Y026673D01*
X038477Y026547D01*
X038005Y026075D01*
X037879Y026201D01*
G37*
G36*
X037377Y026075D02*
X036905Y026547D01*
X037031Y026673D01*
X037503Y026201D01*
X037377Y026075D01*
G37*
G36*
X037238Y025936D02*
X036766Y026408D01*
X036892Y026534D01*
X037364Y026062D01*
X037238Y025936D01*
G37*
G36*
X037099Y025797D02*
X036627Y026269D01*
X036753Y026395D01*
X037225Y025923D01*
X037099Y025797D01*
G37*
G36*
X036959Y025658D02*
X036487Y026130D01*
X036613Y026256D01*
X037085Y025784D01*
X036959Y025658D01*
G37*
G36*
X036820Y025519D02*
X036348Y025991D01*
X036474Y026117D01*
X036946Y025645D01*
X036820Y025519D01*
G37*
G36*
X036681Y025379D02*
X036209Y025851D01*
X036335Y025977D01*
X036807Y025505D01*
X036681Y025379D01*
G37*
G36*
X036542Y025240D02*
X036070Y025712D01*
X036196Y025838D01*
X036668Y025366D01*
X036542Y025240D01*
G37*
G36*
X036403Y025101D02*
X035931Y025573D01*
X036057Y025699D01*
X036529Y025227D01*
X036403Y025101D01*
G37*
G36*
X036263Y024962D02*
X035791Y025434D01*
X035917Y025560D01*
X036389Y025088D01*
X036263Y024962D01*
G37*
G36*
X036124Y024823D02*
X035652Y025295D01*
X035778Y025421D01*
X036250Y024949D01*
X036124Y024823D01*
G37*
G36*
X035985Y024683D02*
X035513Y025155D01*
X035639Y025281D01*
X036111Y024809D01*
X035985Y024683D01*
G37*
G36*
X035846Y024544D02*
X035374Y025016D01*
X035500Y025142D01*
X035972Y024670D01*
X035846Y024544D01*
G37*
G36*
X035707Y024405D02*
X035235Y024877D01*
X035361Y025003D01*
X035833Y024531D01*
X035707Y024405D01*
G37*
G36*
X035567Y024266D02*
X035095Y024738D01*
X035221Y024864D01*
X035693Y024392D01*
X035567Y024266D01*
G37*
G36*
X035428Y024127D02*
X034956Y024599D01*
X035082Y024725D01*
X035554Y024253D01*
X035428Y024127D01*
G37*
G36*
X035289Y023987D02*
X034817Y024459D01*
X034943Y024585D01*
X035415Y024113D01*
X035289Y023987D01*
G37*
G36*
X035150Y023848D02*
X034678Y024320D01*
X034804Y024446D01*
X035276Y023974D01*
X035150Y023848D01*
G37*
G36*
X035011Y023709D02*
X034539Y024181D01*
X034665Y024307D01*
X035137Y023835D01*
X035011Y023709D01*
G37*
G36*
X034872Y023570D02*
X034400Y024042D01*
X034526Y024168D01*
X034998Y023696D01*
X034872Y023570D01*
G37*
G36*
X034732Y023431D02*
X034260Y023903D01*
X034386Y024029D01*
X034858Y023557D01*
X034732Y023431D01*
G37*
G36*
X034593Y023291D02*
X034121Y023763D01*
X034247Y023889D01*
X034719Y023417D01*
X034593Y023291D01*
G37*
G36*
X034454Y023152D02*
X033982Y023624D01*
X034108Y023750D01*
X034580Y023278D01*
X034454Y023152D01*
G37*
G36*
X034315Y023013D02*
X033843Y023485D01*
X033969Y023611D01*
X034441Y023139D01*
X034315Y023013D01*
G37*
G36*
X034176Y022874D02*
X033704Y023346D01*
X033830Y023472D01*
X034302Y023000D01*
X034176Y022874D01*
G37*
G36*
X034036Y022735D02*
X033564Y023207D01*
X033690Y023333D01*
X034162Y022861D01*
X034036Y022735D01*
G37*
G36*
X034162Y022232D02*
X033690Y021760D01*
X033564Y021886D01*
X034036Y022358D01*
X034162Y022232D01*
G37*
G36*
X034302Y022093D02*
X033830Y021621D01*
X033704Y021747D01*
X034176Y022219D01*
X034302Y022093D01*
G37*
G36*
X034441Y021954D02*
X033969Y021482D01*
X033843Y021608D01*
X034315Y022080D01*
X034441Y021954D01*
G37*
G36*
X034580Y021815D02*
X034108Y021343D01*
X033982Y021469D01*
X034454Y021941D01*
X034580Y021815D01*
G37*
G36*
X034719Y021676D02*
X034247Y021204D01*
X034121Y021330D01*
X034593Y021802D01*
X034719Y021676D01*
G37*
G36*
X034858Y021536D02*
X034386Y021064D01*
X034260Y021190D01*
X034732Y021662D01*
X034858Y021536D01*
G37*
G36*
X034998Y021397D02*
X034526Y020925D01*
X034400Y021051D01*
X034872Y021523D01*
X034998Y021397D01*
G37*
G36*
X035137Y021258D02*
X034665Y020786D01*
X034539Y020912D01*
X035011Y021384D01*
X035137Y021258D01*
G37*
G36*
X035276Y021119D02*
X034804Y020647D01*
X034678Y020773D01*
X035150Y021245D01*
X035276Y021119D01*
G37*
G36*
X035415Y020980D02*
X034943Y020508D01*
X034817Y020634D01*
X035289Y021106D01*
X035415Y020980D01*
G37*
G36*
X035554Y020840D02*
X035082Y020368D01*
X034956Y020494D01*
X035428Y020966D01*
X035554Y020840D01*
G37*
G36*
X035693Y020701D02*
X035221Y020229D01*
X035095Y020355D01*
X035567Y020827D01*
X035693Y020701D01*
G37*
G36*
X035833Y020562D02*
X035361Y020090D01*
X035235Y020216D01*
X035707Y020688D01*
X035833Y020562D01*
G37*
G36*
X035972Y020423D02*
X035500Y019951D01*
X035374Y020077D01*
X035846Y020549D01*
X035972Y020423D01*
G37*
G36*
X036111Y020284D02*
X035639Y019812D01*
X035513Y019938D01*
X035985Y020410D01*
X036111Y020284D01*
G37*
G36*
X036250Y020144D02*
X035778Y019672D01*
X035652Y019798D01*
X036124Y020270D01*
X036250Y020144D01*
G37*
G36*
X036389Y020005D02*
X035917Y019533D01*
X035791Y019659D01*
X036263Y020131D01*
X036389Y020005D01*
G37*
G36*
X036529Y019866D02*
X036057Y019394D01*
X035931Y019520D01*
X036403Y019992D01*
X036529Y019866D01*
G37*
G36*
X036668Y019727D02*
X036196Y019255D01*
X036070Y019381D01*
X036542Y019853D01*
X036668Y019727D01*
G37*
G36*
X036807Y019588D02*
X036335Y019116D01*
X036209Y019242D01*
X036681Y019714D01*
X036807Y019588D01*
G37*
G36*
X036946Y019448D02*
X036474Y018976D01*
X036348Y019102D01*
X036820Y019574D01*
X036946Y019448D01*
G37*
G36*
X037085Y019309D02*
X036613Y018837D01*
X036487Y018963D01*
X036959Y019435D01*
X037085Y019309D01*
G37*
G36*
X037225Y019170D02*
X036753Y018698D01*
X036627Y018824D01*
X037099Y019296D01*
X037225Y019170D01*
G37*
G36*
X037364Y019031D02*
X036892Y018559D01*
X036766Y018685D01*
X037238Y019157D01*
X037364Y019031D01*
G37*
G36*
X037503Y018892D02*
X037031Y018420D01*
X036905Y018546D01*
X037377Y019018D01*
X037503Y018892D01*
G37*
G36*
X038005Y019018D02*
X038477Y018546D01*
X038351Y018420D01*
X037879Y018892D01*
X038005Y019018D01*
G37*
G36*
X038145Y019157D02*
X038617Y018685D01*
X038491Y018559D01*
X038019Y019031D01*
X038145Y019157D01*
G37*
G36*
X038284Y019296D02*
X038756Y018824D01*
X038630Y018698D01*
X038158Y019170D01*
X038284Y019296D01*
G37*
G36*
X038423Y019435D02*
X038895Y018963D01*
X038769Y018837D01*
X038297Y019309D01*
X038423Y019435D01*
G37*
G36*
X038562Y019574D02*
X039034Y019102D01*
X038908Y018976D01*
X038436Y019448D01*
X038562Y019574D01*
G37*
G36*
X038701Y019714D02*
X039173Y019242D01*
X039047Y019116D01*
X038575Y019588D01*
X038701Y019714D01*
G37*
G36*
X038841Y019853D02*
X039313Y019381D01*
X039187Y019255D01*
X038715Y019727D01*
X038841Y019853D01*
G37*
G36*
X038980Y019992D02*
X039452Y019520D01*
X039326Y019394D01*
X038854Y019866D01*
X038980Y019992D01*
G37*
G36*
X039119Y020131D02*
X039591Y019659D01*
X039465Y019533D01*
X038993Y020005D01*
X039119Y020131D01*
G37*
G36*
X039258Y020270D02*
X039730Y019798D01*
X039604Y019672D01*
X039132Y020144D01*
X039258Y020270D01*
G37*
G36*
X039397Y020410D02*
X039869Y019938D01*
X039743Y019812D01*
X039271Y020284D01*
X039397Y020410D01*
G37*
G36*
X039536Y020549D02*
X040008Y020077D01*
X039882Y019951D01*
X039410Y020423D01*
X039536Y020549D01*
G37*
G36*
X039676Y020688D02*
X040148Y020216D01*
X040022Y020090D01*
X039550Y020562D01*
X039676Y020688D01*
G37*
G36*
X039815Y020827D02*
X040287Y020355D01*
X040161Y020229D01*
X039689Y020701D01*
X039815Y020827D01*
G37*
G36*
X039954Y020966D02*
X040426Y020494D01*
X040300Y020368D01*
X039828Y020840D01*
X039954Y020966D01*
G37*
G36*
X040093Y021106D02*
X040565Y020634D01*
X040439Y020508D01*
X039967Y020980D01*
X040093Y021106D01*
G37*
G36*
X040232Y021245D02*
X040704Y020773D01*
X040578Y020647D01*
X040106Y021119D01*
X040232Y021245D01*
G37*
G36*
X040372Y021384D02*
X040844Y020912D01*
X040718Y020786D01*
X040246Y021258D01*
X040372Y021384D01*
G37*
G36*
X040511Y021523D02*
X040983Y021051D01*
X040857Y020925D01*
X040385Y021397D01*
X040511Y021523D01*
G37*
G36*
X040650Y021662D02*
X041122Y021190D01*
X040996Y021064D01*
X040524Y021536D01*
X040650Y021662D01*
G37*
G36*
X040789Y021802D02*
X041261Y021330D01*
X041135Y021204D01*
X040663Y021676D01*
X040789Y021802D01*
G37*
G36*
X040928Y021941D02*
X041400Y021469D01*
X041274Y021343D01*
X040802Y021815D01*
X040928Y021941D01*
G37*
G36*
X041068Y022080D02*
X041540Y021608D01*
X041414Y021482D01*
X040942Y021954D01*
X041068Y022080D01*
G37*
D20*
X050691Y014512D03*
X050691Y014008D03*
X050691Y013504D03*
X050691Y013000D03*
X052651Y013000D03*
X052651Y013504D03*
X052651Y014008D03*
X052651Y014512D03*
D21*
X018991Y008636D03*
X018991Y009344D03*
X026191Y010736D03*
X026991Y010736D03*
X026991Y011444D03*
X026191Y011444D03*
X053549Y014077D03*
X053549Y014786D03*
X054291Y011544D03*
X054291Y010836D03*
D22*
X053584Y011316D03*
X052797Y011690D03*
X053584Y012064D03*
D23*
X055091Y012218D03*
X055091Y013163D03*
M02*
