%
M48
M72
T01C0.0197
T02C0.0236
T03C0.0350
T04C0.0400
T05C0.0433
T06C0.0472
T07C0.0550
T08C0.1300
%
T01
X33823Y17397
X32464Y18755
T02
X30481Y18070
X30391Y17390
X30791Y16990
X30091Y16690
X30691Y16390
X30391Y15790
X29341Y15540
X29091Y14740
X30021Y14420
X31391Y14290
X33841Y14650
X35791Y14290
X36691Y14390
X37591Y14390
X38661Y14230
X39591Y14290
X40511Y14380
X41491Y14290
X41891Y15090
X41101Y15860
X40391Y16290
X39591Y16690
X38901Y17210
X38491Y17590
X39291Y17690
X39991Y17290
X40691Y16990
X41391Y16690
X42991Y14990
X43991Y14890
X45891Y15590
X48291Y14990
X49791Y14190
X48691Y12990
X47791Y13490
X46791Y13490
X48291Y12490
X48391Y11190
X50591Y11890
X54311Y12070
X54991Y10190
X47791Y9490
X44521Y11430
X43391Y11410
X42421Y11480
X41451Y11500
X40391Y11490
X39171Y11550
X38031Y11450
X37291Y11590
X35691Y12490
X35041Y11790
X33091Y11590
X30991Y11590
X27861Y11440
X25691Y9890
X24491Y9890
X23091Y9890
X22091Y9790
X18991Y9890
X31791Y16790
X35141Y19160
X34431Y19900
X36191Y20690
X36491Y21590
X35991Y22390
X35091Y23290
X36391Y23790
X36491Y24390
X36841Y25000
X37291Y25390
X38491Y25190
X38491Y24644
X38891Y24320
X39081Y23080
X38931Y22440
X38131Y22660
X38751Y21910
X39401Y21950
X40011Y22100
X40571Y22050
X42191Y21890
X43291Y22190
X44991Y24290
X43191Y24690
X42691Y24390
X43891Y25090
X44591Y25290
X43011Y26350
X41291Y25320
X40811Y24940
X36091Y26290
X35551Y26730
X34531Y25770
X33771Y26060
X32981Y26250
X36891Y27290
X38381Y27270
X33191Y22990
X32691Y22290
X31991Y22390
X38481Y20810
X38731Y20360
X38971Y21020
X39971Y19640
X40291Y19170
X37891Y18390
X37391Y18400
X37611Y19140
X43891Y18490
X45191Y18090
X50891Y18990
X53291Y20190
X51891Y20690
X51691Y24590
X53091Y24590
X68491Y17590
X68561Y13960
X55491Y16990
X53551Y15420
X52651Y14934
X24591Y18390
X8591Y18290
X7991Y19790
T03
X10191Y17990
X11191Y17990
X12191Y17990
X15191Y14990
X15191Y13990
X15191Y12990
X28152Y20552
X28152Y21552
X28152Y22552
X25152Y25552
X24152Y25552
X23152Y25552
X15091Y26290
X15091Y27290
X15091Y28290
X12091Y23290
X11091Y23290
X10091Y23290
X50339Y25749
X51339Y25749
X52339Y25749
X55339Y22749
X55339Y21749
X55339Y20749
X63491Y17936
X64491Y17936
X65491Y17936
X60491Y14936
X60491Y13936
X60491Y12936
X60391Y25590
X60391Y26590
X60391Y27590
X63391Y30590
X64391Y30590
X65391Y30590
T04
X54391Y28240
X53391Y28140
X52391Y28240
X50891Y28240
X49891Y28140
X48891Y28240
X47391Y28240
X46391Y28140
X45391Y28240
X43891Y28240
X42891Y28140
X41891Y28240
X40391Y28240
X39391Y28140
X38391Y28240
X36891Y28240
X35891Y28140
X34891Y28240
X33391Y28240
X32391Y28140
X31391Y28240
X29891Y28240
X28891Y28140
X27891Y28240
X26391Y28240
X25391Y28140
X24391Y28240
X22891Y28240
X21891Y28140
X20891Y28240
X44872Y21394
X45527Y20632
X46019Y19756
X46674Y18994
X47166Y18117
X47821Y17356
X54891Y15060
X54891Y13920
X57321Y10890
X58461Y10890
X59991Y9560
X59991Y8420
X46877Y9480
X45877Y9380
X44877Y9480
X43877Y9380
X42877Y9480
X41877Y9380
X40877Y9480
X39877Y9380
X38877Y9480
X37877Y9380
X36877Y9480
X35877Y9380
X34877Y9480
X33877Y9380
X32877Y9480
X31877Y9380
X30877Y9480
X29877Y9380
X28877Y9480
X27877Y9380
X27877Y10380
X28877Y10480
X29877Y10380
X30877Y10480
X31877Y10380
X32877Y10480
X33877Y10380
X34877Y10480
X35877Y10380
X36877Y10480
X38877Y10480
X39877Y10380
X40877Y10480
X41877Y10380
X42877Y10480
X43877Y10380
X44877Y10480
X45877Y10380
X46877Y10480
X45539Y12490
X44539Y12390
X43539Y12490
X42539Y12390
X41539Y12490
X40539Y12390
X39539Y12490
X38539Y12390
X37539Y12490
X36539Y12390
X36539Y13390
X35539Y13490
X34539Y13390
X33539Y13490
X32539Y13390
X31539Y13490
X30539Y13390
X29539Y13490
X28539Y13390
X27539Y13490
X26539Y13390
X26539Y12390
X27539Y12490
X28539Y12390
X29539Y12490
X30539Y12390
X31539Y12490
X32539Y12390
X33539Y12490
X34539Y12390
X37539Y13490
X38539Y13390
X39539Y13490
X40539Y13390
X41539Y13490
X42539Y13390
X43539Y13490
X44539Y13390
X45539Y13490
X21999Y12774
X20741Y13090
X21899Y13774
X20841Y14090
X21999Y14774
X20841Y12090
X21899Y11774
X20741Y11090
X21999Y10774
X20841Y10090
T05
X9941Y8990
X12441Y8990
X12441Y10990
X9941Y10990
X22902Y16552
X25402Y16552
X25402Y18552
X22902Y18552
X8091Y26040
X6091Y26040
X6091Y28540
X8091Y28540
X50089Y18749
X52589Y18749
X52589Y16749
X50089Y16749
X67491Y15186
X69491Y15186
X69491Y12686
X67491Y12686
X67391Y25340
X69391Y25340
X69391Y27840
X67391Y27840
T06
X54154Y9926
X55138Y8941
X53169Y8941
X51180Y8941
X50196Y9926
X49212Y8941
T07
X61866Y10936
X67116Y10936
X67116Y16936
X61866Y16936
X54339Y19124
X48339Y19124
X48339Y24374
X54339Y24374
X61766Y23590
X67016Y23590
X67016Y29590
X61766Y29590
X27152Y24177
X21152Y24177
X13716Y24290
X8466Y24290
X21152Y18927
X27152Y18927
X14191Y16615
X8191Y16615
X8191Y11365
X14191Y11365
X13716Y30290
X8466Y30290
T08
X6586Y30563
X16903Y21773
X6803Y9373
X59013Y21570
X68713Y30170
X68756Y9254
M30
